<svg width="700" height="450" xmlns="http://www.w3.org/2000/svg">

    <defs>
        <symbol id="job">
            <rect width="50" height="30"/>
  	    <text x="25" y="20" font-family="Arial" font-size="12" text-anchor="middle"></text>
        </symbol>

        <symbol id="T1-key">
            <rect width="100" height="30" fill="plum"/>
  	    <text x="50" y="20" font-family="Arial" font-size="12" text-anchor="middle">2,4</text>
  	    <text x="-15" y="20" font-family="Arial" font-size="17" text-anchor="middle">T<tspan baseline-shift = "sub">1</tspan></text>
        </symbol>
        <symbol id="T2-key">
            <rect width="100" height="30" fill="lightgreen"/>
  	    <text x="50" y="20" font-family="Arial" font-size="12" text-anchor="middle">2,5</text>
  	    <text x="-15" y="20" font-family="Arial" font-size="17" text-anchor="middle">T<tspan baseline-shift = "sub">2</tspan></text>
        </symbol>
        <symbol id="T3-key">
            <rect width="50" height="30" fill="dimgrey"/>
  	    <text x="25" y="20" font-family="Arial" font-size="12" text-anchor="middle" fill="white">1,10</text>
  	    <text x="-15" y="20" font-family="Arial" font-size="17" text-anchor="middle">T<tspan baseline-shift = "sub">3</tspan></text>
        </symbol>

	<marker
      		id="black-arrow"
	        viewBox="0 0 10 10"
	        refX="5"
      		refY="5"
      		markerWidth="6"
      		markerHeight="6"
      		orient="auto-start-reverse">
      		<path d="M 0 0 L 10 5 L 0 10 z" fill="black" />
    	</marker>

	<marker
      		id="red-arrow"
	        viewBox="0 0 10 10"
	        refX="5"
      		refY="5"
      		markerWidth="6"
      		markerHeight="6"
      		orient="auto-start-reverse">
      		<path d="M 0 0 L 10 5 L 0 10 z" fill="#f00" />
    	</marker>

	<line
		id="release"
    		x1="0"
    		y1="30"
    		x2="0"
    		y2="0"
    		stroke="black"
    		marker-end="url(#black-arrow)" />

	<line
		id="deadline"
    		x1="0"
    		y1="0"
    		x2="0"
    		y2="30"
    		stroke="red"
    		marker-end="url(#red-arrow)" />

	<line
		id="period"
    		x1="0"
    		y1="0"
    		x2="200"
    		y2="0"
    		stroke="lightblue"
		marker-start="url(#black-arrow)"
    		marker-end="url(#black-arrow)" />

	<symbol id="period">
    		<use href="#period" x="0" y="0"/>
  	    <text x="0" y="0" font-family="Arial" font-size="12" text-anchor="middle">period</text>
        </symbol>


	<line
		id="time-marker"
    		x1="0"
    		y1="0"
    		x2="0"
    		y2="10"
    		stroke="black"
    		/>

    </defs>


	<!-- Tasks Key at the top -->
  	<use href="#T1-key" x="50" y="10"/>
	<use href="#T2-key" x="250" y="10"/>
  	<use href="#T3-key" x="450" y="10"/>

	<!-- Task Names at the Side -->
    	<text x="25" y="150" text-anchor="middle">T1</text>
    	<text x="25" y="250" text-anchor="middle">T2</text>
    	<text x="25" y="350" text-anchor="middle">T3</text>


	<!-- Release Times & Deadlines -->
	<!-- T1 Jobs -->
	<use href="#release" x="50" y="160"/>
	<use href="#release" x="250" y="160"/>
	<use href="#release" x="450" y="160"/>

	<use href="#deadline" x="250" y="120"/>
	<use href="#deadline" x="450" y="120"/>
	<use href="#deadline" x="650" y="120"/>

	<!-- T2 Jobs -->
	<use href="#release" x="50" y="260"/>
	<use href="#release" x="300" y="260"/>
	<use href="#release" x="550" y="260"/>

	<use href="#deadline" x="300" y="220"/>
	<use href="#deadline" x="550" y="220"/>

	<!-- T3 Jobs -->
	<use href="#release" x="50" y="380"/>
	<use href="#release" x="550" y="380"/>

	<use href="#deadline" x="550" y="310"/>




	<!-- Jobs -->
    	<use href="#job" x="50" y="120" fill="plum"/>
    	<use href="#job" x="100" y="120" fill="plum"/>

    	<use href="#job" x="150" y="220" fill="lightgreen"/>
    	<use href="#job" x="200" y="220" fill="lightgreen"/>

    	<use href="#job" x="250" y="120" fill="plum"/>
    	<use href="#job" x="300" y="120" fill="plum"/>

    	<use href="#job" x="350" y="220" fill="lightgreen"/>
    	<use href="#job" x="400" y="220" fill="lightgreen"/>

    	<use href="#job" x="450" y="120" fill="plum"/>
    	<use href="#job" x="500" y="120" fill="plum"/>

  <!-- Timeline at the bottom -->
  <line x1="50" y1="350" x2="650" y2="350" stroke="black" stroke-width="2" />

  <!-- Time markers for every unit of time -->
  <!-- Markers from 0 to 12 -->
  <use href="#time-marker" x="50" y="345"/>
    <text x="50" y="370" text-anchor="middle">0</text>

  <use href="#time-marker" x="100" y="345"/>
    <text x="100" y="370" text-anchor="middle">1</text>

  <use href="#time-marker" x="150" y="345"/>
    <text x="150" y="370" text-anchor="middle">2</text>

  <use href="#time-marker" x="200" y="345"/>
    <text x="200" y="370" text-anchor="middle">3</text>

  <use href="#time-marker" x="250" y="345"/>
    <text x="250" y="370" text-anchor="middle">4</text>

  <use href="#time-marker" x="300" y="345"/>
    <text x="300" y="370" text-anchor="middle">5</text>

  <use href="#time-marker" x="350" y="345"/>
    <text x="350" y="370" text-anchor="middle">6</text>

  <use href="#time-marker" x="400" y="345"/>
    <text x="400" y="370" text-anchor="middle">7</text>

  <use href="#time-marker" x="450" y="345"/>
    <text x="450" y="370" text-anchor="middle">8</text>

  <use href="#time-marker" x="500" y="345"/>
    <text x="500" y="370" text-anchor="middle">9</text>

  <use href="#time-marker" x="550" y="345"/>
    <text x="550" y="370" text-anchor="middle">10</text>

  <use href="#time-marker" x="600" y="345"/>
    <text x="600" y="370" text-anchor="middle">11</text>

  <use href="#time-marker" x="650" y="345"/>
    <text x="650" y="370" text-anchor="middle">12</text>




    <!-- OLD STUFF : here for reference -->

    <!--use href="#release" x="50" y="80"/>
    <text x="75" y="110" font-family="Arial" font-size="12" text-anchor="middle">arrivals</text>
   
    <use href="#deadline" x="150" y="80"/>
    <text x="180" y="110" font-family="Arial" font-size="12" text-anchor="middle">deadlines</tex-->


    <!-- release arrows -->
    <!--use href="#release" x="50" y="280"/>
    <use href="#release" x="250" y="280"/-->

    <!-- deadline arrows -->
    <!--use href="#deadline" x="200" y="180"/>
    <use href="#deadline" x="400" y="180"/-->

    <!-- period arrows -->
    <!--use href="#period" x="50" y="290"/>
    <text x="150" y="300" font-family="Arial" font-size="12">period</text-->




  <!--g font-family="DejaVu Sans" font-size="10" text-anchor="middle"-->
    <!-- Vertical lines for each unit -->
    <!--line x1="50" y1="245" x2="50" y2="255" stroke="black" stroke-width="1" />
    <line x1="100" y1="245" x2="100" y2="255" stroke="black" stroke-width="1" />
    <line x1="150" y1="245" x2="150" y2="255" stroke="black" stroke-width="1" />
    <line x1="200" y1="245" x2="200" y2="255" stroke="black" stroke-width="1" />
    <line x1="250" y1="245" x2="250" y2="255" stroke="black" stroke-width="1" />
    <line x1="300" y1="245" x2="300" y2="255" stroke="black" stroke-width="1" />
    <line x1="350" y1="245" x2="350" y2="255" stroke="black" stroke-width="1" />
    <line x1="400" y1="245" x2="400" y2="255" stroke="black" stroke-width="1" />
    <line x1="450" y1="245" x2="450" y2="255" stroke="black" stroke-width="1" />
    <line x1="500" y1="245" x2="500" y2="255" stroke="black" stroke-width="1" />
    <line x1="550" y1="245" x2="550" y2="255" stroke="black" stroke-width="1" /-->

    <!-- Labels for each unit -->
  <!--/g-->

</svg>
