<svg id="ad90ffb8-d14a-4205-a9a6-a3a515370fd9" data-name="Layer 1" xmlns="http://www.w3.org/2000/svg" width="4.82in" height="8.81in" viewBox="0 0 347.18 634.44"><rect x="230.58" y="183.06" width="115.85" height="114.67" fill="#fbc694" stroke="#10426b" stroke-linecap="round" stroke-linejoin="round" stroke-width="1.5"/><path d="M302.31,222.73c0,1.34,1,1.86,2.22,1.86.78,0,2-.22,2-1.25s-1.51-1.27-3-1.66-3-1-3-2.86c0-2.06,1.94-3,3.75-3,2.1,0,4,.91,4,3.23h-2.14c-.07-1.21-.93-1.52-2-1.52-.71,0-1.52.3-1.52,1.14s.48.88,3,1.53c.74.18,3,.64,3,2.92,0,1.85-1.45,3.23-4.18,3.23-2.23,0-4.31-1.1-4.28-3.58Z" fill="#10426b"/><path d="M309.94,216h4.53a3.24,3.24,0,1,1,0,6.46h-2.33v3.6h-2.2Zm2.2,4.74h1.72c1,0,1.94-.23,1.94-1.51s-.91-1.51-1.94-1.51h-1.72Z" fill="#10426b"/><path d="M319.32,216h2.21v10.06h-2.21Z" fill="#10426b"/><path d="M283.8,239.63c0,1.33,1,1.86,2.22,1.86.78,0,2-.23,2-1.26s-1.51-1.27-3-1.66-3-1-3-2.86c0-2.06,1.94-3,3.75-3,2.1,0,4,.91,4,3.24h-2.14c-.07-1.21-.93-1.52-2-1.52-.71,0-1.52.29-1.52,1.14s.48.87,3,1.52c.74.18,3,.65,3,2.93,0,1.84-1.45,3.22-4.18,3.22-2.23,0-4.31-1.09-4.28-3.57Z" fill="#10426b"/><path d="M298,243h-1.9v-1h0a2.59,2.59,0,0,1-2.23,1.21c-2.12,0-2.66-1.2-2.66-3v-4.48h2v4.12c0,1.19.35,1.78,1.28,1.78,1.09,0,1.55-.6,1.55-2.08v-3.82h2Z" fill="#10426b"/><path d="M299.56,232.91h2v3.66h0a2.69,2.69,0,0,1,2.3-1.08c1.45,0,3,1.16,3,3.83s-1.56,3.84-3,3.84a2.5,2.5,0,0,1-2.39-1.13h0V243h-1.9Zm3.63,4.08c-1.18,0-1.7,1.12-1.7,2.34s.52,2.32,1.7,2.32,1.7-1.11,1.7-2.32S304.37,237,303.19,237Z" fill="#10426b"/><path d="M308.16,235.68h1.9v1h0a2.58,2.58,0,0,1,2.22-1.21c2.13,0,2.66,1.19,2.66,3V243h-2v-4.11c0-1.2-.35-1.79-1.28-1.79s-1.55.61-1.55,2.09V243h-2Z" fill="#10426b"/><path d="M320,235.49a3.84,3.84,0,1,1-3.76,3.84A3.57,3.57,0,0,1,320,235.49Zm0,6.16c1.37,0,1.77-1.16,1.77-2.32S321.4,237,320,237s-1.76,1.17-1.76,2.34S318.68,241.65,320,241.65Z" fill="#10426b"/><path d="M330.29,242h0a2.41,2.41,0,0,1-2.21,1.13c-2.19,0-3.26-1.89-3.26-3.9s1.08-3.77,3.22-3.77a2.49,2.49,0,0,1,2.15,1.08h0v-3.66h2V243h-1.9Zm-1.75-5c-1.3,0-1.75,1.13-1.75,2.33s.52,2.33,1.75,2.33,1.72-1.15,1.72-2.35S329.84,237,328.54,237Z" fill="#10426b"/><path d="M335.34,239.81c.06,1.27.68,1.84,1.79,1.84a1.63,1.63,0,0,0,1.57-.94h1.76a3.27,3.27,0,0,1-3.4,2.45,3.56,3.56,0,0,1-3.72-3.83,3.65,3.65,0,0,1,3.72-3.84c2.47,0,3.67,2.08,3.53,4.32Zm3.25-1.27c-.18-1-.62-1.55-1.59-1.55a1.58,1.58,0,0,0-1.66,1.55Z" fill="#10426b"/><path d="M237.74,248.42c0,1.34,1,1.86,2.22,1.86.78,0,2-.22,2-1.25s-1.51-1.27-3-1.66-3-1-3-2.86c0-2.06,1.94-3,3.76-3,2.09,0,4,.92,4,3.24h-2.14c-.07-1.21-.93-1.52-2-1.52-.71,0-1.52.3-1.52,1.14s.48.88,3,1.52c.73.19,3,.65,3,2.93,0,1.85-1.45,3.23-4.18,3.23-2.22,0-4.31-1.1-4.28-3.58Z" fill="#10426b"/><path d="M252.06,245.08a2.16,2.16,0,0,0-2.19-1.76c-2,0-2.73,1.69-2.73,3.45s.75,3.37,2.73,3.37a2.27,2.27,0,0,0,2.28-2.25h2.14a4.25,4.25,0,0,1-4.42,4.11c-3.11,0-4.94-2.33-4.94-5.23s1.83-5.31,4.94-5.31a4.08,4.08,0,0,1,4.33,3.62Z" fill="#10426b"/><path d="M255.79,241.7H258v8.2h4.9v1.86h-7.11Z" fill="#10426b"/><path d="M264.14,241.7h2.21v4.17l3.92-4.17H273l-3.93,4,4.31,6.08h-2.77l-3-4.52-1.26,1.28v3.24h-2.21Z" fill="#10426b"/><path d="M279.21,198.22c0,1.33,1.05,1.85,2.23,1.85.77,0,1.95-.22,1.95-1.25s-1.5-1.27-3-1.66-3-1-3-2.86c0-2.06,1.95-3,3.76-3,2.1,0,4,.91,4,3.24h-2.14c-.07-1.21-.92-1.52-2-1.52-.7,0-1.52.29-1.52,1.14s.48.87,3,1.52c.73.18,3,.65,3,2.93,0,1.84-1.45,3.22-4.18,3.22-2.22,0-4.3-1.1-4.27-3.57Z" fill="#10426b"/><path d="M286.84,191.5h4.33c2.61,0,4.56,1.63,4.56,5,0,2.91-1.49,5.08-4.56,5.08h-4.33Zm2.21,8.19h2c1.28,0,2.5-.78,2.5-3,0-2-.7-3.32-2.89-3.32h-1.58Z" fill="#10426b"/><path d="M297.27,191.5h2.21v10.05h-2.21Z" fill="#10426b"/><path d="M275.73,288.41c0,1.34,1,1.86,2.22,1.86.77,0,2-.23,2-1.25s-1.51-1.27-3-1.67-3-1-3-2.86c0-2.05,1.94-3,3.75-3,2.1,0,4,.92,4,3.24h-2.14c-.07-1.21-.93-1.52-2-1.52-.7,0-1.52.3-1.52,1.14s.48.87,3,1.52c.73.19,3,.65,3,2.93,0,1.85-1.45,3.23-4.17,3.23-2.23,0-4.31-1.1-4.28-3.58Z" fill="#10426b"/><path d="M283.35,281.69h4.34c2.6,0,4.56,1.64,4.56,5,0,2.92-1.5,5.09-4.56,5.09h-4.34Zm2.21,8.2h2c1.28,0,2.51-.79,2.51-3,0-2-.71-3.32-2.9-3.32h-1.58Z" fill="#10426b"/><path d="M298.28,281.45c3.11,0,4.94,2.33,4.94,5.31s-1.83,5.23-4.94,5.23-4.94-2.33-4.94-5.23S295.17,281.45,298.28,281.45Zm0,8.68c2,0,2.73-1.69,2.73-3.37s-.74-3.45-2.73-3.45-2.73,1.69-2.73,3.45S296.3,290.13,298.28,290.13Z" fill="#10426b"/><rect x="0.75" y="0.75" width="115.85" height="152.25" fill="#b7e6ef" stroke="#10426b" stroke-linecap="round" stroke-linejoin="round" stroke-width="1.5"/><path d="M25.5,21.9c0,1.34,1,1.86,2.22,1.86.78,0,2-.22,2-1.25s-1.51-1.27-3-1.66-3-1-3-2.86c0-2.06,1.94-3,3.75-3,2.1,0,4,.91,4,3.24H29.34c-.07-1.22-.93-1.53-2-1.53-.71,0-1.52.3-1.52,1.15s.47.87,3,1.52c.73.18,3,.64,3,2.93,0,1.84-1.45,3.22-4.18,3.22-2.23,0-4.31-1.1-4.28-3.58Z" fill="#10426b"/><path d="M33.13,15.19h4.53c2.5,0,3.47,1.59,3.47,3.22s-1,3.23-3.47,3.23H35.33v3.6h-2.2Zm2.2,4.73h1.72c1,0,1.94-.23,1.94-1.51s-.91-1.51-1.94-1.51H35.33Z" fill="#10426b"/><path d="M42.51,15.19h2.21v10H42.51Z" fill="#10426b"/><path d="M18.92,32.08H22L24.38,39h0l2.22-6.92h3.11V42.14H27.67V35h0l-2.46,7.13h-1.7L21,35.08h0v7.06H18.92Z" fill="#10426b"/><path d="M31.39,37.09c.11-1.87,1.78-2.43,3.42-2.43,1.45,0,3.19.32,3.19,2.07v3.79a3.81,3.81,0,0,0,.25,1.62h-2a2.88,2.88,0,0,1-.14-.71,3.37,3.37,0,0,1-2.45.9c-1.38,0-2.48-.69-2.48-2.18,0-1.65,1.24-2,2.48-2.21S36,37.8,36,37s-.59-1-1.29-1-1.25.31-1.32,1.09ZM36,38.57a4,4,0,0,1-1.66.43c-.62.12-1.18.33-1.18,1.07s.58.93,1.22.93A1.48,1.48,0,0,0,36,39.32Z" fill="#10426b"/><path d="M41.6,33.73h-2V32.08h2Zm-2,1.12h2v7.29h-2Z" fill="#10426b"/><path d="M43.18,34.85h1.9v1h0a2.59,2.59,0,0,1,2.22-1.21c2.13,0,2.66,1.19,2.66,3v4.48H48V38c0-1.19-.35-1.79-1.28-1.79s-1.54.61-1.54,2.09v3.82h-2Z" fill="#10426b"/><path d="M8,135.69h3.11l2.35,6.91h0l2.22-6.91h3.11v10.05H16.7v-7.12h0l-2.46,7.12h-1.7l-2.46-7.05h0v7.05H8Z" fill="#10426b"/><path d="M22.56,137.33h-2v-1.64h2Zm-2,1.13h2v7.28h-2Z" fill="#10426b"/><path d="M29.08,141a1.35,1.35,0,0,0-1.47-1.25c-1.28,0-1.71,1.3-1.71,2.37s.41,2.29,1.66,2.29A1.53,1.53,0,0,0,29.15,143h1.93a3.25,3.25,0,0,1-3.5,3,3.53,3.53,0,0,1-3.67-3.73c0-2.27,1.35-4,3.71-4,1.72,0,3.29.9,3.42,2.76Z" fill="#10426b"/><path d="M32.21,138.46h1.9v1.35h0a2.57,2.57,0,0,1,2.32-1.55,1.49,1.49,0,0,1,.43.07v1.86a3.71,3.71,0,0,0-.71-.07c-1.47,0-2,1.06-2,2.34v3.28h-2Z" fill="#10426b"/><path d="M41.21,138.26a3.84,3.84,0,0,1,0,7.68,3.84,3.84,0,0,1,0-7.68Zm0,6.17c1.37,0,1.78-1.17,1.78-2.32s-.41-2.34-1.78-2.34-1.76,1.17-1.76,2.34S39.86,144.43,41.21,144.43Z" fill="#10426b"/><path d="M51.23,141a1.37,1.37,0,0,0-1.48-1.25c-1.28,0-1.7,1.3-1.7,2.37s.41,2.29,1.66,2.29A1.53,1.53,0,0,0,51.3,143h1.93a3.25,3.25,0,0,1-3.5,3,3.54,3.54,0,0,1-3.68-3.73c0-2.27,1.35-4,3.72-4,1.71,0,3.29.9,3.42,2.76Z" fill="#10426b"/><path d="M57.89,138.26a3.84,3.84,0,1,1-3.76,3.85A3.58,3.58,0,0,1,57.89,138.26Zm0,6.17c1.36,0,1.77-1.17,1.77-2.32s-.41-2.34-1.77-2.34-1.76,1.17-1.76,2.34S56.54,144.43,57.89,144.43Z" fill="#10426b"/><path d="M63,138.46h1.9v1h0a2.62,2.62,0,0,1,2.23-1.21c2.12,0,2.66,1.2,2.66,3v4.48h-2v-4.11c0-1.2-.35-1.79-1.28-1.79s-1.55.61-1.55,2.08v3.82H63Z" fill="#10426b"/><path d="M73.83,138.46h1.46v1.34H73.83v3.6c0,.68.17.85.84.85a2.61,2.61,0,0,0,.62-.06v1.57a8.56,8.56,0,0,1-1.17.07c-1.22,0-2.29-.29-2.29-1.74V139.8H70.62v-1.34h1.21v-2.18h2Z" fill="#10426b"/><path d="M76.25,138.46h1.9v1.35h0a2.57,2.57,0,0,1,2.32-1.55,1.49,1.49,0,0,1,.43.07v1.86a3.71,3.71,0,0,0-.71-.07c-1.47,0-2,1.06-2,2.34v3.28h-2Z" fill="#10426b"/><path d="M85.25,138.26a3.84,3.84,0,1,1-3.75,3.85A3.57,3.57,0,0,1,85.25,138.26Zm0,6.17c1.37,0,1.78-1.17,1.78-2.32s-.41-2.34-1.78-2.34-1.75,1.17-1.75,2.34S83.9,144.43,85.25,144.43Z" fill="#10426b"/><path d="M90.38,135.69h2v10.05h-2Z" fill="#10426b"/><path d="M94,135.69h2v10.05H94Z" fill="#10426b"/><path d="M99.23,142.59c0,1.26.67,1.84,1.78,1.84a1.65,1.65,0,0,0,1.58-.94h1.76a3.27,3.27,0,0,1-3.41,2.45,3.55,3.55,0,0,1-3.71-3.83,3.65,3.65,0,0,1,3.71-3.85c2.48,0,3.68,2.09,3.53,4.33Zm3.25-1.27c-.19-1-.62-1.55-1.59-1.55a1.58,1.58,0,0,0-1.66,1.55Z" fill="#10426b"/><path d="M105.66,138.46h1.9v1.35h0a2.6,2.6,0,0,1,2.33-1.55,1.49,1.49,0,0,1,.43.07v1.86a3.79,3.79,0,0,0-.71-.07c-1.47,0-2,1.06-2,2.34v3.28h-2Z" fill="#10426b"/><path d="M76.94,60.75c0,1.33,1,1.85,2.23,1.85.77,0,2-.22,2-1.25s-1.5-1.27-3-1.66-3-1-3-2.86c0-2.06,1.94-3,3.76-3,2.09,0,4,.91,4,3.24H80.78c-.07-1.21-.93-1.52-2-1.52-.7,0-1.52.29-1.52,1.14s.48.87,3,1.52c.73.18,3,.65,3,2.93,0,1.84-1.45,3.22-4.18,3.22-2.22,0-4.3-1.1-4.28-3.57Z" fill="#10426b"/><path d="M91.27,57.41a2.17,2.17,0,0,0-2.2-1.76c-2,0-2.73,1.69-2.73,3.45s.75,3.36,2.73,3.36a2.27,2.27,0,0,0,2.28-2.25h2.14a4.25,4.25,0,0,1-4.42,4.11c-3.11,0-4.94-2.32-4.94-5.22s1.83-5.31,4.94-5.31a4.06,4.06,0,0,1,4.33,3.62Z" fill="#10426b"/><path d="M95,54h2.21v8.19h4.89v1.86H95Z" fill="#10426b"/><path d="M103.34,54h2.21V58.2L109.47,54h2.76l-3.92,4,4.3,6.08h-2.77l-3-4.52-1.26,1.28v3.24h-2.21Z" fill="#10426b"/><path d="M76.59,82.88H79.7l2.35,6.91h0l2.22-6.91h3.11V92.93H85.34V85.81h0l-2.46,7.12h-1.7l-2.46-7.05h0v7.05H76.59Z" fill="#10426b"/><path d="M93.85,82.64C97,82.64,98.79,85,98.79,88S97,93.17,93.85,93.17,88.92,90.85,88.92,88,90.75,82.64,93.85,82.64Zm0,8.67c2,0,2.73-1.69,2.73-3.36s-.74-3.45-2.73-3.45S91.13,86.19,91.13,88,91.87,91.31,93.85,91.31Z" fill="#10426b"/><path d="M101.81,89.6c0,1.33,1,1.85,2.22,1.85.77,0,2-.22,2-1.25s-1.5-1.27-3-1.66-3-1-3-2.86c0-2.06,2-3,3.76-3,2.1,0,4,.91,4,3.24h-2.13c-.07-1.21-.93-1.52-2-1.52-.7,0-1.52.29-1.52,1.14s.48.87,3,1.52c.73.18,3,.65,3,2.93,0,1.84-1.45,3.22-4.18,3.22-2.22,0-4.3-1.1-4.27-3.57Z" fill="#10426b"/><path d="M109.43,82.88h2.21V92.93h-2.21Z" fill="#10426b"/><path d="M76.59,110.52H79.7l2.35,6.92h0l2.22-6.92h3.11v10.06H85.34v-7.13h0l-2.46,7.13h-1.7l-2.46-7.06h0v7.06H76.59Z" fill="#10426b"/><path d="M89.35,110.52h2.21v10.06H89.35Z" fill="#10426b"/><path d="M95,117.24c0,1.34,1,1.86,2.22,1.86.78,0,2-.22,2-1.25s-1.51-1.27-3-1.66-3-1-3-2.86c0-2.06,1.94-3,3.75-3,2.1,0,4,.92,4,3.24H98.85c-.07-1.21-.93-1.52-2-1.52-.71,0-1.52.3-1.52,1.14s.48.88,3,1.52c.74.19,3,.65,3,2.93,0,1.85-1.45,3.23-4.18,3.23-2.23,0-4.31-1.1-4.28-3.58Z" fill="#10426b"/><path d="M107.14,110.28c3.11,0,4.94,2.33,4.94,5.31s-1.83,5.23-4.94,5.23-4.94-2.32-4.94-5.23S104,110.28,107.14,110.28Zm0,8.68c2,0,2.73-1.69,2.73-3.37s-.75-3.45-2.73-3.45-2.73,1.69-2.73,3.45S105.15,119,107.14,119Z" fill="#10426b"/><g id="aafcb2bb-5c56-419e-b933-d864b2605e9c" data-name="Junction Point (Filled)"><path d="M205.22,29.6h0a2.88,2.88,0,1,0-2.88,2.81,2.84,2.84,0,0,0,2.88-2.81Z" fill="#10426b" stroke="#10426b" stroke-miterlimit="14.3"/><path d="M205.22,211.55h0a2.88,2.88,0,1,0-2.88,2.81,2.84,2.84,0,0,0,2.88-2.81Z" fill="#10426b" stroke="#10426b" stroke-miterlimit="14.3"/><path d="M205.22,380h0a2.88,2.88,0,1,0-2.88,2.81,2.84,2.84,0,0,0,2.88-2.81Z" fill="#10426b" stroke="#10426b" stroke-miterlimit="14.3"/><path d="M205.22,548.05h0a2.88,2.88,0,1,0-2.88,2.81,2.84,2.84,0,0,0,2.88-2.81Z" fill="#10426b" stroke="#10426b" stroke-miterlimit="14.3"/><path d="M176.48,58.41h0a2.88,2.88,0,1,0-2.87,2.81,2.84,2.84,0,0,0,2.87-2.81Z" fill="#10426b" stroke="#10426b" stroke-miterlimit="14.3"/><path d="M176.48,247.74h0a2.88,2.88,0,1,0-2.87,2.81,2.85,2.85,0,0,0,2.87-2.81Z" fill="#10426b" stroke="#10426b" stroke-miterlimit="14.3"/><path d="M176.48,416.3h0a2.88,2.88,0,1,0-2.87,2.81,2.84,2.84,0,0,0,2.87-2.81Z" fill="#10426b" stroke="#10426b" stroke-miterlimit="14.3"/><path d="M176.48,583.05h0a2.88,2.88,0,1,0-2.87,2.81,2.84,2.84,0,0,0,2.87-2.81Z" fill="#10426b" stroke="#10426b" stroke-miterlimit="14.3"/></g><rect x="230.58" y="15.54" width="115.85" height="114.67" fill="#fbc694" stroke="#10426b" stroke-linecap="round" stroke-linejoin="round" stroke-width="1.5"/><path d="M302.31,33.37c0,1.34,1,1.86,2.22,1.86.78,0,2-.22,2-1.25s-1.51-1.27-3-1.66-3-1-3-2.86c0-2.06,1.94-3,3.75-3,2.1,0,4,.91,4,3.23h-2.14c-.07-1.21-.93-1.52-2-1.52-.71,0-1.52.3-1.52,1.14s.48.88,3,1.53c.74.18,3,.64,3,2.92,0,1.85-1.45,3.23-4.18,3.23-2.23,0-4.31-1.1-4.28-3.58Z" fill="#10426b"/><path d="M309.94,26.65h4.53a3.24,3.24,0,1,1,0,6.46h-2.33v3.6h-2.2Zm2.2,4.74h1.72c1,0,1.94-.23,1.94-1.51s-.91-1.51-1.94-1.51h-1.72Z" fill="#10426b"/><path d="M319.32,26.65h2.21V36.71h-2.21Z" fill="#10426b"/><path d="M283.8,50.27c0,1.33,1,1.86,2.22,1.86.78,0,2-.23,2-1.26s-1.51-1.27-3-1.66-3-1-3-2.86c0-2.05,1.94-3,3.75-3,2.1,0,4,.91,4,3.24h-2.14c-.07-1.21-.93-1.52-2-1.52-.71,0-1.52.29-1.52,1.14s.48.87,3,1.52c.74.18,3,.65,3,2.93,0,1.84-1.45,3.22-4.18,3.22-2.23,0-4.31-1.09-4.28-3.57Z" fill="#10426b"/><path d="M298,53.6h-1.9v-1h0a2.59,2.59,0,0,1-2.23,1.21c-2.12,0-2.66-1.2-2.66-3V46.32h2v4.12c0,1.19.35,1.78,1.28,1.78,1.09,0,1.55-.6,1.55-2.08V46.32h2Z" fill="#10426b"/><path d="M299.56,43.55h2v3.66h0a2.69,2.69,0,0,1,2.3-1.08c1.45,0,3,1.17,3,3.83s-1.56,3.84-3,3.84a2.5,2.5,0,0,1-2.39-1.13h0v.93h-1.9Zm3.63,4.08c-1.18,0-1.7,1.12-1.7,2.34s.52,2.33,1.7,2.33,1.7-1.12,1.7-2.33S304.37,47.63,303.19,47.63Z" fill="#10426b"/><path d="M308.16,46.32h1.9v1h0a2.58,2.58,0,0,1,2.22-1.21c2.13,0,2.66,1.19,2.66,3V53.6h-2V49.49c0-1.19-.35-1.79-1.28-1.79s-1.55.61-1.55,2.09V53.6h-2Z" fill="#10426b"/><path d="M320,46.13A3.57,3.57,0,0,1,323.8,50a3.77,3.77,0,1,1-7.53,0A3.57,3.57,0,0,1,320,46.13Zm0,6.17c1.37,0,1.77-1.17,1.77-2.33s-.4-2.34-1.77-2.34-1.76,1.17-1.76,2.34S318.68,52.3,320,52.3Z" fill="#10426b"/><path d="M330.29,52.67h0a2.41,2.41,0,0,1-2.21,1.13c-2.19,0-3.26-1.89-3.26-3.9s1.08-3.77,3.22-3.77a2.49,2.49,0,0,1,2.15,1.08h0V43.55h2V53.6h-1.9Zm-1.75-5c-1.3,0-1.75,1.13-1.75,2.33s.52,2.34,1.75,2.34,1.72-1.16,1.72-2.36S329.84,47.63,328.54,47.63Z" fill="#10426b"/><path d="M335.34,50.45c.06,1.27.68,1.85,1.79,1.85a1.64,1.64,0,0,0,1.57-.95h1.76a3.27,3.27,0,0,1-3.4,2.45A3.56,3.56,0,0,1,333.34,50a3.65,3.65,0,0,1,3.72-3.84c2.47,0,3.67,2.08,3.53,4.32Zm3.25-1.27c-.18-1-.62-1.55-1.59-1.55a1.58,1.58,0,0,0-1.66,1.55Z" fill="#10426b"/><path d="M237.74,61.16c0,1.34,1,1.86,2.22,1.86.78,0,2-.22,2-1.25s-1.51-1.27-3-1.66-3-1-3-2.86c0-2.06,1.94-3,3.76-3,2.09,0,4,.92,4,3.24h-2.14c-.07-1.21-.93-1.52-2-1.52-.71,0-1.52.3-1.52,1.14s.48.88,3,1.52c.73.19,3,.65,3,2.93,0,1.85-1.45,3.23-4.18,3.23-2.22,0-4.31-1.1-4.28-3.58Z" fill="#10426b"/><path d="M252.06,57.82a2.16,2.16,0,0,0-2.19-1.76c-2,0-2.73,1.69-2.73,3.45s.75,3.37,2.73,3.37a2.27,2.27,0,0,0,2.28-2.25h2.14a4.25,4.25,0,0,1-4.42,4.11c-3.11,0-4.94-2.32-4.94-5.23s1.83-5.31,4.94-5.31a4.08,4.08,0,0,1,4.33,3.62Z" fill="#10426b"/><path d="M255.79,54.44H258v8.2h4.9V64.5h-7.11Z" fill="#10426b"/><path d="M264.14,54.44h2.21v4.17l3.92-4.17H273l-3.93,4,4.31,6.08h-2.77l-3-4.52-1.26,1.28V64.5h-2.21Z" fill="#10426b"/><path d="M237.74,84.66c0,1.34,1,1.86,2.22,1.86.78,0,2-.22,2-1.25s-1.51-1.27-3-1.66-3-1-3-2.86c0-2.06,1.94-3,3.76-3,2.09,0,4,.92,4,3.24h-2.14c-.07-1.21-.93-1.52-2-1.52-.71,0-1.52.3-1.52,1.14s.48.88,3,1.52c.73.19,3,.65,3,2.93,0,1.85-1.45,3.23-4.18,3.23-2.22,0-4.31-1.1-4.28-3.58Z" fill="#10426b"/><path d="M245.37,77.94h4.33c2.6,0,4.56,1.64,4.56,5,0,2.91-1.49,5.08-4.56,5.08h-4.33Zm2.21,8.2h2c1.28,0,2.5-.79,2.5-3,0-2-.7-3.33-2.9-3.33h-1.57Z" fill="#10426b"/><path d="M255.79,77.94H258V88h-2.21Z" fill="#10426b"/><path d="M275.73,120.89c0,1.34,1,1.86,2.22,1.86.77,0,2-.23,2-1.26s-1.51-1.26-3-1.66-3-1-3-2.86c0-2,1.94-3,3.75-3,2.1,0,4,.92,4,3.24h-2.14c-.07-1.21-.93-1.52-2-1.52-.7,0-1.52.3-1.52,1.14s.48.87,3,1.52c.73.18,3,.65,3,2.93,0,1.85-1.45,3.23-4.17,3.23-2.23,0-4.31-1.1-4.28-3.58Z" fill="#10426b"/><path d="M283.35,114.17h4.34c2.6,0,4.56,1.63,4.56,5,0,2.92-1.5,5.09-4.56,5.09h-4.34Zm2.21,8.2h2c1.28,0,2.51-.79,2.51-3,0-2-.71-3.32-2.9-3.32h-1.58Z" fill="#10426b"/><path d="M298.28,113.93c3.11,0,4.94,2.32,4.94,5.31s-1.83,5.23-4.94,5.23-4.94-2.33-4.94-5.23S295.17,113.93,298.28,113.93Zm0,8.68c2,0,2.73-1.69,2.73-3.37s-.74-3.45-2.73-3.45-2.73,1.69-2.73,3.45S296.3,122.61,298.28,122.61Z" fill="#10426b"/><line x1="116.6" y1="29.56" x2="224.98" y2="29.56" fill="none" stroke="#10426b" stroke-miterlimit="10" stroke-width="1.5"/><line x1="116.6" y1="58.41" x2="224.98" y2="58.41" fill="none" stroke="#10426b" stroke-miterlimit="10" stroke-width="1.5"/><line x1="116.6" y1="83.3" x2="224.98" y2="83.3" fill="none" stroke="#10426b" stroke-miterlimit="10" stroke-width="1.5"/><line x1="202.3" y1="211.51" x2="224.98" y2="211.51" fill="none" stroke="#10426b" stroke-miterlimit="10" stroke-width="1.5"/><line x1="173.61" y1="247.74" x2="224.98" y2="247.74" fill="none" stroke="#10426b" stroke-miterlimit="10" stroke-width="1.5"/><polyline points="224.98 380.07 202.3 380.07 202.3 29.56" fill="none" stroke="#10426b" stroke-miterlimit="10" stroke-width="1.5"/><polyline points="224.98 416.3 173.61 416.3 173.61 58.41" fill="none" stroke="#10426b" stroke-miterlimit="10" stroke-width="1.5"/><polyline points="230.7 624.05 144.88 624.05 144.88 116.15 122.24 116.15" fill="none" stroke="#10426b" stroke-miterlimit="10" stroke-width="1.5"/><polygon points="217.08 33.18 230.58 29.56 217.08 25.95 217.08 33.18" fill="#10426b"/><polygon points="217.08 62.07 230.58 58.45 217.08 54.83 217.08 62.07" fill="#10426b"/><polygon points="217.08 86.92 230.58 83.3 217.08 79.68 217.08 86.92" fill="#10426b"/><polygon points="130.1 112.49 116.6 116.11 130.1 119.73 130.1 112.49" fill="#10426b"/><polygon points="217.08 215.13 230.58 211.51 217.08 207.89 217.08 215.13" fill="#10426b"/><polygon points="217.08 251.35 230.58 247.74 217.08 244.12 217.08 251.35" fill="#10426b"/><polygon points="217.08 383.69 230.58 380.07 217.08 376.46 217.08 383.69" fill="#10426b"/><polygon points="217.08 419.92 230.58 416.3 217.08 412.68 217.08 419.92" fill="#10426b"/><polygon points="217.08 551.49 230.58 547.88 217.08 544.26 217.08 551.49" fill="#10426b"/><polygon points="217.08 586.67 230.58 583.05 217.08 579.43 217.08 586.67" fill="#10426b"/><polygon points="158.37 620.43 144.88 624.05 158.37 627.67 158.37 620.43" fill="#10426b"/><polygon points="284.92 337.73 288.54 351.23 292.16 337.73 284.92 337.73" fill="#10426b"/><polygon points="284.92 169.82 288.54 183.32 292.16 169.82 284.92 169.82" fill="#10426b"/><line x1="288.54" y1="341.3" x2="288.54" y2="298.09" fill="none" stroke="#10426b" stroke-miterlimit="10" stroke-width="1.5"/><line x1="288.54" y1="179.31" x2="288.54" y2="130.21" fill="none" stroke="#10426b" stroke-miterlimit="10" stroke-width="1.5"/><path d="M256.67,95.5h2.27l3.75,10H260.4l-.76-2.23h-3.76l-.79,2.23h-2.23Zm-.21,6.17h2.6L257.8,98h0Z" fill="#10426b"/><path d="M263.57,95.5h4.33c2.6,0,4.56,1.63,4.56,5,0,2.92-1.49,5.08-4.56,5.08h-4.33Zm2.2,8.2h2c1.28,0,2.51-.79,2.51-3,0-2-.71-3.32-2.9-3.32h-1.58Z" fill="#10426b"/><path d="M281.25,104.41a3.4,3.4,0,0,1-2.76,1.38c-3.11,0-4.93-2.32-4.93-5.22s1.82-5.31,4.93-5.31a4,4,0,0,1,4.24,3.55h-2.11a2.06,2.06,0,0,0-2.13-1.69c-2,0-2.73,1.69-2.73,3.45s.75,3.36,2.73,3.36a2.18,2.18,0,0,0,2.4-2.16h-2.23v-1.65h4.22v5.43h-1.4Z" fill="#10426b"/><path d="M286.18,102.22c0,1.33,1,1.86,2.22,1.86.77,0,2-.23,2-1.26s-1.51-1.27-3-1.66-3-1-3-2.86c0-2.06,1.94-3,3.75-3,2.1,0,4,.91,4,3.24H290c-.07-1.21-.93-1.52-2-1.52-.7,0-1.52.29-1.52,1.14s.48.87,3,1.52c.73.18,3,.65,3,2.93,0,1.84-1.45,3.22-4.17,3.22-2.23,0-4.31-1.09-4.28-3.57Z" fill="#10426b"/><path d="M298.35,105.55h-2V99.16h-2.48V97.65c1.4,0,2.68-.45,2.89-2h1.59Z" fill="#10426b"/><path d="M305.05,103.27h-4.17v-1.83l4.28-5.74H307v5.93h1.3v1.64H307v2.28h-1.9Zm0-5.07H305l-2.54,3.43h2.59Z" fill="#10426b"/><path d="M314,105.55h-2V99.16h-2.48V97.65c1.39,0,2.67-.45,2.88-2H314Z" fill="#10426b"/><path d="M316.82,99.48c-.07-2.25,1.21-4,3.58-4a3.13,3.13,0,0,1,3.37,3.08,3.45,3.45,0,0,1-1.76,3,10.72,10.72,0,0,0-2.84,2.27h4.66v1.71H316.6c0-2.28,1.4-3.25,3.11-4.4.87-.6,2.05-1.2,2.07-2.41a1.42,1.42,0,0,0-1.48-1.52c-1.18,0-1.56,1.22-1.56,2.26Z" fill="#10426b"/><path d="M256.67,262.83h2.27l3.75,10.06H260.4l-.76-2.24h-3.76l-.79,2.24h-2.23Zm-.21,6.17h2.6l-1.26-3.69h0Z" fill="#10426b"/><path d="M263.57,262.83h4.33c2.6,0,4.56,1.64,4.56,5,0,2.92-1.49,5.09-4.56,5.09h-4.33Zm2.2,8.2h2c1.28,0,2.51-.79,2.51-3,0-2-.71-3.32-2.9-3.32h-1.58Z" fill="#10426b"/><path d="M281.25,271.75a3.4,3.4,0,0,1-2.76,1.38c-3.11,0-4.93-2.33-4.93-5.23s1.82-5.31,4.93-5.31a4,4,0,0,1,4.24,3.55h-2.11a2.06,2.06,0,0,0-2.13-1.69c-2,0-2.73,1.69-2.73,3.45s.75,3.37,2.73,3.37a2.19,2.19,0,0,0,2.4-2.17h-2.23v-1.65h4.22v5.44h-1.4Z" fill="#10426b"/><path d="M286.18,269.55c0,1.34,1,1.86,2.22,1.86.77,0,2-.23,2-1.26s-1.51-1.26-3-1.66-3-1-3-2.86c0-2.05,1.94-3,3.75-3,2.1,0,4,.92,4,3.24H290c-.07-1.21-.93-1.52-2-1.52-.7,0-1.52.3-1.52,1.14s.48.87,3,1.52c.73.19,3,.65,3,2.93,0,1.85-1.45,3.23-4.17,3.23-2.23,0-4.31-1.1-4.28-3.58Z" fill="#10426b"/><path d="M298.35,272.89h-2v-6.4h-2.48V265c1.4,0,2.68-.45,2.89-2h1.59Z" fill="#10426b"/><path d="M305.05,270.61h-4.17v-1.83l4.28-5.75H307V269h1.3v1.65H307v2.28h-1.9Zm0-5.07H305L302.46,269h2.59Z" fill="#10426b"/><path d="M314,272.89h-2v-6.4h-2.48V265c1.39,0,2.67-.45,2.88-2H314Z" fill="#10426b"/><path d="M316.82,266.82c-.07-2.26,1.21-4,3.58-4a3.14,3.14,0,0,1,3.37,3.09,3.45,3.45,0,0,1-1.76,3,10.72,10.72,0,0,0-2.84,2.27h4.66v1.72H316.6c0-2.28,1.4-3.26,3.11-4.41.87-.59,2.05-1.2,2.07-2.41a1.42,1.42,0,0,0-1.48-1.52c-1.18,0-1.56,1.23-1.56,2.27Z" fill="#10426b"/><rect x="230.58" y="351.22" width="115.85" height="114.67" fill="#fbc694" stroke="#10426b" stroke-linecap="round" stroke-linejoin="round" stroke-width="1.5"/><path d="M302.31,390.9c0,1.33,1,1.85,2.22,1.85.78,0,2-.22,2-1.25s-1.51-1.27-3-1.66-3-1-3-2.86c0-2.06,1.94-3,3.75-3,2.1,0,4,.91,4,3.24h-2.14c-.07-1.21-.93-1.52-2-1.52-.71,0-1.52.29-1.52,1.14s.48.87,3,1.52c.74.18,3,.65,3,2.93,0,1.84-1.45,3.22-4.18,3.22-2.23,0-4.31-1.1-4.28-3.57Z" fill="#10426b"/><path d="M309.94,384.18h4.53c2.5,0,3.47,1.59,3.47,3.22s-1,3.23-3.47,3.23h-2.33v3.6h-2.2Zm2.2,4.73h1.72c1,0,1.94-.23,1.94-1.51s-.91-1.5-1.94-1.5h-1.72Z" fill="#10426b"/><path d="M319.32,384.18h2.21v10.05h-2.21Z" fill="#10426b"/><path d="M283.8,407.79c0,1.34,1,1.86,2.22,1.86.78,0,2-.23,2-1.25s-1.51-1.27-3-1.67-3-1-3-2.86c0-2.05,1.94-3,3.75-3,2.1,0,4,.92,4,3.24h-2.14c-.07-1.21-.93-1.52-2-1.52-.71,0-1.52.3-1.52,1.14s.48.87,3,1.52c.74.19,3,.65,3,2.93,0,1.85-1.45,3.23-4.18,3.23-2.23,0-4.31-1.1-4.28-3.58Z" fill="#10426b"/><path d="M298,411.13h-1.9v-1h0a2.59,2.59,0,0,1-2.23,1.21c-2.12,0-2.66-1.19-2.66-3v-4.47h2V408c0,1.2.35,1.79,1.28,1.79,1.09,0,1.55-.61,1.55-2.09v-3.81h2Z" fill="#10426b"/><path d="M299.56,401.07h2v3.66h0a2.72,2.72,0,0,1,2.3-1.08c1.45,0,3,1.17,3,3.83s-1.56,3.84-3,3.84a2.51,2.51,0,0,1-2.39-1.12h0v.93h-1.9Zm3.63,4.09c-1.18,0-1.7,1.11-1.7,2.33s.52,2.33,1.7,2.33,1.7-1.12,1.7-2.33S304.37,405.16,303.19,405.16Z" fill="#10426b"/><path d="M308.16,403.85h1.9v1h0a2.58,2.58,0,0,1,2.22-1.21c2.13,0,2.66,1.2,2.66,3v4.48h-2V407c0-1.2-.35-1.79-1.28-1.79s-1.55.6-1.55,2.08v3.82h-2Z" fill="#10426b"/><path d="M320,403.65a3.84,3.84,0,1,1-3.76,3.84A3.57,3.57,0,0,1,320,403.65Zm0,6.17c1.37,0,1.77-1.17,1.77-2.33s-.4-2.33-1.77-2.33-1.76,1.16-1.76,2.33S318.68,409.82,320,409.82Z" fill="#10426b"/><path d="M330.29,410.2h0a2.4,2.4,0,0,1-2.21,1.12c-2.19,0-3.26-1.88-3.26-3.9s1.08-3.77,3.22-3.77a2.51,2.51,0,0,1,2.15,1.08h0v-3.66h2v10.06h-1.9Zm-1.75-5c-1.3,0-1.75,1.12-1.75,2.32s.52,2.34,1.75,2.34,1.72-1.16,1.72-2.35S329.84,405.16,328.54,405.16Z" fill="#10426b"/><path d="M335.34,408c.06,1.27.68,1.85,1.79,1.85a1.64,1.64,0,0,0,1.57-.95h1.76a3.27,3.27,0,0,1-3.4,2.45,3.55,3.55,0,0,1-3.72-3.83,3.65,3.65,0,0,1,3.72-3.84c2.47,0,3.67,2.08,3.53,4.32Zm3.25-1.26c-.18-1-.62-1.55-1.59-1.55a1.57,1.57,0,0,0-1.66,1.55Z" fill="#10426b"/><path d="M237.74,416.58c0,1.34,1,1.86,2.22,1.86.78,0,2-.22,2-1.25s-1.51-1.27-3-1.66-3-1-3-2.86c0-2.06,1.94-3,3.76-3,2.09,0,4,.91,4,3.24h-2.14c-.07-1.22-.93-1.52-2-1.52-.71,0-1.52.29-1.52,1.14s.48.87,3,1.52c.73.18,3,.64,3,2.93,0,1.84-1.45,3.22-4.18,3.22-2.22,0-4.31-1.1-4.28-3.58Z" fill="#10426b"/><path d="M252.06,413.25a2.16,2.16,0,0,0-2.19-1.76c-2,0-2.73,1.69-2.73,3.45s.75,3.36,2.73,3.36a2.27,2.27,0,0,0,2.28-2.25h2.14a4.25,4.25,0,0,1-4.42,4.11c-3.11,0-4.94-2.32-4.94-5.22s1.83-5.31,4.94-5.31a4.07,4.07,0,0,1,4.33,3.62Z" fill="#10426b"/><path d="M255.79,409.87H258v8.19h4.9v1.86h-7.11Z" fill="#10426b"/><path d="M264.14,409.87h2.21V414l3.92-4.17H273l-3.93,4,4.31,6.08h-2.77l-3-4.52-1.26,1.28v3.24h-2.21Z" fill="#10426b"/><path d="M279.21,366.38c0,1.34,1.05,1.86,2.23,1.86.77,0,1.95-.23,1.95-1.26s-1.5-1.26-3-1.66-3-1-3-2.86c0-2,1.95-3,3.76-3,2.1,0,4,.92,4,3.24h-2.14c-.07-1.21-.92-1.52-2-1.52-.7,0-1.52.29-1.52,1.14s.48.87,3,1.52c.73.18,3,.65,3,2.93,0,1.84-1.45,3.22-4.18,3.22-2.22,0-4.3-1.09-4.27-3.57Z" fill="#10426b"/><path d="M286.84,359.66h4.33c2.61,0,4.56,1.63,4.56,5,0,2.92-1.49,5.09-4.56,5.09h-4.33Zm2.21,8.2h2c1.28,0,2.5-.79,2.5-3,0-2-.7-3.32-2.89-3.32h-1.58Z" fill="#10426b"/><path d="M297.27,359.66h2.21v10.06h-2.21Z" fill="#10426b"/><path d="M275.73,456.57c0,1.34,1,1.86,2.22,1.86.77,0,2-.22,2-1.25s-1.51-1.27-3-1.66-3-1-3-2.86c0-2.06,1.94-3,3.75-3,2.1,0,4,.91,4,3.24h-2.14c-.07-1.22-.93-1.53-2-1.53-.7,0-1.52.3-1.52,1.14s.48.88,3,1.53c.73.18,3,.64,3,2.93,0,1.84-1.45,3.22-4.17,3.22-2.23,0-4.31-1.1-4.28-3.58Z" fill="#10426b"/><path d="M283.35,449.86h4.34c2.6,0,4.56,1.63,4.56,5,0,2.91-1.5,5.08-4.56,5.08h-4.34Zm2.21,8.19h2c1.28,0,2.51-.79,2.51-3,0-2-.71-3.33-2.9-3.33h-1.58Z" fill="#10426b"/><path d="M298.28,449.62c3.11,0,4.94,2.32,4.94,5.31s-1.83,5.22-4.94,5.22-4.94-2.32-4.94-5.22S295.17,449.62,298.28,449.62Zm0,8.67c2,0,2.73-1.69,2.73-3.36s-.74-3.46-2.73-3.46-2.73,1.69-2.73,3.46S296.3,458.29,298.28,458.29Z" fill="#10426b"/><path d="M256.67,431h2.27l3.75,10.06H260.4l-.76-2.24h-3.76l-.79,2.24h-2.23Zm-.21,6.17h2.6l-1.26-3.69h0Z" fill="#10426b"/><path d="M263.57,431h4.33c2.6,0,4.56,1.64,4.56,5,0,2.91-1.49,5.08-4.56,5.08h-4.33Zm2.2,8.2h2c1.28,0,2.51-.79,2.51-3,0-2-.71-3.33-2.9-3.33h-1.58Z" fill="#10426b"/><path d="M281.25,439.91a3.4,3.4,0,0,1-2.76,1.38c-3.11,0-4.93-2.32-4.93-5.23s1.82-5.31,4.93-5.31a4,4,0,0,1,4.24,3.55h-2.11a2.06,2.06,0,0,0-2.13-1.69c-2,0-2.73,1.69-2.73,3.45s.75,3.37,2.73,3.37a2.19,2.19,0,0,0,2.4-2.17h-2.23v-1.65h4.22v5.44h-1.4Z" fill="#10426b"/><path d="M286.18,437.71c0,1.34,1,1.86,2.22,1.86.77,0,2-.22,2-1.25s-1.51-1.27-3-1.67-3-1-3-2.85c0-2.06,1.94-3.05,3.75-3.05,2.1,0,4,.92,4,3.24H290c-.07-1.21-.93-1.52-2-1.52-.7,0-1.52.3-1.52,1.14s.48.88,3,1.52c.73.19,3,.65,3,2.93,0,1.85-1.45,3.23-4.17,3.23-2.23,0-4.31-1.1-4.28-3.58Z" fill="#10426b"/><path d="M298.35,441.05h-2v-6.4h-2.48v-1.5c1.4,0,2.68-.45,2.89-2h1.59Z" fill="#10426b"/><path d="M305.05,438.77h-4.17v-1.83l4.28-5.75H307v5.93h1.3v1.65H307v2.28h-1.9Zm0-5.07H305l-2.54,3.42h2.59Z" fill="#10426b"/><path d="M314,441.05h-2v-6.4h-2.48v-1.5c1.39,0,2.67-.45,2.88-2H314Z" fill="#10426b"/><path d="M316.82,435c-.07-2.25,1.21-4,3.58-4a3.14,3.14,0,0,1,3.37,3.09,3.43,3.43,0,0,1-1.76,3,10.93,10.93,0,0,0-2.84,2.27h4.66v1.72H316.6c0-2.28,1.4-3.25,3.11-4.41.87-.59,2.05-1.2,2.07-2.41a1.42,1.42,0,0,0-1.48-1.52c-1.18,0-1.56,1.23-1.56,2.27Z" fill="#10426b"/><polygon points="284.92 505.53 288.54 519.02 292.16 505.53 284.92 505.53" fill="#10426b"/><line x1="288.54" y1="509.1" x2="288.54" y2="465.89" fill="none" stroke="#10426b" stroke-miterlimit="10" stroke-width="1.5"/><rect x="230.58" y="519.02" width="115.85" height="114.67" fill="#fbc694" stroke="#10426b" stroke-linecap="round" stroke-linejoin="round" stroke-width="1.5"/><path d="M302.31,558.69c0,1.34,1,1.86,2.22,1.86.78,0,2-.22,2-1.25s-1.51-1.27-3-1.66-3-1-3-2.86c0-2.06,1.94-3,3.75-3,2.1,0,4,.91,4,3.23h-2.14c-.07-1.21-.93-1.52-2-1.52-.71,0-1.52.3-1.52,1.14s.48.88,3,1.52c.74.19,3,.65,3,2.93,0,1.85-1.45,3.23-4.18,3.23-2.23,0-4.31-1.1-4.28-3.58Z" fill="#10426b"/><path d="M309.94,552h4.53a3.11,3.11,0,0,1,3.47,3.23c0,1.63-1,3.22-3.47,3.22h-2.33V562h-2.2Zm2.2,4.74h1.72c1,0,1.94-.23,1.94-1.51s-.91-1.51-1.94-1.51h-1.72Z" fill="#10426b"/><path d="M319.32,552h2.21V562h-2.21Z" fill="#10426b"/><path d="M283.8,575.59c0,1.33,1,1.86,2.22,1.86.78,0,2-.23,2-1.26s-1.51-1.27-3-1.66-3-1-3-2.86c0-2.06,1.94-3,3.75-3,2.1,0,4,.91,4,3.24h-2.14c-.07-1.21-.93-1.52-2-1.52-.71,0-1.52.29-1.52,1.14s.48.87,3,1.52c.74.18,3,.65,3,2.93,0,1.84-1.45,3.22-4.18,3.22-2.23,0-4.31-1.09-4.28-3.57Z" fill="#10426b"/><path d="M298,578.92h-1.9v-1h0a2.59,2.59,0,0,1-2.23,1.21c-2.12,0-2.66-1.2-2.66-3v-4.48h2v4.12c0,1.19.35,1.78,1.28,1.78,1.09,0,1.55-.6,1.55-2.08v-3.82h2Z" fill="#10426b"/><path d="M299.56,568.87h2v3.66h0a2.69,2.69,0,0,1,2.3-1.08c1.45,0,3,1.16,3,3.83s-1.56,3.84-3,3.84a2.5,2.5,0,0,1-2.39-1.13h0v.93h-1.9Zm3.63,4.08c-1.18,0-1.7,1.12-1.7,2.34s.52,2.32,1.7,2.32,1.7-1.11,1.7-2.32S304.37,573,303.19,573Z" fill="#10426b"/><path d="M308.16,571.64h1.9v1h0a2.58,2.58,0,0,1,2.22-1.21c2.13,0,2.66,1.19,2.66,3v4.47h-2v-4.11c0-1.2-.35-1.79-1.28-1.79s-1.55.61-1.55,2.09v3.81h-2Z" fill="#10426b"/><path d="M320,571.45a3.84,3.84,0,1,1-3.76,3.84A3.57,3.57,0,0,1,320,571.45Zm0,6.16c1.37,0,1.77-1.16,1.77-2.32S321.4,573,320,573s-1.76,1.17-1.76,2.34S318.68,577.61,320,577.61Z" fill="#10426b"/><path d="M330.29,578h0a2.41,2.41,0,0,1-2.21,1.13c-2.19,0-3.26-1.89-3.26-3.9s1.08-3.77,3.22-3.77a2.49,2.49,0,0,1,2.15,1.08h0v-3.66h2v10h-1.9Zm-1.75-5c-1.3,0-1.75,1.13-1.75,2.33s.52,2.33,1.75,2.33,1.72-1.15,1.72-2.35S329.84,573,328.54,573Z" fill="#10426b"/><path d="M335.34,575.77c.06,1.27.68,1.84,1.79,1.84a1.63,1.63,0,0,0,1.57-.94h1.76a3.27,3.27,0,0,1-3.4,2.45,3.56,3.56,0,0,1-3.72-3.83,3.65,3.65,0,0,1,3.72-3.84c2.47,0,3.67,2.08,3.53,4.32Zm3.25-1.27c-.18-1-.62-1.55-1.59-1.55a1.58,1.58,0,0,0-1.66,1.55Z" fill="#10426b"/><path d="M237.74,584.38c0,1.34,1,1.86,2.22,1.86.78,0,2-.22,2-1.25s-1.51-1.27-3-1.67-3-1-3-2.85c0-2.06,1.94-3.05,3.76-3.05,2.09,0,4,.92,4,3.24h-2.14c-.07-1.21-.93-1.52-2-1.52-.71,0-1.52.3-1.52,1.14s.48.88,3,1.52c.73.19,3,.65,3,2.93,0,1.85-1.45,3.23-4.18,3.23-2.22,0-4.31-1.1-4.28-3.58Z" fill="#10426b"/><path d="M252.06,581a2.16,2.16,0,0,0-2.19-1.76c-2,0-2.73,1.69-2.73,3.45s.75,3.37,2.73,3.37a2.27,2.27,0,0,0,2.28-2.25h2.14a4.25,4.25,0,0,1-4.42,4.11c-3.11,0-4.94-2.32-4.94-5.23s1.83-5.31,4.94-5.31A4.08,4.08,0,0,1,254.2,581Z" fill="#10426b"/><path d="M255.79,577.66H258v8.2h4.9v1.86h-7.11Z" fill="#10426b"/><path d="M264.14,577.66h2.21v4.17l3.92-4.17H273l-3.93,4,4.31,6.08h-2.77l-3-4.52-1.26,1.28v3.24h-2.21Z" fill="#10426b"/><path d="M279.21,534.18c0,1.33,1.05,1.85,2.23,1.85.77,0,1.95-.22,1.95-1.25s-1.5-1.27-3-1.66-3-1-3-2.86c0-2.06,1.95-3,3.76-3,2.1,0,4,.91,4,3.24h-2.14c-.07-1.21-.92-1.52-2-1.52-.7,0-1.52.29-1.52,1.14s.48.87,3,1.52c.73.18,3,.65,3,2.93,0,1.84-1.45,3.22-4.18,3.22-2.22,0-4.3-1.1-4.27-3.57Z" fill="#10426b"/><path d="M286.84,527.46h4.33c2.61,0,4.56,1.63,4.56,5,0,2.91-1.49,5.08-4.56,5.08h-4.33Zm2.21,8.19h2c1.28,0,2.5-.78,2.5-3,0-2-.7-3.32-2.89-3.32h-1.58Z" fill="#10426b"/><path d="M297.27,527.46h2.21v10h-2.21Z" fill="#10426b"/><path d="M239.73,624.37c0,1.34,1,1.86,2.22,1.86.77,0,2-.23,2-1.25s-1.51-1.27-3-1.67-3-1-3-2.86c0-2.05,1.94-3,3.75-3,2.1,0,4,.92,4,3.24h-2.14c-.07-1.21-.93-1.52-2-1.52-.7,0-1.52.3-1.52,1.14s.48.87,3,1.52c.73.19,3,.65,3,2.93,0,1.85-1.45,3.23-4.17,3.23-2.23,0-4.31-1.1-4.28-3.58Z" fill="#10426b"/><path d="M247.35,617.65h4.34c2.6,0,4.56,1.64,4.56,5,0,2.92-1.5,5.09-4.56,5.09h-4.34Zm2.21,8.2h2c1.28,0,2.51-.79,2.51-3,0-2-.71-3.32-2.9-3.32h-1.58Z" fill="#10426b"/><path d="M262.28,617.41c3.11,0,4.94,2.33,4.94,5.31s-1.83,5.23-4.94,5.23-4.94-2.33-4.94-5.23S259.17,617.41,262.28,617.41Zm0,8.68c2,0,2.73-1.69,2.73-3.37s-.74-3.45-2.73-3.45-2.73,1.69-2.73,3.45S260.3,626.09,262.28,626.09Z" fill="#10426b"/><path d="M256.67,598.79h2.27l3.75,10.06H260.4l-.76-2.24h-3.76l-.79,2.24h-2.23Zm-.21,6.17h2.6l-1.26-3.69h0Z" fill="#10426b"/><path d="M263.57,598.79h4.33c2.6,0,4.56,1.64,4.56,5,0,2.92-1.49,5.09-4.56,5.09h-4.33Zm2.2,8.2h2c1.28,0,2.51-.79,2.51-3,0-2-.71-3.32-2.9-3.32h-1.58Z" fill="#10426b"/><path d="M281.25,607.71a3.4,3.4,0,0,1-2.76,1.38c-3.11,0-4.93-2.33-4.93-5.23s1.82-5.31,4.93-5.31a4,4,0,0,1,4.24,3.55h-2.11a2.06,2.06,0,0,0-2.13-1.69c-2,0-2.73,1.69-2.73,3.45s.75,3.37,2.73,3.37a2.19,2.19,0,0,0,2.4-2.17h-2.23v-1.65h4.22v5.44h-1.4Z" fill="#10426b"/><path d="M286.18,605.51c0,1.34,1,1.86,2.22,1.86.77,0,2-.23,2-1.26s-1.51-1.26-3-1.66-3-1-3-2.86c0-2.05,1.94-3,3.75-3,2.1,0,4,.92,4,3.24H290c-.07-1.21-.93-1.52-2-1.52-.7,0-1.52.3-1.52,1.14s.48.87,3,1.52c.73.18,3,.65,3,2.93,0,1.85-1.45,3.23-4.17,3.23-2.23,0-4.31-1.1-4.28-3.58Z" fill="#10426b"/><path d="M298.35,608.85h-2v-6.4h-2.48V601c1.4,0,2.68-.45,2.89-2h1.59Z" fill="#10426b"/><path d="M305.05,606.57h-4.17v-1.83l4.28-5.75H307v5.93h1.3v1.65H307v2.28h-1.9Zm0-5.07H305l-2.54,3.42h2.59Z" fill="#10426b"/><path d="M314,608.85h-2v-6.4h-2.48V601c1.39,0,2.67-.45,2.88-2H314Z" fill="#10426b"/><path d="M316.82,602.78c-.07-2.26,1.21-4,3.58-4a3.14,3.14,0,0,1,3.37,3.09,3.45,3.45,0,0,1-1.76,3,10.72,10.72,0,0,0-2.84,2.27h4.66v1.72H316.6c0-2.28,1.4-3.26,3.11-4.41.87-.59,2.05-1.2,2.07-2.41a1.42,1.42,0,0,0-1.48-1.52c-1.18,0-1.56,1.23-1.56,2.27Z" fill="#10426b"/><polyline points="173.61 416.3 173.61 583.05 224.98 583.05" fill="none" stroke="#10426b" stroke-miterlimit="10" stroke-width="1.5"/><polyline points="202.34 382.85 202.34 548.05 224.98 548.05" fill="none" stroke="#10426b" stroke-miterlimit="10" stroke-width="1.5"/><path d="M99.55,28.92a2.16,2.16,0,0,0-2.19-1.76c-2,0-2.73,1.69-2.73,3.45S95.38,34,97.36,34a2.27,2.27,0,0,0,2.28-2.25h2.14a4.25,4.25,0,0,1-4.42,4.11c-3.11,0-4.94-2.32-4.94-5.23s1.83-5.31,4.94-5.31a4.08,4.08,0,0,1,4.33,3.62Z" fill="#10426b"/><path d="M104.79,32.26c0,1.34,1,1.86,2.22,1.86.78,0,2-.22,2-1.25s-1.51-1.27-3-1.66-3-1-3-2.86c0-2.06,1.94-3.05,3.75-3.05,2.1,0,4,.92,4,3.24h-2.14c-.07-1.21-.93-1.52-2-1.52-.71,0-1.52.3-1.52,1.14s.47.88,3,1.53c.73.18,3,.64,3,2.92,0,1.85-1.45,3.23-4.18,3.23-2.23,0-4.31-1.1-4.28-3.58Z" fill="#10426b"/><line x1="93.01" y1="23.52" x2="111" y2="23.52" fill="none" stroke="#10426b" stroke-miterlimit="10"/><path d="M242.93,29a2.17,2.17,0,0,0-2.19-1.76c-2,0-2.73,1.69-2.73,3.45s.74,3.37,2.73,3.37A2.27,2.27,0,0,0,243,31.76h2.14a4.25,4.25,0,0,1-4.42,4.12c-3.11,0-4.94-2.33-4.94-5.23s1.83-5.31,4.94-5.31A4.08,4.08,0,0,1,245.07,29Z" fill="#10426b"/><path d="M248.17,32.3c0,1.34,1,1.86,2.22,1.86.77,0,2-.23,2-1.26s-1.51-1.26-3-1.66-3-1-3-2.86c0-2.05,1.94-3,3.75-3,2.1,0,4,.92,4,3.24H252c-.07-1.21-.93-1.52-2-1.52-.7,0-1.52.3-1.52,1.14s.48.87,3,1.52c.73.19,3,.65,3,2.93,0,1.85-1.44,3.23-4.17,3.23-2.23,0-4.31-1.1-4.28-3.58Z" fill="#10426b"/><line x1="236.39" y1="23.56" x2="254.38" y2="23.56" fill="none" stroke="#10426b" stroke-miterlimit="10"/><path d="M242.93,210.91a2.17,2.17,0,0,0-2.19-1.76c-2,0-2.73,1.69-2.73,3.45s.74,3.36,2.73,3.36a2.27,2.27,0,0,0,2.28-2.25h2.14a4.25,4.25,0,0,1-4.42,4.11c-3.11,0-4.94-2.32-4.94-5.22s1.83-5.31,4.94-5.31a4.07,4.07,0,0,1,4.33,3.62Z" fill="#10426b"/><path d="M248.17,214.25c0,1.33,1,1.85,2.22,1.85.77,0,2-.22,2-1.25s-1.51-1.27-3-1.66-3-1-3-2.86c0-2.06,1.94-3,3.75-3,2.1,0,4,.91,4,3.24H252c-.07-1.21-.93-1.52-2-1.52-.7,0-1.52.29-1.52,1.14s.48.87,3,1.52c.73.18,3,.65,3,2.93,0,1.84-1.44,3.22-4.17,3.22-2.23,0-4.31-1.1-4.28-3.57Z" fill="#10426b"/><line x1="236.39" y1="205.51" x2="254.38" y2="205.51" fill="none" stroke="#10426b" stroke-miterlimit="10"/><path d="M242.93,379.44a2.17,2.17,0,0,0-2.19-1.76c-2,0-2.73,1.69-2.73,3.45s.74,3.36,2.73,3.36a2.27,2.27,0,0,0,2.28-2.25h2.14a4.25,4.25,0,0,1-4.42,4.11c-3.11,0-4.94-2.32-4.94-5.22s1.83-5.31,4.94-5.31a4.07,4.07,0,0,1,4.33,3.62Z" fill="#10426b"/><path d="M248.17,382.77c0,1.34,1,1.86,2.22,1.86.77,0,2-.22,2-1.25s-1.51-1.27-3-1.66-3-1-3-2.86c0-2.06,1.94-3,3.75-3,2.1,0,4,.91,4,3.24H252c-.07-1.22-.93-1.53-2-1.53-.7,0-1.52.3-1.52,1.15s.48.87,3,1.52c.73.18,3,.64,3,2.93,0,1.84-1.44,3.22-4.17,3.22-2.23,0-4.31-1.1-4.28-3.58Z" fill="#10426b"/><line x1="236.39" y1="374.04" x2="254.38" y2="374.04" fill="none" stroke="#10426b" stroke-miterlimit="10"/><path d="M242.93,547.24a2.17,2.17,0,0,0-2.19-1.76c-2,0-2.73,1.69-2.73,3.45s.74,3.36,2.73,3.36A2.26,2.26,0,0,0,243,550h2.14a4.25,4.25,0,0,1-4.42,4.11c-3.11,0-4.94-2.32-4.94-5.22s1.83-5.31,4.94-5.31a4.07,4.07,0,0,1,4.33,3.62Z" fill="#10426b"/><path d="M248.17,550.58c0,1.33,1,1.86,2.22,1.86.77,0,2-.23,2-1.26s-1.51-1.27-3-1.66-3-1-3-2.86c0-2,1.94-3,3.75-3,2.1,0,4,.91,4,3.24H252c-.07-1.21-.93-1.52-2-1.52-.7,0-1.52.29-1.52,1.14s.48.87,3,1.52c.73.18,3,.65,3,2.93,0,1.84-1.44,3.22-4.17,3.22-2.23,0-4.31-1.09-4.28-3.57Z" fill="#10426b"/><line x1="236.39" y1="541.84" x2="254.38" y2="541.84" fill="none" stroke="#10426b" stroke-miterlimit="10"/></svg>