<svg id="ac721817-3ecb-4071-a894-86facf2185fd" data-name="Layer 1" xmlns="http://www.w3.org/2000/svg" width="12.04in" height="4.59in" viewBox="0 0 866.95 330.64"><rect x="0.75" y="0.75" width="118.83" height="188.63" fill="#b7e6ef" stroke="#10426b" stroke-linecap="round" stroke-linejoin="round" stroke-width="1.5"/><rect x="308.96" y="189.38" width="105.24" height="140.51" fill="#fbc694" stroke="#10426b" stroke-linecap="round" stroke-linejoin="round" stroke-width="1.5"/><path d="M352.72,298.8c0,1.34,1,1.86,2.22,1.86.78,0,2-.23,2-1.26s-1.51-1.26-3-1.66-3-1-3-2.86c0-2.05,1.94-3,3.76-3,2.09,0,4,.92,4,3.24h-2.14c-.07-1.21-.93-1.52-2-1.52-.71,0-1.52.3-1.52,1.14s.48.87,3,1.52c.74.18,3,.65,3,2.93,0,1.85-1.45,3.23-4.18,3.23-2.22,0-4.31-1.1-4.28-3.58Z" fill="#10426b"/><path d="M360.35,292.08h4.53c2.5,0,3.47,1.59,3.47,3.23s-1,3.22-3.47,3.22h-2.32v3.61h-2.21Zm2.21,4.73h1.71c1,0,1.94-.22,1.94-1.5s-.91-1.51-1.94-1.51h-1.71Z" fill="#10426b"/><path d="M369.73,292.08h2.21v10.06h-2.21Z" fill="#10426b"/><path d="M334.21,315.69c0,1.34,1,1.86,2.22,1.86.78,0,2-.22,2-1.25s-1.51-1.27-3-1.66-3-1-3-2.86c0-2.06,1.94-3,3.76-3,2.09,0,4,.91,4,3.24h-2.14c-.07-1.22-.93-1.53-2-1.53-.71,0-1.52.3-1.52,1.14s.48.88,3,1.53c.74.18,3,.64,3,2.93,0,1.84-1.45,3.22-4.18,3.22-2.22,0-4.31-1.1-4.28-3.58Z" fill="#10426b"/><path d="M348.45,319h-1.9v-1h0a2.62,2.62,0,0,1-2.23,1.21c-2.12,0-2.65-1.2-2.65-3v-4.48h2v4.11c0,1.2.36,1.79,1.28,1.79,1.09,0,1.55-.6,1.55-2.08v-3.82h2Z" fill="#10426b"/><path d="M350,309h2v3.66h0a2.67,2.67,0,0,1,2.29-1.09c1.45,0,3,1.17,3,3.83s-1.56,3.85-3,3.85a2.52,2.52,0,0,1-2.39-1.13h0V319H350Zm3.63,4.08c-1.18,0-1.7,1.11-1.7,2.34s.52,2.32,1.7,2.32,1.7-1.11,1.7-2.32S354.78,313.06,353.6,313.06Z" fill="#10426b"/><path d="M358.57,311.75h1.9v1h0a2.6,2.6,0,0,1,2.22-1.21c2.13,0,2.66,1.2,2.66,3V319h-2v-4.11c0-1.2-.35-1.79-1.28-1.79-1.08,0-1.55.61-1.55,2.08V319h-2Z" fill="#10426b"/><path d="M370.44,311.55a3.84,3.84,0,1,1-3.75,3.85A3.58,3.58,0,0,1,370.44,311.55Zm0,6.17c1.37,0,1.77-1.17,1.77-2.32s-.4-2.34-1.77-2.34-1.76,1.17-1.76,2.34S369.09,317.72,370.44,317.72Z" fill="#10426b"/><path d="M380.7,318.1h0a2.41,2.41,0,0,1-2.21,1.13c-2.19,0-3.26-1.89-3.26-3.9s1.08-3.78,3.22-3.78a2.5,2.5,0,0,1,2.15,1.09h0V309h2v10h-1.9Zm-1.75-5c-1.3,0-1.75,1.13-1.75,2.32s.52,2.34,1.75,2.34,1.72-1.15,1.72-2.35S380.25,313.06,379,313.06Z" fill="#10426b"/><path d="M385.75,315.88c.06,1.26.68,1.84,1.79,1.84a1.63,1.63,0,0,0,1.57-.94h1.76a3.27,3.27,0,0,1-3.4,2.45,3.56,3.56,0,0,1-3.72-3.83,3.65,3.65,0,0,1,3.72-3.85c2.47,0,3.67,2.09,3.53,4.33Zm3.25-1.27c-.18-1-.62-1.55-1.59-1.55a1.58,1.58,0,0,0-1.66,1.55Z" fill="#10426b"/><path d="M334.27,246h2.27L340.29,256H338l-.76-2.24h-3.76L332.7,256h-2.24Zm-.21,6.17h2.6l-1.26-3.69h0Z" fill="#10426b"/><path d="M341.17,246h4.33c2.6,0,4.56,1.64,4.56,5,0,2.92-1.49,5.09-4.56,5.09h-4.33Zm2.21,8.2h2c1.28,0,2.5-.79,2.5-3,0-2-.7-3.32-2.9-3.32h-1.57Z" fill="#10426b"/><path d="M358.85,254.88a3.38,3.38,0,0,1-2.75,1.38c-3.11,0-4.94-2.33-4.94-5.23s1.83-5.31,4.94-5.31a4,4,0,0,1,4.23,3.55h-2.11a2.06,2.06,0,0,0-2.12-1.69c-2,0-2.73,1.69-2.73,3.45s.74,3.37,2.73,3.37a2.18,2.18,0,0,0,2.39-2.17h-2.22v-1.65h4.22V256h-1.41Z" fill="#10426b"/><path d="M366.82,256h-2v-6.4h-2.48v-1.5c1.4,0,2.68-.45,2.89-2h1.59Z" fill="#10426b"/><path d="M373.52,253.74h-4.17v-1.83l4.28-5.75h1.79v5.93h1.3v1.65h-1.3V256h-1.9Zm0-5.07h0l-2.54,3.42h2.59Z" fill="#10426b"/><path d="M382.46,256h-2v-6.4H378v-1.5c1.39,0,2.67-.45,2.89-2h1.58Z" fill="#10426b"/><path d="M385.29,250c-.07-2.26,1.21-4,3.58-4a3.14,3.14,0,0,1,3.37,3.09,3.46,3.46,0,0,1-1.75,3,11,11,0,0,0-2.85,2.27h4.66V256h-7.23c0-2.28,1.41-3.26,3.11-4.41.87-.59,2.05-1.2,2.07-2.41a1.42,1.42,0,0,0-1.48-1.52c-1.18,0-1.56,1.23-1.56,2.27Z" fill="#10426b"/><path d="M101.69,70a2.17,2.17,0,0,0-2.2-1.76c-2,0-2.73,1.69-2.73,3.45S97.51,75,99.49,75a2.27,2.27,0,0,0,2.28-2.25h2.14a4.25,4.25,0,0,1-4.42,4.11c-3.11,0-4.94-2.32-4.94-5.23s1.83-5.31,4.94-5.31A4.09,4.09,0,0,1,103.83,70Z" fill="#10426b"/><path d="M106.92,73.3c0,1.34,1,1.86,2.23,1.86.77,0,1.95-.22,1.95-1.25s-1.5-1.27-3-1.66-3-1-3-2.86c0-2.06,1.94-3,3.76-3,2.09,0,4,.92,4,3.24h-2.14c-.07-1.21-.93-1.52-2-1.52-.7,0-1.52.3-1.52,1.14s.48.88,3,1.53c.73.18,3,.64,3,2.92,0,1.85-1.45,3.23-4.18,3.23-2.22,0-4.3-1.1-4.28-3.58Z" fill="#10426b"/><path d="M92.32,85.21a2.17,2.17,0,0,0-2.2-1.76c-2,0-2.73,1.69-2.73,3.45s.75,3.37,2.73,3.37A2.27,2.27,0,0,0,92.4,88h2.14a4.25,4.25,0,0,1-4.42,4.11c-3.11,0-4.94-2.32-4.94-5.23s1.83-5.31,4.94-5.31a4.07,4.07,0,0,1,4.33,3.62Z" fill="#10426b"/><path d="M96.05,81.83h2.2V90h4.9v1.86h-7.1Z" fill="#10426b"/><path d="M104.39,81.83h2.21V86l3.92-4.17h2.76l-3.92,4,4.3,6.08h-2.77l-3-4.52-1.26,1.28v3.24h-2.21Z" fill="#10426b"/><path d="M77.56,97.08h3.11L83,104h0l2.23-6.92h3.11v10.06H86.31V100h0l-2.46,7.13H82.11l-2.46-7.06h0v7.06H77.56Z" fill="#10426b"/><path d="M94.82,96.84c3.11,0,4.94,2.33,4.94,5.31s-1.83,5.23-4.94,5.23-4.94-2.32-4.94-5.23S91.71,96.84,94.82,96.84Zm0,8.68c2,0,2.73-1.69,2.73-3.37s-.75-3.45-2.73-3.45-2.73,1.69-2.73,3.45S92.84,105.52,94.82,105.52Z" fill="#10426b"/><path d="M102.77,103.8c0,1.34,1,1.86,2.22,1.86.78,0,2-.22,2-1.25s-1.51-1.27-3-1.66-3-1-3-2.86c0-2.06,1.94-3,3.76-3,2.09,0,4,.92,4,3.24h-2.14c-.07-1.21-.93-1.52-2-1.52-.7,0-1.52.3-1.52,1.14s.48.88,3,1.53c.73.18,3,.64,3,2.92,0,1.85-1.45,3.23-4.18,3.23-2.22,0-4.31-1.1-4.28-3.58Z" fill="#10426b"/><path d="M110.4,97.08h2.21v10.06H110.4Z" fill="#10426b"/><path d="M77.56,112.33h3.11L83,119.25h0l2.23-6.92h3.11v10.06H86.31v-7.13h0l-2.46,7.13H82.11l-2.46-7.06h0v7.06H77.56Z" fill="#10426b"/><path d="M90.32,112.33h2.21v10.06H90.32Z" fill="#10426b"/><path d="M96,119.05c0,1.34,1,1.86,2.22,1.86.77,0,2-.22,2-1.25s-1.5-1.27-3-1.66-3-1-3-2.86c0-2.06,2-3,3.76-3,2.1,0,4,.92,4,3.24H99.82c-.07-1.21-.93-1.52-2-1.52-.7,0-1.52.3-1.52,1.14s.48.88,3,1.53c.73.18,3,.64,3,2.92,0,1.85-1.45,3.23-4.18,3.23-2.22,0-4.3-1.1-4.27-3.58Z" fill="#10426b"/><path d="M108.1,112.09c3.11,0,4.94,2.33,4.94,5.31s-1.83,5.23-4.94,5.23-4.93-2.32-4.93-5.23S105,112.09,108.1,112.09Zm0,8.68c2,0,2.73-1.69,2.73-3.37s-.74-3.45-2.73-3.45-2.73,1.69-2.73,3.45S106.12,120.77,108.1,120.77Z" fill="#10426b"/><path d="M39,15.37h3.1l2.35,6.92h0l2.22-6.92h3.11V25.43H47.76V18.3h0l-2.46,7.13H43.56L41.1,18.37h0v7.06H39Z" fill="#10426b"/><path d="M53.61,17h-2V15.37h2Zm-2,1.13h2v7.28h-2Z" fill="#10426b"/><path d="M60.14,20.71a1.37,1.37,0,0,0-1.48-1.26c-1.28,0-1.7,1.3-1.7,2.37s.41,2.3,1.66,2.3a1.55,1.55,0,0,0,1.59-1.48h1.93a3.25,3.25,0,0,1-3.51,3A3.53,3.53,0,0,1,55,21.89C55,19.62,56.31,18,58.68,18c1.71,0,3.29.9,3.41,2.76Z" fill="#10426b"/><path d="M63.26,18.15h1.9V19.5h0A2.57,2.57,0,0,1,67.51,18,1.62,1.62,0,0,1,68,18v1.86a3.82,3.82,0,0,0-.72-.07c-1.46,0-2,1.05-2,2.33v3.29h-2Z" fill="#10426b"/><path d="M72.27,18A3.57,3.57,0,0,1,76,21.79a3.77,3.77,0,1,1-7.53,0A3.57,3.57,0,0,1,72.27,18Zm0,6.17C73.63,24.12,74,23,74,21.79s-.41-2.34-1.77-2.34-1.76,1.17-1.76,2.34S70.92,24.12,72.27,24.12Z" fill="#10426b"/><path d="M77.32,20.72h4.24v1.72H77.32Z" fill="#10426b"/><path d="M33.45,37.6A1.35,1.35,0,0,0,32,36.35c-1.28,0-1.71,1.29-1.71,2.36s.41,2.3,1.66,2.3a1.53,1.53,0,0,0,1.59-1.48h1.93a3.25,3.25,0,0,1-3.5,3,3.53,3.53,0,0,1-3.67-3.73c0-2.27,1.35-3.95,3.71-3.95,1.72,0,3.29.9,3.42,2.76Z" fill="#10426b"/><path d="M40.11,34.84a3.58,3.58,0,0,1,3.77,3.85,3.57,3.57,0,0,1-3.77,3.83,3.57,3.57,0,0,1-3.76-3.83A3.57,3.57,0,0,1,40.11,34.84Zm0,6.17c1.36,0,1.77-1.17,1.77-2.32s-.41-2.34-1.77-2.34-1.76,1.17-1.76,2.34S38.76,41,40.11,41Z" fill="#10426b"/><path d="M45.18,35h1.9v1h0a2.6,2.6,0,0,1,2.22-1.21c2.12,0,2.66,1.2,2.66,3v4.48H50V38.21c0-1.2-.35-1.79-1.28-1.79s-1.55.6-1.55,2.08v3.82h-2Z" fill="#10426b"/><path d="M56.05,35h1.47v1.34H56.05V40c0,.68.17.85.85.85a3.34,3.34,0,0,0,.62-.06v1.56a7.29,7.29,0,0,1-1.17.07c-1.23,0-2.3-.28-2.3-1.73V36.38H52.84V35h1.21V32.86h2Z" fill="#10426b"/><path d="M58.47,35h1.9v1.35h0a2.59,2.59,0,0,1,2.32-1.55,1.62,1.62,0,0,1,.44.07v1.86a3.91,3.91,0,0,0-.72-.07c-1.46,0-2,1.06-2,2.34v3.28h-2Z" fill="#10426b"/><path d="M67.48,34.84a3.58,3.58,0,0,1,3.77,3.85,3.77,3.77,0,1,1-7.53,0A3.57,3.57,0,0,1,67.48,34.84Zm0,6.17c1.36,0,1.77-1.17,1.77-2.32s-.41-2.34-1.77-2.34-1.76,1.17-1.76,2.34S66.13,41,67.48,41Z" fill="#10426b"/><path d="M72.6,32.26h2V42.32h-2Z" fill="#10426b"/><path d="M76.23,32.26h2V42.32h-2Z" fill="#10426b"/><path d="M81.45,39.17c.06,1.26.68,1.84,1.79,1.84a1.63,1.63,0,0,0,1.57-.94h1.76a3.27,3.27,0,0,1-3.4,2.45,3.56,3.56,0,0,1-3.72-3.83,3.65,3.65,0,0,1,3.72-3.85c2.47,0,3.67,2.09,3.53,4.33ZM84.7,37.9c-.18-1-.62-1.55-1.59-1.55a1.57,1.57,0,0,0-1.66,1.55Z" fill="#10426b"/><path d="M87.88,35h1.9v1.35h0a2.57,2.57,0,0,1,2.32-1.55,1.49,1.49,0,0,1,.43.07v1.86a3.71,3.71,0,0,0-.71-.07c-1.47,0-2,1.06-2,2.34v3.28h-2Z" fill="#10426b"/><path d="M33,176.44c0,1.34,1,1.86,2.22,1.86.77,0,2-.22,2-1.25s-1.51-1.27-3-1.66-3-1-3-2.86c0-2.06,1.94-3,3.75-3,2.1,0,4,.91,4,3.24H36.79c-.07-1.22-.93-1.53-2-1.53-.7,0-1.51.3-1.51,1.14s.47.88,3,1.53c.73.18,3,.64,3,2.93,0,1.84-1.44,3.22-4.17,3.22-2.23,0-4.31-1.1-4.28-3.58Z" fill="#10426b"/><path d="M40.57,169.73H45.1c2.51,0,3.48,1.59,3.48,3.22s-1,3.23-3.48,3.23H42.78v3.6H40.57Zm2.21,4.73H44.5c1,0,1.94-.23,1.94-1.51s-.91-1.51-1.94-1.51H42.78Z" fill="#10426b"/><path d="M50,169.73h2.21v10.05H50Z" fill="#10426b"/><path d="M58,169.73h3.11l2.35,6.91h0l2.22-6.91h3.11v10.05H66.77v-7.12h0l-2.46,7.12h-1.7l-2.46-7.05h0v7.05H58Z" fill="#10426b"/><path d="M70.49,174.74c.11-1.87,1.79-2.44,3.42-2.44,1.45,0,3.19.33,3.19,2.07v3.79a3.78,3.78,0,0,0,.25,1.62h-2a2.72,2.72,0,0,1-.14-.7,3.33,3.33,0,0,1-2.45.9c-1.38,0-2.48-.69-2.48-2.18,0-1.65,1.24-2.05,2.48-2.22s2.36-.14,2.36-1-.59-1-1.29-1-1.25.31-1.32,1.1Zm4.61,1.48a4,4,0,0,1-1.66.42c-.62.13-1.18.34-1.18,1.07s.58.93,1.23.93A1.48,1.48,0,0,0,75.1,177Z" fill="#10426b"/><path d="M80.7,171.37h-2v-1.64h2Zm-2,1.13h2v7.28h-2Z" fill="#10426b"/><path d="M82.28,172.5h1.9v1h0a2.61,2.61,0,0,1,2.22-1.21c2.13,0,2.66,1.2,2.66,3v4.48h-2v-4.11c0-1.2-.36-1.79-1.28-1.79-1.09,0-1.55.61-1.55,2.08v3.82h-2Z" fill="#10426b"/><polygon points="383.9 175.89 387.52 189.38 391.13 175.89 383.9 175.89" fill="#10426b"/><polygon points="151.88 75.39 165.37 71.77 151.88 68.16 151.88 75.39" fill="#10426b"/><polygon points="151.88 90.76 165.37 87.14 151.88 83.53 151.88 90.76" fill="#10426b"/><polygon points="151.88 106.13 165.37 102.51 151.88 98.89 151.88 106.13" fill="#10426b"/><polygon points="151.88 121.49 165.37 117.88 151.88 114.26 151.88 121.49" fill="#10426b"/><polygon points="366.23 175.89 369.85 189.38 373.47 175.89 366.23 175.89" fill="#10426b"/><polygon points="348.57 175.89 352.18 189.38 355.8 175.89 348.57 175.89" fill="#10426b"/><polygon points="330.9 175.89 334.52 189.38 338.13 175.89 330.9 175.89" fill="#10426b"/><polyline points="334.52 178.12 334.52 159.45 180.89 159.45" fill="none" stroke="#10426b" stroke-miterlimit="14.3" stroke-width="1.5"/><polyline points="352.18 180.71 352.18 149.45 180.89 149.45" fill="none" stroke="#10426b" stroke-miterlimit="14.3" stroke-width="1.5"/><polyline points="369.85 175.89 369.85 139.45 180.89 139.45" fill="none" stroke="#10426b" stroke-miterlimit="14.3" stroke-width="1.5"/><polyline points="387.52 175.89 387.52 129.45 180.89 129.45" fill="none" stroke="#10426b" stroke-miterlimit="14.3" stroke-width="1.5"/><rect x="459.62" y="189.38" width="105.24" height="140.51" fill="#fbc694" stroke="#10426b" stroke-linecap="round" stroke-linejoin="round" stroke-width="1.5"/><path d="M503.39,298.8c0,1.34,1,1.86,2.22,1.86.77,0,2-.23,2-1.26s-1.51-1.26-3-1.66-3-1-3-2.86c0-2.05,1.94-3,3.75-3,2.1,0,4,.92,4,3.24h-2.14c-.07-1.21-.93-1.52-2-1.52-.7,0-1.52.3-1.52,1.14s.48.87,3,1.52c.73.18,3,.65,3,2.93,0,1.85-1.45,3.23-4.17,3.23-2.23,0-4.31-1.1-4.28-3.58Z" fill="#10426b"/><path d="M511,292.08h4.53c2.51,0,3.48,1.59,3.48,3.23s-1,3.22-3.48,3.22h-2.32v3.61H511Zm2.21,4.73h1.72c1,0,1.94-.22,1.94-1.5s-.91-1.51-1.94-1.51h-1.72Z" fill="#10426b"/><path d="M520.4,292.08h2.21v10.06H520.4Z" fill="#10426b"/><path d="M484.88,315.69c0,1.34,1,1.86,2.22,1.86.77,0,2-.22,2-1.25s-1.51-1.27-3-1.66-3-1-3-2.86c0-2.06,1.94-3,3.75-3,2.1,0,4,.91,4,3.24h-2.14c-.07-1.22-.93-1.53-2-1.53-.7,0-1.52.3-1.52,1.14s.48.88,3,1.53c.73.18,3,.64,3,2.93,0,1.84-1.44,3.22-4.17,3.22-2.23,0-4.31-1.1-4.28-3.58Z" fill="#10426b"/><path d="M499.12,319h-1.9v-1h-.05a2.59,2.59,0,0,1-2.22,1.21c-2.12,0-2.66-1.2-2.66-3v-4.48h2v4.11c0,1.2.35,1.79,1.28,1.79s1.55-.6,1.55-2.08v-3.82h2Z" fill="#10426b"/><path d="M500.64,309h2v3.66h0a2.7,2.7,0,0,1,2.3-1.09c1.45,0,3,1.17,3,3.83s-1.56,3.85-3,3.85a2.54,2.54,0,0,1-2.4-1.13h0V319h-1.9Zm3.63,4.08c-1.19,0-1.71,1.11-1.71,2.34s.52,2.32,1.71,2.32,1.7-1.11,1.7-2.32S505.45,313.06,504.27,313.06Z" fill="#10426b"/><path d="M509.23,311.75h1.9v1h.05a2.59,2.59,0,0,1,2.22-1.21c2.12,0,2.66,1.2,2.66,3V319h-2v-4.11c0-1.2-.35-1.79-1.28-1.79s-1.55.61-1.55,2.08V319h-2Z" fill="#10426b"/><path d="M521.11,311.55a3.84,3.84,0,1,1-3.76,3.85A3.58,3.58,0,0,1,521.11,311.55Zm0,6.17c1.36,0,1.77-1.17,1.77-2.32s-.41-2.34-1.77-2.34-1.76,1.17-1.76,2.34S519.76,317.72,521.11,317.72Z" fill="#10426b"/><path d="M531.37,318.1h0a2.41,2.41,0,0,1-2.21,1.13c-2.19,0-3.26-1.89-3.26-3.9s1.08-3.78,3.22-3.78a2.5,2.5,0,0,1,2.15,1.09h0V309h2v10h-1.9Zm-1.75-5c-1.31,0-1.76,1.13-1.76,2.32s.52,2.34,1.76,2.34,1.72-1.15,1.72-2.35S530.92,313.06,529.62,313.06Z" fill="#10426b"/><path d="M536.42,315.88c.05,1.26.67,1.84,1.79,1.84a1.64,1.64,0,0,0,1.57-.94h1.76a3.27,3.27,0,0,1-3.41,2.45,3.55,3.55,0,0,1-3.71-3.83,3.65,3.65,0,0,1,3.71-3.85c2.48,0,3.68,2.09,3.54,4.33Zm3.25-1.27c-.18-1-.62-1.55-1.59-1.55a1.58,1.58,0,0,0-1.66,1.55Z" fill="#10426b"/><path d="M484.94,246h2.27L491,256h-2.29l-.76-2.24h-3.76l-.79,2.24h-2.23Zm-.21,6.17h2.6l-1.26-3.69h0Z" fill="#10426b"/><path d="M491.83,246h4.34c2.6,0,4.56,1.64,4.56,5,0,2.92-1.49,5.09-4.56,5.09h-4.34Zm2.21,8.2h2c1.28,0,2.51-.79,2.51-3,0-2-.71-3.32-2.9-3.32H494Z" fill="#10426b"/><path d="M509.52,254.88a3.4,3.4,0,0,1-2.76,1.38c-3.11,0-4.93-2.33-4.93-5.23s1.82-5.31,4.93-5.31a4,4,0,0,1,4.24,3.55h-2.11a2.07,2.07,0,0,0-2.13-1.69c-2,0-2.73,1.69-2.73,3.45s.75,3.37,2.73,3.37a2.19,2.19,0,0,0,2.4-2.17h-2.23v-1.65h4.22V256h-1.4Z" fill="#10426b"/><path d="M517.49,256h-2v-6.4H513v-1.5c1.39,0,2.67-.45,2.89-2h1.59Z" fill="#10426b"/><path d="M524.18,253.74H520v-1.83l4.28-5.75h1.78v5.93h1.31v1.65h-1.31V256h-1.9Zm0-5.07h0l-2.55,3.42h2.59Z" fill="#10426b"/><path d="M533.13,256h-2v-6.4h-2.47v-1.5c1.39,0,2.67-.45,2.88-2h1.59Z" fill="#10426b"/><path d="M536,250c-.07-2.26,1.21-4,3.57-4a3.14,3.14,0,0,1,3.38,3.09,3.47,3.47,0,0,1-1.76,3,10.93,10.93,0,0,0-2.84,2.27H543V256h-7.23c0-2.28,1.4-3.26,3.1-4.41.88-.59,2.06-1.2,2.07-2.41a1.42,1.42,0,0,0-1.47-1.52c-1.19,0-1.57,1.23-1.57,2.27Z" fill="#10426b"/><polygon points="534.57 175.89 538.18 189.38 541.8 175.89 534.57 175.89" fill="#10426b"/><polygon points="516.9 175.89 520.52 189.38 524.13 175.89 516.9 175.89" fill="#10426b"/><polygon points="499.23 175.89 502.85 189.38 506.47 175.89 499.23 175.89" fill="#10426b"/><polygon points="481.57 175.89 485.18 189.38 488.8 175.89 481.57 175.89" fill="#10426b"/><polyline points="485.18 178.12 485.18 118.76 180.89 118.76" fill="none" stroke="#10426b" stroke-miterlimit="14.3" stroke-width="1.5"/><polyline points="502.85 180.71 502.85 108.76 180.89 108.76" fill="none" stroke="#10426b" stroke-miterlimit="14.3" stroke-width="1.5"/><polyline points="520.52 175.89 520.52 98.76 180.89 98.76" fill="none" stroke="#10426b" stroke-miterlimit="14.3" stroke-width="1.5"/><polyline points="538.18 175.89 538.18 88.76 180.89 88.76" fill="none" stroke="#10426b" stroke-miterlimit="14.3" stroke-width="1.5"/><rect x="610.29" y="189.38" width="105.24" height="140.51" fill="#fbc694" stroke="#10426b" stroke-linecap="round" stroke-linejoin="round" stroke-width="1.5"/><path d="M654.05,298.8c0,1.34,1,1.86,2.23,1.86.77,0,2-.23,2-1.26s-1.5-1.26-3-1.66-3-1-3-2.86c0-2.05,1.94-3,3.76-3,2.09,0,4,.92,4,3.24h-2.14c-.07-1.21-.92-1.52-2-1.52-.7,0-1.52.3-1.52,1.14s.48.87,3,1.52c.73.18,3,.65,3,2.93,0,1.85-1.45,3.23-4.18,3.23-2.22,0-4.3-1.1-4.27-3.58Z" fill="#10426b"/><path d="M661.68,292.08h4.53c2.5,0,3.47,1.59,3.47,3.23s-1,3.22-3.47,3.22h-2.32v3.61h-2.21Zm2.21,4.73h1.71c1,0,1.95-.22,1.95-1.5s-.92-1.51-1.95-1.51h-1.71Z" fill="#10426b"/><path d="M671.07,292.08h2.2v10.06h-2.2Z" fill="#10426b"/><path d="M635.54,315.69c0,1.34,1,1.86,2.23,1.86.77,0,2-.22,2-1.25s-1.5-1.27-3-1.66-3-1-3-2.86c0-2.06,1.94-3,3.76-3,2.09,0,4,.91,4,3.24h-2.14c-.07-1.22-.92-1.53-2-1.53-.7,0-1.52.3-1.52,1.14s.48.88,3,1.53c.73.18,3,.64,3,2.93,0,1.84-1.45,3.22-4.18,3.22-2.22,0-4.3-1.1-4.27-3.58Z" fill="#10426b"/><path d="M649.78,319h-1.9v-1h0a2.61,2.61,0,0,1-2.22,1.21c-2.13,0-2.66-1.2-2.66-3v-4.48h2v4.11c0,1.2.35,1.79,1.28,1.79s1.54-.6,1.54-2.08v-3.82h2Z" fill="#10426b"/><path d="M651.3,309h2v3.66h0a2.67,2.67,0,0,1,2.29-1.09c1.45,0,3,1.17,3,3.83s-1.56,3.85-3,3.85a2.52,2.52,0,0,1-2.39-1.13h0V319h-1.9Zm3.63,4.08c-1.18,0-1.7,1.11-1.7,2.34s.52,2.32,1.7,2.32,1.7-1.11,1.7-2.32S656.11,313.06,654.93,313.06Z" fill="#10426b"/><path d="M659.9,311.75h1.9v1h0a2.61,2.61,0,0,1,2.22-1.21c2.13,0,2.66,1.2,2.66,3V319h-2v-4.11c0-1.2-.36-1.79-1.28-1.79-1.09,0-1.55.61-1.55,2.08V319h-2Z" fill="#10426b"/><path d="M671.78,311.55A3.84,3.84,0,1,1,668,315.4,3.58,3.58,0,0,1,671.78,311.55Zm0,6.17c1.36,0,1.77-1.17,1.77-2.32s-.41-2.34-1.77-2.34S670,314.23,670,315.4,670.42,317.72,671.78,317.72Z" fill="#10426b"/><path d="M682,318.1h0a2.4,2.4,0,0,1-2.2,1.13c-2.2,0-3.27-1.89-3.27-3.9s1.09-3.78,3.22-3.78a2.51,2.51,0,0,1,2.16,1.09h0V309h2v10H682Zm-1.74-5c-1.31,0-1.76,1.13-1.76,2.32s.52,2.34,1.76,2.34,1.71-1.15,1.71-2.35S681.58,313.06,680.29,313.06Z" fill="#10426b"/><path d="M687.08,315.88c.06,1.26.68,1.84,1.79,1.84a1.66,1.66,0,0,0,1.58-.94h1.76a3.28,3.28,0,0,1-3.41,2.45,3.55,3.55,0,0,1-3.71-3.83,3.65,3.65,0,0,1,3.71-3.85c2.48,0,3.67,2.09,3.53,4.33Zm3.25-1.27c-.18-1-.62-1.55-1.59-1.55a1.58,1.58,0,0,0-1.66,1.55Z" fill="#10426b"/><path d="M635.61,246h2.26L641.63,256h-2.3l-.76-2.24h-3.75L634,256h-2.24Zm-.22,6.17H638l-1.27-3.69h0Z" fill="#10426b"/><path d="M642.5,246h4.33c2.61,0,4.56,1.64,4.56,5,0,2.92-1.49,5.09-4.56,5.09H642.5Zm2.21,8.2h2c1.28,0,2.5-.79,2.5-3,0-2-.7-3.32-2.89-3.32h-1.58Z" fill="#10426b"/><path d="M660.19,254.88a3.41,3.41,0,0,1-2.76,1.38c-3.11,0-4.94-2.33-4.94-5.23s1.83-5.31,4.94-5.31a4,4,0,0,1,4.23,3.55h-2.11a2.06,2.06,0,0,0-2.12-1.69c-2,0-2.73,1.69-2.73,3.45s.75,3.37,2.73,3.37a2.18,2.18,0,0,0,2.39-2.17H657.6v-1.65h4.22V256h-1.41Z" fill="#10426b"/><path d="M668.15,256h-2v-6.4h-2.47v-1.5c1.39,0,2.67-.45,2.88-2h1.59Z" fill="#10426b"/><path d="M674.85,253.74h-4.17v-1.83l4.28-5.75h1.79v5.93h1.31v1.65h-1.31V256h-1.9Zm0-5.07h0l-2.55,3.42h2.59Z" fill="#10426b"/><path d="M683.8,256h-2v-6.4h-2.48v-1.5c1.4,0,2.68-.45,2.89-2h1.59Z" fill="#10426b"/><path d="M686.63,250c-.07-2.26,1.21-4,3.57-4a3.14,3.14,0,0,1,3.38,3.09,3.47,3.47,0,0,1-1.76,3A10.76,10.76,0,0,0,689,254.3h4.65V256H686.4c0-2.28,1.41-3.26,3.11-4.41.87-.59,2.06-1.2,2.07-2.41a1.42,1.42,0,0,0-1.48-1.52c-1.18,0-1.56,1.23-1.56,2.27Z" fill="#10426b"/><polygon points="685.23 175.89 688.85 189.38 692.47 175.89 685.23 175.89" fill="#10426b"/><polygon points="667.57 175.89 671.18 189.38 674.8 175.89 667.57 175.89" fill="#10426b"/><polygon points="649.9 175.89 653.52 189.38 657.13 175.89 649.9 175.89" fill="#10426b"/><polygon points="632.23 175.89 635.85 189.38 639.47 175.89 632.23 175.89" fill="#10426b"/><polyline points="635.85 178.12 635.85 79.77 180.89 79.77" fill="none" stroke="#10426b" stroke-miterlimit="14.3" stroke-width="1.5"/><polyline points="653.52 180.71 653.52 69.77 180.89 69.77" fill="none" stroke="#10426b" stroke-miterlimit="14.3" stroke-width="1.5"/><polyline points="671.18 175.89 671.18 59.77 180.89 59.77" fill="none" stroke="#10426b" stroke-miterlimit="14.3" stroke-width="1.5"/><polyline points="688.85 175.89 688.85 49.77 180.89 49.77" fill="none" stroke="#10426b" stroke-miterlimit="14.3" stroke-width="1.5"/><rect x="760.96" y="189.38" width="105.24" height="140.51" fill="#fbc694" stroke="#10426b" stroke-linecap="round" stroke-linejoin="round" stroke-width="1.5"/><path d="M804.72,298.8c0,1.34,1,1.86,2.22,1.86.78,0,2-.23,2-1.26s-1.51-1.26-3-1.66-3-1-3-2.86c0-2.05,1.94-3,3.76-3,2.09,0,4,.92,4,3.24h-2.14c-.07-1.21-.93-1.52-2-1.52-.71,0-1.52.3-1.52,1.14s.48.87,3,1.52c.74.18,3,.65,3,2.93,0,1.85-1.45,3.23-4.18,3.23-2.22,0-4.31-1.1-4.28-3.58Z" fill="#10426b"/><path d="M812.35,292.08h4.53c2.5,0,3.47,1.59,3.47,3.23s-1,3.22-3.47,3.22h-2.32v3.61h-2.21Zm2.21,4.73h1.71c1,0,1.94-.22,1.94-1.5s-.91-1.51-1.94-1.51h-1.71Z" fill="#10426b"/><path d="M821.73,292.08h2.21v10.06h-2.21Z" fill="#10426b"/><path d="M786.21,315.69c0,1.34,1,1.86,2.22,1.86.78,0,2-.22,2-1.25s-1.51-1.27-3-1.66-3-1-3-2.86c0-2.06,1.94-3,3.76-3,2.09,0,4,.91,4,3.24h-2.14c-.07-1.22-.93-1.53-2-1.53-.71,0-1.52.3-1.52,1.14s.48.88,3,1.53c.74.18,3,.64,3,2.93,0,1.84-1.45,3.22-4.18,3.22-2.22,0-4.31-1.1-4.28-3.58Z" fill="#10426b"/><path d="M800.45,319h-1.9v-1h0a2.61,2.61,0,0,1-2.22,1.21c-2.13,0-2.66-1.2-2.66-3v-4.48h2v4.11c0,1.2.36,1.79,1.28,1.79,1.09,0,1.55-.6,1.55-2.08v-3.82h2Z" fill="#10426b"/><path d="M802,309h2v3.66h0a2.67,2.67,0,0,1,2.29-1.09c1.45,0,3,1.17,3,3.83s-1.56,3.85-3,3.85a2.52,2.52,0,0,1-2.39-1.13h0V319H802Zm3.63,4.08c-1.18,0-1.7,1.11-1.7,2.34s.52,2.32,1.7,2.32,1.7-1.11,1.7-2.32S806.78,313.06,805.6,313.06Z" fill="#10426b"/><path d="M810.57,311.75h1.9v1h0a2.61,2.61,0,0,1,2.22-1.21c2.13,0,2.66,1.2,2.66,3V319h-2v-4.11c0-1.2-.35-1.79-1.28-1.79-1.08,0-1.54.61-1.54,2.08V319h-2Z" fill="#10426b"/><path d="M822.44,311.55a3.84,3.84,0,1,1-3.75,3.85A3.57,3.57,0,0,1,822.44,311.55Zm0,6.17c1.37,0,1.77-1.17,1.77-2.32s-.4-2.34-1.77-2.34-1.76,1.17-1.76,2.34S821.09,317.72,822.44,317.72Z" fill="#10426b"/><path d="M832.7,318.1h0a2.41,2.41,0,0,1-2.21,1.13c-2.19,0-3.26-1.89-3.26-3.9s1.08-3.78,3.22-3.78a2.5,2.5,0,0,1,2.15,1.09h0V309h2v10h-1.9Zm-1.74-5c-1.31,0-1.76,1.13-1.76,2.32s.52,2.34,1.76,2.34,1.71-1.15,1.71-2.35S832.25,313.06,831,313.06Z" fill="#10426b"/><path d="M837.75,315.88c.06,1.26.68,1.84,1.79,1.84a1.63,1.63,0,0,0,1.57-.94h1.76a3.27,3.27,0,0,1-3.4,2.45,3.56,3.56,0,0,1-3.72-3.83,3.65,3.65,0,0,1,3.72-3.85c2.47,0,3.67,2.09,3.53,4.33Zm3.25-1.27c-.18-1-.62-1.55-1.59-1.55a1.58,1.58,0,0,0-1.66,1.55Z" fill="#10426b"/><path d="M786.27,246h2.27L792.29,256H790l-.76-2.24h-3.75L784.7,256h-2.24Zm-.21,6.17h2.6l-1.26-3.69h0Z" fill="#10426b"/><path d="M793.17,246h4.33c2.6,0,4.56,1.64,4.56,5,0,2.92-1.49,5.09-4.56,5.09h-4.33Zm2.21,8.2h2c1.28,0,2.5-.79,2.5-3,0-2-.7-3.32-2.9-3.32h-1.57Z" fill="#10426b"/><path d="M810.85,254.88a3.38,3.38,0,0,1-2.75,1.38c-3.11,0-4.94-2.33-4.94-5.23s1.83-5.31,4.94-5.31a4,4,0,0,1,4.23,3.55h-2.11a2.06,2.06,0,0,0-2.12-1.69c-2,0-2.73,1.69-2.73,3.45s.74,3.37,2.73,3.37a2.18,2.18,0,0,0,2.39-2.17h-2.22v-1.65h4.22V256h-1.41Z" fill="#10426b"/><path d="M818.82,256h-2v-6.4h-2.48v-1.5c1.4,0,2.68-.45,2.89-2h1.59Z" fill="#10426b"/><path d="M825.52,253.74h-4.17v-1.83l4.28-5.75h1.79v5.93h1.3v1.65h-1.3V256h-1.9Zm0-5.07h0l-2.54,3.42h2.59Z" fill="#10426b"/><path d="M834.46,256h-2v-6.4H830v-1.5c1.39,0,2.67-.45,2.89-2h1.58Z" fill="#10426b"/><path d="M837.29,250c-.07-2.26,1.21-4,3.58-4a3.14,3.14,0,0,1,3.37,3.09,3.46,3.46,0,0,1-1.75,3,10.81,10.81,0,0,0-2.85,2.27h4.66V256h-7.23c0-2.28,1.41-3.26,3.11-4.41.87-.59,2.05-1.2,2.07-2.41a1.42,1.42,0,0,0-1.48-1.52c-1.18,0-1.56,1.23-1.56,2.27Z" fill="#10426b"/><polygon points="835.9 175.89 839.52 189.38 843.13 175.89 835.9 175.89" fill="#10426b"/><polygon points="818.23 175.89 821.85 189.38 825.47 175.89 818.23 175.89" fill="#10426b"/><polygon points="800.57 175.89 804.18 189.38 807.8 175.89 800.57 175.89" fill="#10426b"/><polygon points="782.9 175.89 786.52 189.38 790.13 175.89 782.9 175.89" fill="#10426b"/><polyline points="786.52 178.12 786.52 40.43 180.89 40.43" fill="none" stroke="#10426b" stroke-miterlimit="14.3" stroke-width="1.5"/><polyline points="804.18 180.71 804.18 30.43 180.89 30.43" fill="none" stroke="#10426b" stroke-miterlimit="14.3" stroke-width="1.5"/><polyline points="821.85 175.89 821.85 20.43 180.89 20.43" fill="none" stroke="#10426b" stroke-miterlimit="14.3" stroke-width="1.5"/><polyline points="839.52 175.89 839.52 10.43 180.89 10.43" fill="none" stroke="#10426b" stroke-miterlimit="14.3" stroke-width="1.5"/><rect x="165.37" y="0.75" width="118.83" height="188.63" fill="#80d4a7" stroke="#10426b" stroke-linecap="round" stroke-linejoin="round" stroke-width="1.5"/><path d="M199.52,76.44c0,1.33,1,1.85,2.23,1.85.77,0,1.95-.22,1.95-1.25s-1.5-1.27-3-1.66-3-1-3-2.86c0-2.06,1.94-3,3.76-3,2.1,0,4,.91,4,3.24h-2.14c-.07-1.21-.92-1.52-2-1.52-.7,0-1.52.29-1.52,1.14s.48.87,3,1.52c.73.18,3,.65,3,2.93,0,1.84-1.45,3.22-4.18,3.22-2.22,0-4.3-1.1-4.27-3.57Z" fill="#10426b"/><path d="M208.59,76.62c0,1.27.67,1.84,1.78,1.84a1.66,1.66,0,0,0,1.58-.94h1.76A3.28,3.28,0,0,1,210.3,80a3.55,3.55,0,0,1-3.71-3.83,3.64,3.64,0,0,1,3.71-3.84c2.48,0,3.67,2.08,3.53,4.32Zm3.25-1.27c-.19-1-.62-1.55-1.59-1.55a1.57,1.57,0,0,0-1.66,1.55Z" fill="#10426b"/><path d="M215,72.49h1.9v1.35h0a2.58,2.58,0,0,1,2.32-1.54,1.27,1.27,0,0,1,.44.07v1.85a3.82,3.82,0,0,0-.72-.07c-1.46,0-2,1.06-2,2.34v3.28h-2Z" fill="#10426b"/><path d="M222.54,71.37h-2V69.72h2Zm-2,1.12h2v7.28h-2Z" fill="#10426b"/><path d="M224,74.73c.11-1.87,1.78-2.43,3.41-2.43,1.45,0,3.2.32,3.2,2.07v3.78a3.75,3.75,0,0,0,.25,1.62h-2a2.73,2.73,0,0,1-.15-.7,3.33,3.33,0,0,1-2.44.9c-1.38,0-2.48-.69-2.48-2.18,0-1.65,1.24-2,2.48-2.21s2.36-.14,2.36-1-.59-1-1.29-1-1.26.31-1.33,1.1Zm4.61,1.48a3.88,3.88,0,0,1-1.66.42c-.62.13-1.18.34-1.18,1.07s.57.93,1.22.93A1.49,1.49,0,0,0,228.65,77Z" fill="#10426b"/><path d="M232.25,69.72h2v10h-2Z" fill="#10426b"/><path d="M242.27,72.49h1.46v1.34h-1.46v3.61c0,.67.17.84.84.84a2.56,2.56,0,0,0,.62-.06v1.57a8.41,8.41,0,0,1-1.16.07c-1.23,0-2.3-.28-2.3-1.73v-4.3h-1.21V72.49h1.21V70.31h2Z" fill="#10426b"/><path d="M248.22,72.3a3.84,3.84,0,1,1-3.75,3.84A3.57,3.57,0,0,1,248.22,72.3Zm0,6.16c1.37,0,1.78-1.16,1.78-2.32s-.41-2.34-1.78-2.34-1.76,1.17-1.76,2.34S246.87,78.46,248.22,78.46Z" fill="#10426b"/><path d="M200.77,86.61h4.53c2.5,0,3.47,1.59,3.47,3.23s-1,3.22-3.47,3.22H203v3.61h-2.21ZM203,91.34h1.71c1,0,1.95-.22,1.95-1.5s-.92-1.51-1.95-1.51H203Z" fill="#10426b"/><path d="M209.86,91.63c.11-1.88,1.79-2.44,3.42-2.44,1.45,0,3.19.32,3.19,2.07v3.79a3.81,3.81,0,0,0,.25,1.62h-2a2.88,2.88,0,0,1-.14-.71,3.31,3.31,0,0,1-2.45.9c-1.38,0-2.48-.69-2.48-2.18,0-1.65,1.24-2,2.48-2.21s2.36-.14,2.36-1-.59-1-1.29-1-1.25.31-1.32,1.1Zm4.61,1.47c-.33.3-1,.31-1.66.43s-1.18.33-1.18,1.07.58.93,1.23.93a1.48,1.48,0,0,0,1.61-1.68Z" fill="#10426b"/><path d="M218,89.39h1.9v1.35h0a2.56,2.56,0,0,1,2.32-1.55,1.49,1.49,0,0,1,.43.07v1.86a3.71,3.71,0,0,0-.71-.07c-1.47,0-2,1-2,2.34v3.28h-2Z" fill="#10426b"/><path d="M223.41,91.63c.11-1.88,1.79-2.44,3.42-2.44,1.45,0,3.19.32,3.19,2.07v3.79a3.81,3.81,0,0,0,.25,1.62h-2a2.88,2.88,0,0,1-.14-.71,3.29,3.29,0,0,1-2.45.9c-1.38,0-2.48-.69-2.48-2.18,0-1.65,1.24-2,2.48-2.21s2.36-.14,2.36-1-.59-1-1.29-1-1.25.31-1.32,1.1ZM228,93.1c-.33.3-1,.31-1.66.43s-1.18.33-1.18,1.07.58.93,1.23.93A1.48,1.48,0,0,0,228,93.85Z" fill="#10426b"/><path d="M231.63,86.61h2V96.67h-2Z" fill="#10426b"/><path d="M235.26,86.61h2V96.67h-2Z" fill="#10426b"/><path d="M240.48,93.51c.05,1.27.67,1.85,1.78,1.85a1.66,1.66,0,0,0,1.58-1h1.76a3.28,3.28,0,0,1-3.41,2.45A3.55,3.55,0,0,1,238.48,93a3.64,3.64,0,0,1,3.71-3.84c2.48,0,3.67,2.08,3.53,4.32Zm3.25-1.26c-.19-1-.62-1.55-1.59-1.55a1.56,1.56,0,0,0-1.66,1.55Z" fill="#10426b"/><path d="M247,86.61h2V96.67h-2Z" fill="#10426b"/><path d="M199.09,106.89a2.17,2.17,0,0,0-2.2-1.76c-2,0-2.73,1.69-2.73,3.45s.75,3.36,2.73,3.36a2.27,2.27,0,0,0,2.28-2.25h2.14a4.25,4.25,0,0,1-4.42,4.11c-3.11,0-4.94-2.32-4.94-5.22s1.83-5.31,4.94-5.31a4.08,4.08,0,0,1,4.34,3.62Z" fill="#10426b"/><path d="M206.14,106.08a3.84,3.84,0,1,1-3.76,3.85A3.58,3.58,0,0,1,206.14,106.08Zm0,6.17c1.36,0,1.77-1.17,1.77-2.32s-.41-2.34-1.77-2.34-1.76,1.17-1.76,2.34S204.79,112.25,206.14,112.25Z" fill="#10426b"/><path d="M211.2,106.28h1.9v1h0a2.62,2.62,0,0,1,2.23-1.21c2.12,0,2.66,1.2,2.66,3v4.48h-2v-4.11c0-1.2-.35-1.79-1.28-1.79-1.08,0-1.55.61-1.55,2.08v3.82h-2Z" fill="#10426b"/><path d="M223.57,113.56h-2.22l-2.49-7.28H221l1.54,5h0l1.53-5h2Z" fill="#10426b"/><path d="M228.51,110.41c.06,1.26.68,1.84,1.79,1.84a1.63,1.63,0,0,0,1.57-.94h1.76a3.27,3.27,0,0,1-3.4,2.45,3.56,3.56,0,0,1-3.72-3.83,3.66,3.66,0,0,1,3.72-3.85c2.47,0,3.67,2.09,3.53,4.33Zm3.25-1.27c-.18-1-.62-1.55-1.59-1.55a1.58,1.58,0,0,0-1.66,1.55Z" fill="#10426b"/><path d="M234.94,106.28h1.9v1.35h0a2.57,2.57,0,0,1,2.32-1.55,1.62,1.62,0,0,1,.44.07V108a3.91,3.91,0,0,0-.72-.07c-1.47,0-2,1.06-2,2.34v3.28h-2Z" fill="#10426b"/><path d="M243,106.28h1.46v1.34H243v3.6c0,.68.16.85.84.85a3.26,3.26,0,0,0,.62-.06v1.57a8.56,8.56,0,0,1-1.17.07c-1.22,0-2.29-.29-2.29-1.74v-4.29h-1.21v-1.34H241V104.1h2Z" fill="#10426b"/><path d="M247,110.41c.06,1.26.68,1.84,1.79,1.84a1.66,1.66,0,0,0,1.58-.94h1.75a3.26,3.26,0,0,1-3.4,2.45,3.55,3.55,0,0,1-3.71-3.83,3.65,3.65,0,0,1,3.71-3.85c2.48,0,3.67,2.09,3.53,4.33Zm3.25-1.27c-.18-1-.62-1.55-1.59-1.55a1.58,1.58,0,0,0-1.66,1.55Z" fill="#10426b"/><path d="M253.44,106.28h1.9v1.35h0a2.59,2.59,0,0,1,2.32-1.55,1.62,1.62,0,0,1,.44.07V108a3.82,3.82,0,0,0-.72-.07c-1.46,0-2,1.06-2,2.34v3.28h-2Z" fill="#10426b"/><line x1="154.75" y1="71.77" x2="119.58" y2="71.77" fill="none" stroke="#10426b" stroke-linecap="round" stroke-linejoin="round" stroke-width="1.5"/><line x1="154.75" y1="87.14" x2="119.58" y2="87.14" fill="none" stroke="#10426b" stroke-linecap="round" stroke-linejoin="round" stroke-width="1.5"/><line x1="154.75" y1="102.51" x2="119.58" y2="102.51" fill="none" stroke="#10426b" stroke-linecap="round" stroke-linejoin="round" stroke-width="1.5"/><line x1="154.75" y1="117.83" x2="119.58" y2="117.83" fill="none" stroke="#10426b" stroke-linecap="round" stroke-linejoin="round" stroke-width="1.5"/><line x1="95.59" y1="64.61" x2="113" y2="64.61" fill="none" stroke="#10426b" stroke-miterlimit="10"/></svg>