<?xml version="1.0" encoding="UTF-8"?>
<svg viewBox="0 600 800 200" xmlns="http://www.w3.org/2000/svg">
  <!-- Styles -->
  <style>
    text {
      font-family: Arial, sans-serif;
      font-size: 12px;
    }
    .title {
      font-size: 16px;
      font-weight: bold;
      text-anchor: middle;
    }
    .subtitle {
      font-size: 12px;
      font-style: italic;
      text-anchor: middle;
    }
    .label {
      font-size: 12px;
      text-anchor: middle;
    }
    .inlier {
      fill: #4CAF50;
      stroke: #2E7D32;
      stroke-width: 1;
    }
    .outlier {
      fill: #F44336;
      stroke: #B71C1C;
      stroke-width: 1;
    }
    .highlight {
      fill: #2196F3;
      stroke: #0D47A1;
      stroke-width: 2;
    }
    .model-line {
      stroke: #000000;
      stroke-width: 2;
    }
    .model-line-bad {
      stroke: #FF9800;
      stroke-width: 2;
      stroke-dasharray: 5,3;
    }
    .model-line-good {
      stroke: #4CAF50;
      stroke-width: 3;
    }
    .threshold-line {
      stroke: #9E9E9E;
      stroke-width: 1;
      stroke-dasharray: 3,3;
    }
    .arrow {
      fill: none;
      stroke: #616161;
      stroke-width: 1.5;
      marker-end: url(#arrowhead);
    }
    .box {
      fill: #FFFFFF;
      stroke: #9E9E9E;
      stroke-width: 1;
    }
    .legend-box {
      fill: #FFFFFF;
      stroke: #9E9E9E;
      stroke-width: 1;
      rx: 5;
      ry: 5;
    }
  </style>

  <!-- Markers -->
  <defs>
    <marker id="arrowhead" markerWidth="10" markerHeight="7" refX="9" refY="3.5" orient="auto">
      <polygon points="0 0, 10 3.5, 0 7" fill="#616161"/>
    </marker>
  </defs>

  <!-- Title -->
  <text x="400" y="30" class="title">RANSAC Algorithm: Visual Explanation</text>

  <!-- Fifth diagram: Final result -->
  <g transform="translate(0, 600)">
    <rect x="50" y="50" width="700" height="150" class="box"/>
    <text x="400" y="75" class="subtitle">5. RANSAC Process Flow</text>
    
    <!-- Process flow -->
    <rect x="80" y="100" width="100" height="50" rx="10" ry="10" fill="#E3F2FD" stroke="#1565C0"/>
    <text x="130" y="130" class="label">Random Sample</text>
    
    <rect x="230" y="100" width="100" height="50" rx="10" ry="10" fill="#E8F5E9" stroke="#2E7D32"/>
    <text x="280" y="130" class="label">Fit Model</text>
    
    <rect x="380" y="100" width="100" height="50" rx="10" ry="10" fill="#FFF3E0" stroke="#E65100"/>
    <text x="430" y="123" class="label">Count Inliers</text>
    <text x="430" y="138" class="label">(Consensus)</text>
    
    <rect x="530" y="100" width="100" height="50" rx="10" ry="10" fill="#F3E5F5" stroke="#6A1B9A"/>
    <text x="580" y="123" class="label">Keep Best</text>
    <text x="580" y="138" class="label">Model</text>
    
    <!-- Arrows -->
    <path d="M 180 125 L 230 125" class="arrow"/>
    <path d="M 330 125 L 380 125" class="arrow"/>
    <path d="M 480 125 L 530 125" class="arrow"/>
    <path d="M 580 160 A 50 50 0 0 1 530 200 L 130 200 A 50 50 0 0 1 80 160" class="arrow" stroke-dasharray="5,3"/>
    <text x="300" y="185" class="label">Repeat until consensus threshold or max iterations</text>
 
  </g>
</svg>
