<svg width="800" height="300" xmlns="http://www.w3.org/2000/svg">

    <defs>
        <symbol id="job">
            <rect width="50" height="30" fill="lightblue"/>
  	    <text x="25" y="20" font-family="Arial" font-size="12" text-anchor="middle">j</text>
        </symbol>

	<marker
      		id="black-arrow"
	        viewBox="0 0 10 10"
	        refX="5"
      		refY="5"
      		markerWidth="6"
      		markerHeight="6"
      		orient="auto-start-reverse">
      		<path d="M 0 0 L 10 5 L 0 10 z" fill="black" />
    	</marker>

	<marker
      		id="red-arrow"
	        viewBox="0 0 10 10"
	        refX="5"
      		refY="5"
      		markerWidth="6"
      		markerHeight="6"
      		orient="auto-start-reverse">
      		<path d="M 0 0 L 10 5 L 0 10 z" fill="#f00" />
    	</marker>

	<line
		id="release"
    		x1="0"
    		y1="50"
    		x2="0"
    		y2="0"
    		stroke="black"
    		marker-end="url(#black-arrow)" />

	<line
		id="deadline"
    		x1="0"
    		y1="0"
    		x2="0"
    		y2="50"
    		stroke="red"
    		marker-end="url(#red-arrow)" />

	<line
		id="period"
    		x1="0"
    		y1="0"
    		x2="200"
    		y2="0"
    		stroke="lightblue"
		marker-start="url(#black-arrow)"
    		marker-end="url(#black-arrow)" />

	<symbol id="period">
    		<use href="#period" x="0" y="0"/>
  	    <text x="0" y="0" font-family="Arial" font-size="12" text-anchor="middle">period</text>
        </symbol>


    </defs>


    <use href="#release" x="50" y="80"/>
    <text x="75" y="110" font-family="Arial" font-size="12" text-anchor="middle">arrivals</text>
   
    <!-- Jobs -->
    <use href="#job" x="100" y="220"/>
    <use href="#job" x="300" y="220"/>

    <!-- release arrows -->
    <use href="#release" x="50" y="280"/>
    <use href="#release" x="250" y="280"/>

  <!-- Timeline at the bottom -->
  <line x1="50" y1="250" x2="550" y2="250" stroke="black" stroke-width="2" />
  <line x1="50" y1="245" x2="50" y2="255" stroke="black" stroke-width="2" />

  <!-- Time markers for every unit of time -->
  <!-- Markers from 0 to 12 -->
  <g font-family="DejaVu Sans" font-size="10" text-anchor="middle">
    <!-- Vertical lines for each unit -->
    <line x1="50" y1="245" x2="50" y2="255" stroke="black" stroke-width="1" />
    <line x1="100" y1="245" x2="100" y2="255" stroke="black" stroke-width="1" />
    <line x1="150" y1="245" x2="150" y2="255" stroke="black" stroke-width="1" />
    <line x1="200" y1="245" x2="200" y2="255" stroke="black" stroke-width="1" />
    <line x1="250" y1="245" x2="250" y2="255" stroke="black" stroke-width="1" />
    <line x1="300" y1="245" x2="300" y2="255" stroke="black" stroke-width="1" />
    <line x1="350" y1="245" x2="350" y2="255" stroke="black" stroke-width="1" />
    <line x1="400" y1="245" x2="400" y2="255" stroke="black" stroke-width="1" />
    <line x1="450" y1="245" x2="450" y2="255" stroke="black" stroke-width="1" />
    <line x1="500" y1="245" x2="500" y2="255" stroke="black" stroke-width="1" />
    <line x1="550" y1="245" x2="550" y2="255" stroke="black" stroke-width="1" />

    <!-- Labels for each unit -->
    <text x="50" y="270">0</text>
    <text x="100" y="270">1</text>
    <text x="150" y="270">2</text>
    <text x="200" y="270">3</text>
    <text x="250" y="270">4</text>
    <text x="300" y="270">5</text>
    <text x="350" y="270">6</text>
    <text x="400" y="270">7</text>
    <text x="450" y="270">8</text>
    <text x="500" y="270">9</text>
    <text x="550" y="270">10</text>
  </g>

</svg>
