<?xml version="1.0" encoding="UTF-8"?>
<svg viewBox="0 0 400 300" xmlns="http://www.w3.org/2000/svg">
  <!-- Styles -->
  <style>
    text {
      font-family: Arial, sans-serif;
      font-size: 12px;
    }
    .title {
      font-size: 16px;
      font-weight: bold;
      text-anchor: middle;
    }
    .subtitle {
      font-size: 12px;
      font-style: italic;
      text-anchor: middle;
    }
    .label {
      font-size: 12px;
      text-anchor: middle;
    }
    .inlier {
      fill: #4CAF50;
      stroke: #2E7D32;
      stroke-width: 1;
    }
    .outlier {
      fill: #F44336;
      stroke: #B71C1C;
      stroke-width: 1;
    }
    .highlight {
      fill: #2196F3;
      stroke: #0D47A1;
      stroke-width: 2;
    }
    .model-line {
      stroke: #000000;
      stroke-width: 2;
    }
    .model-line-bad {
      stroke: #FF9800;
      stroke-width: 2;
      stroke-dasharray: 5,3;
    }
    .model-line-good {
      stroke: #4CAF50;
      stroke-width: 3;
    }
    .threshold-line {
      stroke: #9E9E9E;
      stroke-width: 1;
      stroke-dasharray: 3,3;
    }
    .arrow {
      fill: none;
      stroke: #616161;
      stroke-width: 1.5;
      marker-end: url(#arrowhead);
    }
    .box {
      fill: #FFFFFF;
      stroke: #9E9E9E;
      stroke-width: 1;
    }
    .legend-box {
      fill: #FFFFFF;
      stroke: #9E9E9E;
      stroke-width: 1;
      rx: 5;
      ry: 5;
    }
  </style>

  <!-- Markers -->
  <defs>
    <marker id="arrowhead" markerWidth="10" markerHeight="7" refX="9" refY="3.5" orient="auto">
      <polygon points="0 0, 10 3.5, 0 7" fill="#616161"/>
    </marker>
  </defs>

  <!-- First diagram: Initial dataset with outliers -->
  <g transform="translate(0, 0)">
    <rect x="50" y="50" width="300" height="250" class="box"/>
    <text x="200" y="75" class="subtitle">1. Data with Outliers</text>
    
    <!-- Coordinate system -->
    <line x1="80" y1="250" x2="320" y2="250" stroke="#000000" stroke-width="1"/>
    <line x1="80" y1="250" x2="80" y2="100" stroke="#000000" stroke-width="1"/>
    <text x="200" y="270" class="label">x</text>
    <text x="60" y="170" class="label">y</text>
    
    <!-- Data points - inliers -->
    <circle cx="100" cy="220" r="4" class="inlier"/>
    <circle cx="120" cy="210" r="4" class="inlier"/>
    <circle cx="140" cy="200" r="4" class="inlier"/>
    <circle cx="160" cy="190" r="4" class="inlier"/>
    <circle cx="180" cy="180" r="4" class="inlier"/>
    <circle cx="200" cy="170" r="4" class="inlier"/>
    <circle cx="220" cy="160" r="4" class="inlier"/>
    <circle cx="240" cy="150" r="4" class="inlier"/>
    <circle cx="260" cy="140" r="4" class="inlier"/>
    <circle cx="280" cy="130" r="4" class="inlier"/>
    <circle cx="300" cy="120" r="4" class="inlier"/>
    
    <!-- Data points - outliers -->
    <circle cx="110" cy="150" r="4" class="outlier"/>
    <circle cx="145" cy="230" r="4" class="outlier"/>
    <circle cx="170" cy="130" r="4" class="outlier"/>
    <circle cx="210" cy="210" r="4" class="outlier"/>
    <circle cx="250" cy="190" r="4" class="outlier"/>
    <circle cx="270" cy="180" r="4" class="outlier"/>
    <circle cx="290" cy="210" r="4" class="outlier"/>
    
    <!-- Legend -->
    <rect x="100" y="90" width="100" height="50" class="legend-box"/>
    <circle cx="120" cy="105" r="4" class="inlier"/>
    <text x="150" y="108" class="label">Inliers</text>
    <circle cx="120" cy="125" r="4" class="outlier"/>
    <text x="150" y="128" class="label">Outliers</text>
  </g>
 
</svg>
