<svg id="b535e8cc-7861-4164-92ec-693d1c9a301e" data-name="Layer 1" xmlns="http://www.w3.org/2000/svg" width="13.1in" height="4.92in" viewBox="0 0 943.18 354.52"><rect x="0.75" y="0.75" width="129.25" height="353.02" fill="#b7e6ef" stroke="#10426b" stroke-linecap="round" stroke-linejoin="round" stroke-width="1.5"/><path d="M14.65,173.62h3.11l2.35,6.91h0l2.23-6.91h3.11v10H23.4v-7.12h0l-2.46,7.12h-1.7l-2.47-7h0v7H14.65Z" fill="#10426b"/><path d="M29.25,175.26h-2v-1.64h2Zm-2,1.13h2v7.28h-2Z" fill="#10426b"/><path d="M35.78,179a1.36,1.36,0,0,0-1.48-1.25c-1.28,0-1.7,1.3-1.7,2.37s.41,2.29,1.66,2.29a1.53,1.53,0,0,0,1.59-1.48h1.93a3.25,3.25,0,0,1-3.5,3,3.54,3.54,0,0,1-3.68-3.73,3.61,3.61,0,0,1,3.72-3.95c1.72,0,3.29.91,3.42,2.76Z" fill="#10426b"/><path d="M38.91,176.39h1.9v1.35h0a2.59,2.59,0,0,1,2.32-1.55,1.56,1.56,0,0,1,.44.07v1.86a3.82,3.82,0,0,0-.72-.07c-1.46,0-2,1.06-2,2.34v3.28h-2Z" fill="#10426b"/><path d="M47.91,176.19A3.84,3.84,0,1,1,44.15,180,3.58,3.58,0,0,1,47.91,176.19Zm0,6.17c1.37,0,1.77-1.17,1.77-2.32s-.4-2.34-1.77-2.34-1.76,1.17-1.76,2.34S46.56,182.36,47.91,182.36Z" fill="#10426b"/><path d="M57.93,179a1.37,1.37,0,0,0-1.48-1.25c-1.28,0-1.7,1.3-1.7,2.37s.41,2.29,1.66,2.29A1.54,1.54,0,0,0,58,180.88h1.93a3.26,3.26,0,0,1-3.51,3,3.53,3.53,0,0,1-3.67-3.73c0-2.27,1.35-3.95,3.72-3.95,1.71,0,3.29.91,3.41,2.76Z" fill="#10426b"/><path d="M64.58,176.19A3.84,3.84,0,1,1,60.83,180,3.58,3.58,0,0,1,64.58,176.19Zm0,6.17c1.37,0,1.78-1.17,1.78-2.32s-.41-2.34-1.78-2.34-1.75,1.17-1.75,2.34S63.23,182.36,64.58,182.36Z" fill="#10426b"/><path d="M69.65,176.39h1.9v1h0a2.6,2.6,0,0,1,2.22-1.22c2.13,0,2.66,1.2,2.66,3v4.48h-2v-4.11c0-1.2-.36-1.79-1.28-1.79-1.09,0-1.55.61-1.55,2.09v3.81h-2Z" fill="#10426b"/><path d="M80.53,176.39H82v1.34H80.53v3.61c0,.67.17.84.84.84a2.61,2.61,0,0,0,.62-.06v1.57a8.56,8.56,0,0,1-1.17.07c-1.22,0-2.29-.28-2.29-1.74v-4.29H77.32v-1.34h1.21v-2.18h2Z" fill="#10426b"/><path d="M83,176.39h1.9v1.35h0a2.57,2.57,0,0,1,2.32-1.55,1.49,1.49,0,0,1,.43.07v1.86a3.79,3.79,0,0,0-.71-.07c-1.47,0-2,1.06-2,2.34v3.28H83Z" fill="#10426b"/><path d="M92,176.19A3.84,3.84,0,1,1,88.2,180,3.58,3.58,0,0,1,92,176.19Zm0,6.17c1.37,0,1.77-1.17,1.77-2.32s-.4-2.34-1.77-2.34-1.76,1.17-1.76,2.34S90.6,182.36,92,182.36Z" fill="#10426b"/><path d="M97.07,173.62h2v10h-2Z" fill="#10426b"/><path d="M100.7,173.62h2v10h-2Z" fill="#10426b"/><path d="M105.92,180.52c.06,1.27.68,1.84,1.79,1.84a1.66,1.66,0,0,0,1.58-.94h1.76a3.28,3.28,0,0,1-3.41,2.45,3.55,3.55,0,0,1-3.71-3.83,3.65,3.65,0,0,1,3.71-3.85c2.48,0,3.67,2.09,3.53,4.33Zm3.25-1.27c-.18-1-.61-1.55-1.59-1.55a1.58,1.58,0,0,0-1.66,1.55Z" fill="#10426b"/><path d="M112.36,176.39h1.89v1.35h0a2.59,2.59,0,0,1,2.32-1.55,1.62,1.62,0,0,1,.44.07v1.86a3.82,3.82,0,0,0-.72-.07c-1.46,0-2,1.06-2,2.34v3.28h-2Z" fill="#10426b"/><path d="M88.08,281.68c0,1.33,1,1.86,2.23,1.86.77,0,2-.23,2-1.26s-1.5-1.27-3-1.66-3-1-3-2.86c0-2.06,2-3,3.76-3,2.1,0,4,.91,4,3.24H91.93c-.07-1.21-.93-1.52-2-1.52-.7,0-1.52.29-1.52,1.14s.48.87,3,1.52c.73.18,3,.65,3,2.93,0,1.84-1.45,3.22-4.18,3.22-2.22,0-4.3-1.1-4.27-3.57Z" fill="#10426b"/><path d="M102.41,278.34a2.17,2.17,0,0,0-2.2-1.76c-2,0-2.73,1.69-2.73,3.45s.75,3.36,2.73,3.36a2.26,2.26,0,0,0,2.28-2.25h2.14a4.24,4.24,0,0,1-4.42,4.11c-3.11,0-4.94-2.32-4.94-5.22s1.83-5.31,4.94-5.31a4.08,4.08,0,0,1,4.34,3.62Z" fill="#10426b"/><path d="M106.14,275h2.21v8.19h4.89V285h-7.1Z" fill="#10426b"/><path d="M114.48,275h2.21v4.17l3.93-4.17h2.75l-3.92,4,4.3,6.08H121l-3-4.52-1.27,1.28V285h-2.21Z" fill="#10426b"/><path d="M87.73,306.17h3.11l2.35,6.91h0l2.22-6.91h3.11v10.05H96.48V309.1h0L94,316.22h-1.7l-2.46-7.05h0v7.05H87.73Z" fill="#10426b"/><path d="M105,305.93c3.11,0,4.93,2.32,4.93,5.31s-1.82,5.22-4.93,5.22-4.94-2.32-4.94-5.22S101.89,305.93,105,305.93Zm0,8.67c2,0,2.73-1.69,2.73-3.36s-.75-3.46-2.73-3.46-2.73,1.7-2.73,3.46S103,314.6,105,314.6Z" fill="#10426b"/><path d="M113,312.88c0,1.34,1,1.86,2.22,1.86.77,0,2-.22,2-1.25s-1.51-1.27-3-1.66-3-1-3-2.86c0-2.06,1.94-3,3.75-3,2.1,0,4,.91,4,3.24h-2.14c-.07-1.22-.93-1.53-2-1.53-.7,0-1.51.3-1.51,1.14s.47.88,3,1.53c.73.18,3,.64,3,2.93,0,1.84-1.45,3.22-4.17,3.22-2.23,0-4.31-1.1-4.28-3.58Z" fill="#10426b"/><path d="M120.57,306.17h2.21v10.05h-2.21Z" fill="#10426b"/><path d="M87.73,329.57h3.11l2.35,6.91h0l2.22-6.91h3.11v10.06H96.48V332.5h0L94,339.63h-1.7l-2.46-7.06h0v7.06H87.73Z" fill="#10426b"/><path d="M100.49,329.57h2.21v10.06h-2.21Z" fill="#10426b"/><path d="M106.15,336.29c0,1.34,1,1.86,2.22,1.86.78,0,2-.23,2-1.26s-1.51-1.26-3-1.66-3-1-3-2.86c0-2.05,1.94-3,3.76-3,2.09,0,4,.92,4,3.24H110c-.07-1.21-.93-1.52-2-1.52-.71,0-1.52.29-1.52,1.14s.48.87,3,1.52c.73.18,3,.65,3,2.93,0,1.84-1.45,3.22-4.18,3.22-2.22,0-4.31-1.09-4.28-3.57Z" fill="#10426b"/><path d="M118.28,329.33c3.11,0,4.94,2.32,4.94,5.31s-1.83,5.22-4.94,5.22-4.94-2.32-4.94-5.22S115.17,329.33,118.28,329.33Zm0,8.68c2,0,2.73-1.69,2.73-3.37s-.75-3.45-2.73-3.45-2.73,1.69-2.73,3.45S116.3,338,118.28,338Z" fill="#10426b"/><g id="ed67a15e-908d-48a0-8f32-0953e71fc7fd" data-name="Junction Point (Filled)"><path d="M160.31,279.32h0a2.88,2.88,0,1,0-2.88,2.81,2.84,2.84,0,0,0,2.88-2.81Z" fill="#10426b" stroke="#10426b" stroke-miterlimit="14.3"/><path d="M177.31,311.15h0a2.88,2.88,0,1,0-2.88,2.81,2.84,2.84,0,0,0,2.88-2.81Z" fill="#10426b" stroke="#10426b" stroke-miterlimit="14.3"/><path d="M194.88,334.8h0a2.88,2.88,0,1,0-2.88,2.82,2.85,2.85,0,0,0,2.88-2.82Z" fill="#10426b" stroke="#10426b" stroke-miterlimit="14.3"/><path d="M361.08,279.32h0a2.88,2.88,0,1,0-2.88,2.81,2.84,2.84,0,0,0,2.88-2.81Z" fill="#10426b" stroke="#10426b" stroke-miterlimit="14.3"/><path d="M378.08,311.15h0A2.88,2.88,0,1,0,375.2,314a2.84,2.84,0,0,0,2.88-2.81Z" fill="#10426b" stroke="#10426b" stroke-miterlimit="14.3"/><path d="M395.65,334.8h0a2.88,2.88,0,1,0-2.88,2.82,2.84,2.84,0,0,0,2.88-2.82Z" fill="#10426b" stroke="#10426b" stroke-miterlimit="14.3"/><path d="M561.08,279.32h0a2.88,2.88,0,1,0-2.88,2.81,2.84,2.84,0,0,0,2.88-2.81Z" fill="#10426b" stroke="#10426b" stroke-miterlimit="14.3"/><path d="M578.08,311.15h0A2.88,2.88,0,1,0,575.2,314a2.84,2.84,0,0,0,2.88-2.81Z" fill="#10426b" stroke="#10426b" stroke-miterlimit="14.3"/><path d="M595.65,334.8h0a2.88,2.88,0,1,0-2.88,2.82,2.84,2.84,0,0,0,2.88-2.82Z" fill="#10426b" stroke="#10426b" stroke-miterlimit="14.3"/><path d="M761.08,279.32h0a2.88,2.88,0,1,0-2.88,2.81,2.84,2.84,0,0,0,2.88-2.81Z" fill="#10426b" stroke="#10426b" stroke-miterlimit="14.3"/><path d="M778.08,311.15h0A2.88,2.88,0,1,0,775.2,314a2.84,2.84,0,0,0,2.88-2.81Z" fill="#10426b" stroke="#10426b" stroke-miterlimit="14.3"/><path d="M795.65,334.8h0a2.88,2.88,0,1,0-2.88,2.82,2.84,2.84,0,0,0,2.88-2.82Z" fill="#10426b" stroke="#10426b" stroke-miterlimit="14.3"/></g><polygon points="201.17 109.76 214.66 106.14 201.17 102.53 201.17 109.76" fill="#10426b"/><polygon points="201.17 140.43 214.66 136.81 201.17 133.19 201.17 140.43" fill="#10426b"/><polygon points="201.17 171.93 214.66 168.31 201.17 164.69 201.17 171.93" fill="#10426b"/><polygon points="205.5 189.19 192 192.81 205.5 196.43 205.5 189.19" fill="#10426b"/><rect x="214.66" y="87.93" width="126.99" height="126.54" fill="#fbc694" stroke="#10426b" stroke-linecap="round" stroke-linejoin="round" stroke-width="1.5"/><path d="M291.58,142.68c0,1.34,1,1.86,2.22,1.86.78,0,2-.23,2-1.26s-1.51-1.26-3-1.66-3-1-3-2.86c0-2,1.94-3,3.75-3,2.1,0,4,.92,4,3.24h-2.14c-.07-1.21-.93-1.52-2-1.52-.71,0-1.52.29-1.52,1.14s.47.87,3,1.52c.73.18,3,.65,3,2.93,0,1.84-1.45,3.22-4.18,3.22-2.23,0-4.31-1.09-4.28-3.57Z" fill="#10426b"/><path d="M299.21,136h4.53c2.5,0,3.47,1.59,3.47,3.22s-1,3.23-3.47,3.23h-2.33V146h-2.2Zm2.2,4.73h1.72c1,0,1.94-.22,1.94-1.51s-.91-1.5-1.94-1.5h-1.72Z" fill="#10426b"/><path d="M308.59,136h2.21V146h-2.21Z" fill="#10426b"/><path d="M273.07,159.57c0,1.34,1,1.86,2.22,1.86.77,0,2-.22,2-1.25s-1.51-1.27-3-1.66-3-1-3-2.86c0-2.06,1.94-3,3.75-3,2.1,0,4,.92,4,3.24h-2.14c-.07-1.21-.93-1.52-2-1.52-.71,0-1.52.3-1.52,1.14s.47.88,3,1.52c.73.19,3,.65,3,2.93,0,1.85-1.45,3.23-4.18,3.23-2.23,0-4.31-1.1-4.28-3.58Z" fill="#10426b"/><path d="M287.31,162.91h-1.9v-1h0a2.62,2.62,0,0,1-2.23,1.21c-2.12,0-2.66-1.2-2.66-3v-4.48h2v4.11c0,1.2.35,1.79,1.28,1.79,1.09,0,1.55-.61,1.55-2.09v-3.81h2Z" fill="#10426b"/><path d="M288.83,152.85h2v3.67h0a2.7,2.7,0,0,1,2.3-1.09c1.45,0,3,1.17,3,3.83s-1.56,3.85-3,3.85a2.54,2.54,0,0,1-2.4-1.13h0v.93h-1.9Zm3.63,4.09c-1.18,0-1.71,1.11-1.71,2.34s.53,2.32,1.71,2.32,1.7-1.11,1.7-2.32S293.64,156.94,292.46,156.94Z" fill="#10426b"/><path d="M297.43,155.63h1.89v1h.05a2.6,2.6,0,0,1,2.22-1.21c2.12,0,2.66,1.2,2.66,3v4.48h-2V158.8c0-1.2-.35-1.79-1.28-1.79-1.08,0-1.55.6-1.55,2.08v3.82h-2Z" fill="#10426b"/><path d="M309.3,155.43a3.84,3.84,0,1,1-3.76,3.85A3.58,3.58,0,0,1,309.3,155.43Zm0,6.17c1.37,0,1.77-1.17,1.77-2.32s-.4-2.34-1.77-2.34-1.76,1.17-1.76,2.34S308,161.6,309.3,161.6Z" fill="#10426b"/><path d="M319.56,162h0a2.42,2.42,0,0,1-2.21,1.13c-2.19,0-3.26-1.89-3.26-3.9s1.08-3.78,3.22-3.78a2.5,2.5,0,0,1,2.15,1.09h0v-3.67h2v10.06h-1.9Zm-1.75-5c-1.31,0-1.76,1.12-1.76,2.32s.52,2.34,1.76,2.34,1.72-1.16,1.72-2.35S319.11,156.94,317.81,156.94Z" fill="#10426b"/><path d="M324.61,159.75c.06,1.27.67,1.85,1.79,1.85a1.63,1.63,0,0,0,1.57-.94h1.76a3.28,3.28,0,0,1-3.4,2.45,3.56,3.56,0,0,1-3.72-3.83,3.65,3.65,0,0,1,3.72-3.85c2.47,0,3.67,2.09,3.53,4.32Zm3.25-1.26c-.18-1-.62-1.55-1.59-1.55a1.57,1.57,0,0,0-1.66,1.55Z" fill="#10426b"/><path d="M222.08,138.49c0,1.34,1,1.86,2.22,1.86.77,0,2-.23,2-1.26s-1.51-1.26-3-1.66-3-1-3-2.86c0-2,1.94-3,3.75-3,2.1,0,4,.92,4,3.24h-2.14c-.07-1.21-.93-1.52-2-1.52-.7,0-1.51.3-1.51,1.14s.47.87,3,1.52c.73.18,3,.65,3,2.93,0,1.85-1.44,3.23-4.17,3.23-2.23,0-4.31-1.1-4.28-3.58Z" fill="#10426b"/><path d="M236.4,135.15a2.17,2.17,0,0,0-2.19-1.76c-2,0-2.73,1.69-2.73,3.45s.74,3.37,2.73,3.37a2.27,2.27,0,0,0,2.28-2.26h2.13a4.24,4.24,0,0,1-4.41,4.12c-3.11,0-4.94-2.33-4.94-5.23s1.83-5.31,4.94-5.31a4.08,4.08,0,0,1,4.33,3.62Z" fill="#10426b"/><path d="M240.13,131.77h2.21V140h4.9v1.86h-7.11Z" fill="#10426b"/><path d="M248.47,131.77h2.21v4.17l3.93-4.17h2.76l-3.93,4,4.31,6.09H255l-3-4.52-1.27,1.28v3.24h-2.21Z" fill="#10426b"/><path d="M222.08,169.52c0,1.34,1,1.86,2.22,1.86.77,0,2-.22,2-1.25s-1.51-1.27-3-1.66-3-1-3-2.86c0-2.06,1.94-3.05,3.75-3.05,2.1,0,4,.92,4,3.24h-2.14c-.07-1.21-.93-1.52-2-1.52-.7,0-1.51.3-1.51,1.14s.47.88,3,1.53c.73.18,3,.64,3,2.92,0,1.85-1.44,3.23-4.17,3.23-2.23,0-4.31-1.1-4.28-3.58Z" fill="#10426b"/><path d="M229.7,162.8H234c2.6,0,4.56,1.64,4.56,5,0,2.91-1.5,5.08-4.56,5.08H229.7Zm2.21,8.2h2c1.28,0,2.51-.79,2.51-3,0-2-.71-3.33-2.9-3.33h-1.58Z" fill="#10426b"/><path d="M240.13,162.8h2.21v10.06h-2.21Z" fill="#10426b"/><path d="M222.08,194.28c0,1.34,1,1.86,2.22,1.86.77,0,2-.22,2-1.25s-1.51-1.27-3-1.66-3-1-3-2.86c0-2.06,1.94-3.05,3.75-3.05,2.1,0,4,.92,4,3.24h-2.14c-.07-1.21-.93-1.52-2-1.52-.7,0-1.51.3-1.51,1.14s.47.88,3,1.52c.73.19,3,.65,3,2.93,0,1.85-1.44,3.23-4.17,3.23-2.23,0-4.31-1.1-4.28-3.58Z" fill="#10426b"/><path d="M229.7,187.56H234c2.6,0,4.56,1.64,4.56,5,0,2.92-1.5,5.09-4.56,5.09H229.7Zm2.21,8.2h2c1.28,0,2.51-.79,2.51-3,0-2-.71-3.33-2.9-3.33h-1.58Z" fill="#10426b"/><path d="M244.63,187.32c3.11,0,4.94,2.33,4.94,5.31s-1.83,5.23-4.94,5.23-4.94-2.33-4.94-5.23S241.52,187.32,244.63,187.32Zm0,8.68c2,0,2.73-1.69,2.73-3.37s-.74-3.45-2.73-3.45-2.73,1.69-2.73,3.45S242.65,196,244.63,196Z" fill="#10426b"/><path d="M262.91,197.39h2.26l3.76,10.05h-2.3l-.76-2.24h-3.75l-.79,2.24h-2.24Zm-.22,6.17h2.61L264,199.87h0Z" fill="#10426b"/><path d="M269.8,197.39h4.33c2.61,0,4.56,1.63,4.56,5,0,2.91-1.49,5.08-4.56,5.08H269.8Zm2.21,8.19h2c1.28,0,2.5-.79,2.5-3,0-2-.7-3.32-2.89-3.32H272Z" fill="#10426b"/><path d="M287.49,206.3a3.41,3.41,0,0,1-2.76,1.38c-3.11,0-4.94-2.32-4.94-5.22s1.83-5.31,4.94-5.31A4,4,0,0,1,289,200.7h-2.11a2,2,0,0,0-2.12-1.69c-2,0-2.73,1.69-2.73,3.45s.75,3.36,2.73,3.36a2.18,2.18,0,0,0,2.39-2.17H284.9V202h4.22v5.43h-1.41Z" fill="#10426b"/><path d="M292.41,204.1c0,1.34,1,1.86,2.23,1.86.77,0,1.95-.22,1.95-1.25s-1.5-1.27-3-1.66-3-1-3-2.86c0-2.06,1.94-3,3.76-3,2.09,0,4,.91,4,3.24h-2.14c-.07-1.21-.93-1.52-2-1.52-.7,0-1.52.29-1.52,1.14s.48.87,3,1.52c.73.18,3,.64,3,2.93,0,1.84-1.45,3.22-4.18,3.22-2.22,0-4.3-1.1-4.28-3.58Z" fill="#10426b"/><path d="M304.58,207.44h-2v-6.39h-2.48v-1.51c1.39,0,2.67-.45,2.88-2h1.59Z" fill="#10426b"/><path d="M311.28,205.16h-4.16v-1.83l4.27-5.75h1.79v5.93h1.31v1.65h-1.31v2.28h-1.9Zm0-5.07h0l-2.55,3.42h2.59Z" fill="#10426b"/><path d="M320.23,207.44h-2v-6.39h-2.47v-1.51c1.39,0,2.67-.45,2.88-2h1.59Z" fill="#10426b"/><path d="M323.06,201.37c-.07-2.25,1.21-4,3.57-4a3.14,3.14,0,0,1,3.38,3.08,3.47,3.47,0,0,1-1.76,3,10.89,10.89,0,0,0-2.84,2.26h4.66v1.72h-7.24c0-2.28,1.41-3.25,3.11-4.41.88-.59,2.06-1.19,2.07-2.4a1.42,1.42,0,0,0-1.48-1.52c-1.18,0-1.56,1.22-1.56,2.26Z" fill="#10426b"/><rect x="415.44" y="87.93" width="126.99" height="126.54" fill="#fbc694" stroke="#10426b" stroke-linecap="round" stroke-linejoin="round" stroke-width="1.5"/><path d="M492.35,142.68c0,1.34,1,1.86,2.23,1.86.77,0,1.95-.23,1.95-1.26s-1.5-1.26-3-1.66-3-1-3-2.86c0-2,1.94-3,3.76-3,2.09,0,4,.92,4,3.24h-2.14c-.07-1.21-.93-1.52-2-1.52-.7,0-1.52.29-1.52,1.14s.48.87,3,1.52c.73.18,3,.65,3,2.93,0,1.84-1.45,3.22-4.18,3.22-2.22,0-4.3-1.09-4.28-3.57Z" fill="#10426b"/><path d="M500,136h4.53c2.5,0,3.47,1.59,3.47,3.22s-1,3.23-3.47,3.23h-2.32V146H500Zm2.21,4.73h1.71c1,0,1.94-.22,1.94-1.51s-.91-1.5-1.94-1.5h-1.71Z" fill="#10426b"/><path d="M509.36,136h2.21V146h-2.21Z" fill="#10426b"/><path d="M473.84,159.57c0,1.34,1,1.86,2.23,1.86.77,0,1.95-.22,1.95-1.25s-1.5-1.27-3-1.66-3-1-3-2.86c0-2.06,1.94-3,3.76-3,2.09,0,4,.92,4,3.24h-2.14c-.07-1.21-.93-1.52-2-1.52-.7,0-1.52.3-1.52,1.14s.48.88,3,1.52c.73.19,3,.65,3,2.93,0,1.85-1.45,3.23-4.18,3.23-2.22,0-4.3-1.1-4.28-3.58Z" fill="#10426b"/><path d="M488.08,162.91h-1.9v-1h0a2.61,2.61,0,0,1-2.22,1.21c-2.13,0-2.66-1.2-2.66-3v-4.48h2v4.11c0,1.2.35,1.79,1.28,1.79s1.54-.61,1.54-2.09v-3.81h2Z" fill="#10426b"/><path d="M489.6,152.85h2v3.67h0a2.67,2.67,0,0,1,2.29-1.09c1.45,0,3,1.17,3,3.83s-1.56,3.85-3,3.85a2.52,2.52,0,0,1-2.39-1.13h0v.93h-1.9Zm3.63,4.09c-1.18,0-1.7,1.11-1.7,2.34s.52,2.32,1.7,2.32,1.7-1.11,1.7-2.32S494.41,156.94,493.23,156.94Z" fill="#10426b"/><path d="M498.2,155.63h1.9v1h0a2.61,2.61,0,0,1,2.22-1.21c2.13,0,2.66,1.2,2.66,3v4.48h-2V158.8c0-1.2-.35-1.79-1.28-1.79s-1.54.6-1.54,2.08v3.82h-2Z" fill="#10426b"/><path d="M510.07,155.43a3.84,3.84,0,1,1-3.75,3.85A3.57,3.57,0,0,1,510.07,155.43Zm0,6.17c1.37,0,1.78-1.17,1.78-2.32s-.41-2.34-1.78-2.34-1.75,1.17-1.75,2.34S508.72,161.6,510.07,161.6Z" fill="#10426b"/><path d="M520.33,162h0a2.41,2.41,0,0,1-2.21,1.13c-2.19,0-3.26-1.89-3.26-3.9s1.08-3.78,3.22-3.78a2.52,2.52,0,0,1,2.16,1.09h0v-3.67h2v10.06h-1.9Zm-1.74-5c-1.31,0-1.76,1.12-1.76,2.32s.52,2.34,1.76,2.34,1.71-1.16,1.71-2.35S519.88,156.94,518.59,156.94Z" fill="#10426b"/><path d="M525.38,159.75c.06,1.27.68,1.85,1.79,1.85a1.66,1.66,0,0,0,1.58-.94h1.75a3.27,3.27,0,0,1-3.4,2.45,3.55,3.55,0,0,1-3.71-3.83,3.65,3.65,0,0,1,3.71-3.85c2.48,0,3.67,2.09,3.53,4.32Zm3.25-1.26c-.18-1-.62-1.55-1.59-1.55a1.58,1.58,0,0,0-1.66,1.55Z" fill="#10426b"/><path d="M422.85,138.49c0,1.34,1,1.86,2.22,1.86.78,0,2-.23,2-1.26s-1.51-1.26-3-1.66-3-1-3-2.86c0-2,1.94-3,3.76-3,2.09,0,4,.92,4,3.24h-2.14c-.07-1.21-.93-1.52-2-1.52-.71,0-1.52.3-1.52,1.14s.48.87,3,1.52c.74.18,3,.65,3,2.93,0,1.85-1.45,3.23-4.18,3.23-2.22,0-4.31-1.1-4.28-3.58Z" fill="#10426b"/><path d="M437.17,135.15a2.16,2.16,0,0,0-2.19-1.76c-2,0-2.73,1.69-2.73,3.45s.75,3.37,2.73,3.37a2.27,2.27,0,0,0,2.28-2.26h2.14a4.25,4.25,0,0,1-4.42,4.12c-3.11,0-4.94-2.33-4.94-5.23s1.83-5.31,4.94-5.31a4.08,4.08,0,0,1,4.33,3.62Z" fill="#10426b"/><path d="M440.9,131.77h2.21V140H448v1.86H440.9Z" fill="#10426b"/><path d="M449.25,131.77h2.21v4.17l3.92-4.17h2.76l-3.93,4,4.31,6.09h-2.77l-3-4.52-1.26,1.28v3.24h-2.21Z" fill="#10426b"/><path d="M422.85,169.52c0,1.34,1,1.86,2.22,1.86.78,0,2-.22,2-1.25s-1.51-1.27-3-1.66-3-1-3-2.86c0-2.06,1.94-3.05,3.76-3.05,2.09,0,4,.92,4,3.24h-2.14c-.07-1.21-.93-1.52-2-1.52-.71,0-1.52.3-1.52,1.14s.48.88,3,1.53c.74.18,3,.64,3,2.92,0,1.85-1.45,3.23-4.18,3.23-2.22,0-4.31-1.1-4.28-3.58Z" fill="#10426b"/><path d="M430.48,162.8h4.33c2.6,0,4.56,1.64,4.56,5,0,2.91-1.49,5.08-4.56,5.08h-4.33Zm2.21,8.2h2c1.29,0,2.51-.79,2.51-3,0-2-.7-3.33-2.9-3.33h-1.57Z" fill="#10426b"/><path d="M440.9,162.8h2.21v10.06H440.9Z" fill="#10426b"/><path d="M422.85,194.28c0,1.34,1,1.86,2.22,1.86.78,0,2-.22,2-1.25s-1.51-1.27-3-1.66-3-1-3-2.86c0-2.06,1.94-3.05,3.76-3.05,2.09,0,4,.92,4,3.24h-2.14c-.07-1.21-.93-1.52-2-1.52-.71,0-1.52.3-1.52,1.14s.48.88,3,1.52c.73.19,3,.65,3,2.93,0,1.85-1.45,3.23-4.18,3.23-2.22,0-4.31-1.1-4.28-3.58Z" fill="#10426b"/><path d="M430.48,187.56h4.33c2.6,0,4.56,1.64,4.56,5,0,2.92-1.49,5.09-4.56,5.09h-4.33Zm2.21,8.2h2c1.28,0,2.5-.79,2.5-3,0-2-.7-3.33-2.9-3.33h-1.57Z" fill="#10426b"/><path d="M445.41,187.32c3.11,0,4.93,2.33,4.93,5.31s-1.82,5.23-4.93,5.23-4.94-2.33-4.94-5.23S442.3,187.32,445.41,187.32Zm0,8.68c2,0,2.73-1.69,2.73-3.37s-.75-3.45-2.73-3.45-2.73,1.69-2.73,3.45S443.42,196,445.41,196Z" fill="#10426b"/><path d="M463.68,197.39h2.26l3.76,10.05h-2.29l-.76-2.24h-3.76l-.79,2.24h-2.23Zm-.21,6.17h2.6l-1.27-3.69h0Z" fill="#10426b"/><path d="M470.57,197.39h4.34c2.6,0,4.56,1.63,4.56,5,0,2.91-1.5,5.08-4.56,5.08h-4.34Zm2.21,8.19h2c1.28,0,2.51-.79,2.51-3,0-2-.71-3.32-2.9-3.32h-1.58Z" fill="#10426b"/><path d="M488.26,206.3a3.4,3.4,0,0,1-2.76,1.38c-3.11,0-4.94-2.32-4.94-5.22s1.83-5.31,4.94-5.31a4,4,0,0,1,4.24,3.55h-2.11A2.06,2.06,0,0,0,485.5,199c-2,0-2.73,1.69-2.73,3.45s.75,3.36,2.73,3.36a2.17,2.17,0,0,0,2.39-2.17h-2.22V202h4.22v5.43h-1.4Z" fill="#10426b"/><path d="M493.19,204.1c0,1.34,1,1.86,2.22,1.86.77,0,1.95-.22,1.95-1.25s-1.5-1.27-3-1.66-3-1-3-2.86c0-2.06,1.94-3,3.75-3,2.1,0,4,.91,4,3.24H497c-.07-1.21-.93-1.52-2-1.52-.7,0-1.52.29-1.52,1.14s.48.87,3,1.52c.73.18,3,.64,3,2.93,0,1.84-1.45,3.22-4.18,3.22-2.22,0-4.3-1.1-4.27-3.58Z" fill="#10426b"/><path d="M505.36,207.44h-2v-6.39h-2.48v-1.51c1.4,0,2.68-.45,2.89-2h1.59Z" fill="#10426b"/><path d="M512.06,205.16h-4.17v-1.83l4.28-5.75H514v5.93h1.3v1.65H514v2.28h-1.9Zm0-5.07h0l-2.54,3.42h2.59Z" fill="#10426b"/><path d="M521,207.44h-2v-6.39h-2.48v-1.51c1.39,0,2.67-.45,2.88-2H521Z" fill="#10426b"/><path d="M523.83,201.37c-.07-2.25,1.21-4,3.58-4a3.13,3.13,0,0,1,3.37,3.08,3.45,3.45,0,0,1-1.76,3,10.89,10.89,0,0,0-2.84,2.26h4.66v1.72h-7.23c0-2.28,1.4-3.25,3.11-4.41.87-.59,2-1.19,2.07-2.4a1.42,1.42,0,0,0-1.48-1.52c-1.18,0-1.56,1.22-1.56,2.26Z" fill="#10426b"/><path d="M42,45.59c0,1.34,1,1.86,2.23,1.86.77,0,1.95-.23,1.95-1.26s-1.5-1.26-3-1.66-3-1-3-2.86c0-2.05,1.94-3,3.76-3,2.09,0,4,.92,4,3.24H45.82c-.07-1.21-.92-1.52-2-1.52-.7,0-1.52.29-1.52,1.14s.48.87,3,1.52c.73.18,3,.65,3,2.93,0,1.84-1.45,3.22-4.18,3.22-2.22,0-4.3-1.09-4.28-3.57Z" fill="#10426b"/><path d="M49.61,38.87h4.53c2.5,0,3.47,1.59,3.47,3.22s-1,3.23-3.47,3.23H51.82v3.61H49.61Zm2.21,4.73h1.71c1,0,1.95-.22,1.95-1.51s-.92-1.5-1.95-1.5H51.82Z" fill="#10426b"/><path d="M59,38.87H61.2V48.93H59Z" fill="#10426b"/><path d="M35.4,55.76h3.11l2.35,6.92h0l2.22-6.92h3.11V65.82H44.16V58.69h0l-2.46,7.13H40L37.5,58.76h0v7.06H35.4Z" fill="#10426b"/><path d="M47.87,60.78c.11-1.88,1.79-2.44,3.42-2.44,1.45,0,3.19.32,3.19,2.07V64.2a3.63,3.63,0,0,0,.26,1.62h-2a2.9,2.9,0,0,1-.14-.7,3.33,3.33,0,0,1-2.45.9c-1.38,0-2.47-.69-2.47-2.19s1.23-2,2.47-2.21,2.37-.14,2.37-1-.59-1-1.3-1-1.25.31-1.32,1.1Zm4.62,1.48a4.07,4.07,0,0,1-1.66.42c-.62.13-1.19.34-1.19,1.07s.58.93,1.23.93A1.49,1.49,0,0,0,52.49,63Z" fill="#10426b"/><path d="M58.09,57.41h-2V55.76h2Zm-2,1.13h2v7.28h-2Z" fill="#10426b"/><path d="M59.66,58.54h1.9v1h0a2.62,2.62,0,0,1,2.23-1.21c2.12,0,2.66,1.2,2.66,3v4.48h-2V61.71c0-1.2-.35-1.79-1.28-1.79s-1.55.6-1.55,2.08v3.82h-2Z" fill="#10426b"/><polyline points="214.66 192.81 192 192.81 192 334.8" fill="none" stroke="#10426b" stroke-miterlimit="10" stroke-width="1.5"/><polyline points="214.66 168.31 174.43 168.31 174.43 310.3" fill="none" stroke="#10426b" stroke-miterlimit="10" stroke-width="1.5"/><polyline points="214.66 136.44 157.43 136.44 157.43 278.44" fill="none" stroke="#10426b" stroke-miterlimit="10" stroke-width="1.5"/><polygon points="401.94 140.43 415.44 136.81 401.94 133.19 401.94 140.43" fill="#10426b"/><polygon points="401.94 171.93 415.44 168.31 401.94 164.69 401.94 171.93" fill="#10426b"/><polygon points="406.27 189.19 392.77 192.81 406.27 196.43 406.27 189.19" fill="#10426b"/><polyline points="415.44 192.81 392.77 192.81 392.77 334.8" fill="none" stroke="#10426b" stroke-miterlimit="10" stroke-width="1.5"/><polyline points="415.44 168.31 375.2 168.31 375.2 310.3" fill="none" stroke="#10426b" stroke-miterlimit="10" stroke-width="1.5"/><polyline points="415.44 136.44 358.2 136.44 358.2 278.44" fill="none" stroke="#10426b" stroke-miterlimit="10" stroke-width="1.5"/><rect x="615.44" y="87.93" width="126.99" height="126.54" fill="#fbc694" stroke="#10426b" stroke-linecap="round" stroke-linejoin="round" stroke-width="1.5"/><path d="M692.35,142.68c0,1.34,1,1.86,2.23,1.86.77,0,1.95-.23,1.95-1.26s-1.5-1.26-3-1.66-3-1-3-2.86c0-2,1.94-3,3.76-3,2.09,0,4,.92,4,3.24h-2.14c-.07-1.21-.93-1.52-2-1.52-.7,0-1.52.29-1.52,1.14s.48.87,3,1.52c.73.18,3,.65,3,2.93,0,1.84-1.45,3.22-4.18,3.22-2.22,0-4.3-1.09-4.28-3.57Z" fill="#10426b"/><path d="M700,136h4.53c2.5,0,3.47,1.59,3.47,3.22s-1,3.23-3.47,3.23h-2.32V146H700Zm2.21,4.73h1.71c1,0,1.94-.22,1.94-1.51s-.91-1.5-1.94-1.5h-1.71Z" fill="#10426b"/><path d="M709.36,136h2.21V146h-2.21Z" fill="#10426b"/><path d="M673.84,159.57c0,1.34,1,1.86,2.23,1.86.77,0,1.95-.22,1.95-1.25s-1.5-1.27-3-1.66-3-1-3-2.86c0-2.06,1.94-3,3.76-3,2.09,0,4,.92,4,3.24h-2.14c-.07-1.21-.93-1.52-2-1.52-.7,0-1.52.3-1.52,1.14s.48.88,3,1.52c.73.19,3,.65,3,2.93,0,1.85-1.45,3.23-4.18,3.23-2.22,0-4.3-1.1-4.28-3.58Z" fill="#10426b"/><path d="M688.08,162.91h-1.9v-1h0a2.61,2.61,0,0,1-2.22,1.21c-2.13,0-2.66-1.2-2.66-3v-4.48h2v4.11c0,1.2.35,1.79,1.28,1.79,1.08,0,1.54-.61,1.54-2.09v-3.81h2Z" fill="#10426b"/><path d="M689.6,152.85h2v3.67h0a2.67,2.67,0,0,1,2.29-1.09c1.45,0,3,1.17,3,3.83s-1.56,3.85-3,3.85a2.52,2.52,0,0,1-2.39-1.13h0v.93h-1.9Zm3.63,4.09c-1.18,0-1.7,1.11-1.7,2.34s.52,2.32,1.7,2.32,1.7-1.11,1.7-2.32S694.41,156.94,693.23,156.94Z" fill="#10426b"/><path d="M698.2,155.63h1.9v1h0a2.61,2.61,0,0,1,2.22-1.21c2.13,0,2.66,1.2,2.66,3v4.48h-2V158.8c0-1.2-.35-1.79-1.28-1.79-1.08,0-1.54.6-1.54,2.08v3.82h-2Z" fill="#10426b"/><path d="M710.07,155.43a3.84,3.84,0,1,1-3.75,3.85A3.57,3.57,0,0,1,710.07,155.43Zm0,6.17c1.37,0,1.78-1.17,1.78-2.32s-.41-2.34-1.78-2.34-1.75,1.17-1.75,2.34S708.72,161.6,710.07,161.6Z" fill="#10426b"/><path d="M720.33,162h0a2.41,2.41,0,0,1-2.21,1.13c-2.19,0-3.26-1.89-3.26-3.9s1.08-3.78,3.22-3.78a2.52,2.52,0,0,1,2.16,1.09h0v-3.67h2v10.06h-1.9Zm-1.74-5c-1.31,0-1.76,1.12-1.76,2.32s.52,2.34,1.76,2.34,1.71-1.16,1.71-2.35S719.88,156.94,718.59,156.94Z" fill="#10426b"/><path d="M725.38,159.75c.06,1.27.68,1.85,1.79,1.85a1.66,1.66,0,0,0,1.58-.94h1.75a3.27,3.27,0,0,1-3.4,2.45,3.55,3.55,0,0,1-3.71-3.83,3.65,3.65,0,0,1,3.71-3.85c2.48,0,3.67,2.09,3.53,4.32Zm3.25-1.26c-.18-1-.62-1.55-1.59-1.55a1.58,1.58,0,0,0-1.66,1.55Z" fill="#10426b"/><path d="M622.85,138.49c0,1.34,1,1.86,2.22,1.86.78,0,2-.23,2-1.26s-1.51-1.26-3-1.66-3-1-3-2.86c0-2,1.94-3,3.76-3,2.09,0,4,.92,4,3.24h-2.14c-.07-1.21-.93-1.52-2-1.52-.71,0-1.52.3-1.52,1.14s.48.87,3,1.52c.74.18,3,.65,3,2.93,0,1.85-1.45,3.23-4.18,3.23-2.22,0-4.31-1.1-4.28-3.58Z" fill="#10426b"/><path d="M637.17,135.15a2.16,2.16,0,0,0-2.19-1.76c-2,0-2.73,1.69-2.73,3.45s.75,3.37,2.73,3.37a2.27,2.27,0,0,0,2.28-2.26h2.14a4.25,4.25,0,0,1-4.42,4.12c-3.11,0-4.94-2.33-4.94-5.23s1.83-5.31,4.94-5.31a4.08,4.08,0,0,1,4.33,3.62Z" fill="#10426b"/><path d="M640.9,131.77h2.21V140H648v1.86H640.9Z" fill="#10426b"/><path d="M649.25,131.77h2.21v4.17l3.92-4.17h2.76l-3.93,4,4.31,6.09h-2.77l-3-4.52-1.26,1.28v3.24h-2.21Z" fill="#10426b"/><path d="M622.85,169.52c0,1.34,1,1.86,2.22,1.86.78,0,2-.22,2-1.25s-1.51-1.27-3-1.66-3-1-3-2.86c0-2.06,1.94-3.05,3.76-3.05,2.09,0,4,.92,4,3.24h-2.14c-.07-1.21-.93-1.52-2-1.52-.71,0-1.52.3-1.52,1.14s.48.88,3,1.53c.74.18,3,.64,3,2.92,0,1.85-1.45,3.23-4.18,3.23-2.22,0-4.31-1.1-4.28-3.58Z" fill="#10426b"/><path d="M630.48,162.8h4.33c2.6,0,4.56,1.64,4.56,5,0,2.91-1.49,5.08-4.56,5.08h-4.33Zm2.21,8.2h2c1.28,0,2.5-.79,2.5-3,0-2-.7-3.33-2.9-3.33h-1.57Z" fill="#10426b"/><path d="M640.9,162.8h2.21v10.06H640.9Z" fill="#10426b"/><path d="M622.85,194.28c0,1.34,1,1.86,2.22,1.86.78,0,2-.22,2-1.25s-1.51-1.27-3-1.66-3-1-3-2.86c0-2.06,1.94-3.05,3.76-3.05,2.09,0,4,.92,4,3.24h-2.14c-.07-1.21-.93-1.52-2-1.52-.71,0-1.52.3-1.52,1.14s.48.88,3,1.52c.74.19,3,.65,3,2.93,0,1.85-1.45,3.23-4.18,3.23-2.22,0-4.31-1.1-4.28-3.58Z" fill="#10426b"/><path d="M630.48,187.56h4.33c2.6,0,4.56,1.64,4.56,5,0,2.92-1.49,5.09-4.56,5.09h-4.33Zm2.21,8.2h2c1.28,0,2.5-.79,2.5-3,0-2-.7-3.33-2.9-3.33h-1.57Z" fill="#10426b"/><path d="M645.41,187.32c3.1,0,4.93,2.33,4.93,5.31s-1.83,5.23-4.93,5.23-4.94-2.33-4.94-5.23S642.3,187.32,645.41,187.32Zm0,8.68c2,0,2.72-1.69,2.72-3.37s-.74-3.45-2.72-3.45-2.73,1.69-2.73,3.45S643.42,196,645.41,196Z" fill="#10426b"/><path d="M663.68,197.39H666l3.75,10.05h-2.29l-.76-2.24h-3.76l-.79,2.24h-2.23Zm-.21,6.17h2.6l-1.26-3.69h0Z" fill="#10426b"/><path d="M670.58,197.39h4.33c2.6,0,4.56,1.63,4.56,5,0,2.91-1.49,5.08-4.56,5.08h-4.33Zm2.2,8.19h2c1.28,0,2.51-.79,2.51-3,0-2-.71-3.32-2.9-3.32h-1.58Z" fill="#10426b"/><path d="M688.26,206.3a3.4,3.4,0,0,1-2.76,1.38c-3.11,0-4.93-2.32-4.93-5.22s1.82-5.31,4.93-5.31a4,4,0,0,1,4.24,3.55h-2.11A2.06,2.06,0,0,0,685.5,199c-2,0-2.73,1.69-2.73,3.45s.75,3.36,2.73,3.36a2.18,2.18,0,0,0,2.4-2.17h-2.23V202h4.22v5.43h-1.4Z" fill="#10426b"/><path d="M693.19,204.1c0,1.34,1,1.86,2.22,1.86.77,0,2-.22,2-1.25s-1.51-1.27-3-1.66-3-1-3-2.86c0-2.06,1.94-3,3.75-3,2.1,0,4,.91,4,3.24H697c-.07-1.21-.93-1.52-2-1.52-.7,0-1.52.29-1.52,1.14s.48.87,3,1.52c.73.18,3,.64,3,2.93,0,1.84-1.45,3.22-4.17,3.22-2.23,0-4.31-1.1-4.28-3.58Z" fill="#10426b"/><path d="M705.36,207.44h-2v-6.39h-2.48v-1.51c1.4,0,2.68-.45,2.89-2h1.59Z" fill="#10426b"/><path d="M712.06,205.16h-4.17v-1.83l4.28-5.75H714v5.93h1.3v1.65H714v2.28h-1.9Zm0-5.07h0l-2.54,3.42h2.59Z" fill="#10426b"/><path d="M721,207.44h-2v-6.39h-2.48v-1.51c1.39,0,2.67-.45,2.88-2H721Z" fill="#10426b"/><path d="M723.83,201.37c-.07-2.25,1.21-4,3.58-4a3.13,3.13,0,0,1,3.37,3.08,3.45,3.45,0,0,1-1.76,3,10.89,10.89,0,0,0-2.84,2.26h4.66v1.72h-7.23c0-2.28,1.4-3.25,3.11-4.41.87-.59,2-1.19,2.07-2.4a1.42,1.42,0,0,0-1.48-1.52c-1.18,0-1.56,1.22-1.56,2.26Z" fill="#10426b"/><polygon points="601.94 140.43 615.44 136.81 601.94 133.19 601.94 140.43" fill="#10426b"/><polygon points="601.94 171.93 615.44 168.31 601.94 164.69 601.94 171.93" fill="#10426b"/><polygon points="606.27 189.19 592.77 192.81 606.27 196.43 606.27 189.19" fill="#10426b"/><polyline points="615.44 192.81 592.77 192.81 592.77 334.8" fill="none" stroke="#10426b" stroke-miterlimit="10" stroke-width="1.5"/><polyline points="615.44 168.31 575.2 168.31 575.2 310.3" fill="none" stroke="#10426b" stroke-miterlimit="10" stroke-width="1.5"/><polyline points="615.44 136.44 558.2 136.44 558.2 278.44" fill="none" stroke="#10426b" stroke-miterlimit="10" stroke-width="1.5"/><rect x="815.44" y="87.93" width="126.99" height="126.54" fill="#fbc694" stroke="#10426b" stroke-linecap="round" stroke-linejoin="round" stroke-width="1.5"/><path d="M892.35,142.68c0,1.34,1,1.86,2.23,1.86.77,0,1.95-.23,1.95-1.26s-1.5-1.26-3-1.66-3-1-3-2.86c0-2,1.94-3,3.76-3,2.09,0,4,.92,4,3.24h-2.14c-.07-1.21-.93-1.52-2-1.52-.7,0-1.52.29-1.52,1.14s.48.87,3,1.52c.73.18,3,.65,3,2.93,0,1.84-1.45,3.22-4.18,3.22-2.22,0-4.3-1.09-4.28-3.57Z" fill="#10426b"/><path d="M900,136h4.53c2.5,0,3.47,1.59,3.47,3.22s-1,3.23-3.47,3.23h-2.32V146H900Zm2.21,4.73h1.71c1,0,1.94-.22,1.94-1.51s-.91-1.5-1.94-1.5h-1.71Z" fill="#10426b"/><path d="M909.36,136h2.21V146h-2.21Z" fill="#10426b"/><path d="M873.84,159.57c0,1.34,1,1.86,2.23,1.86.77,0,1.95-.22,1.95-1.25s-1.5-1.27-3-1.66-3-1-3-2.86c0-2.06,1.94-3,3.76-3,2.09,0,4,.92,4,3.24h-2.14c-.07-1.21-.93-1.52-2-1.52-.7,0-1.52.3-1.52,1.14s.48.88,3,1.52c.73.19,3,.65,3,2.93,0,1.85-1.45,3.23-4.18,3.23-2.22,0-4.3-1.1-4.28-3.58Z" fill="#10426b"/><path d="M888.08,162.91h-1.9v-1h0a2.61,2.61,0,0,1-2.22,1.21c-2.13,0-2.66-1.2-2.66-3v-4.48h2v4.11c0,1.2.35,1.79,1.28,1.79,1.08,0,1.54-.61,1.54-2.09v-3.81h2Z" fill="#10426b"/><path d="M889.6,152.85h2v3.67h0a2.67,2.67,0,0,1,2.29-1.09c1.45,0,3,1.17,3,3.83s-1.56,3.85-3,3.85a2.52,2.52,0,0,1-2.39-1.13h0v.93h-1.9Zm3.63,4.09c-1.18,0-1.7,1.11-1.7,2.34s.52,2.32,1.7,2.32,1.7-1.11,1.7-2.32S894.41,156.94,893.23,156.94Z" fill="#10426b"/><path d="M898.2,155.63h1.9v1h0a2.61,2.61,0,0,1,2.22-1.21c2.13,0,2.66,1.2,2.66,3v4.48h-2V158.8c0-1.2-.35-1.79-1.28-1.79-1.08,0-1.54.6-1.54,2.08v3.82h-2Z" fill="#10426b"/><path d="M910.07,155.43a3.84,3.84,0,1,1-3.75,3.85A3.57,3.57,0,0,1,910.07,155.43Zm0,6.17c1.37,0,1.78-1.17,1.78-2.32s-.41-2.34-1.78-2.34-1.75,1.17-1.75,2.34S908.72,161.6,910.07,161.6Z" fill="#10426b"/><path d="M920.33,162h0a2.41,2.41,0,0,1-2.21,1.13c-2.19,0-3.26-1.89-3.26-3.9s1.08-3.78,3.22-3.78a2.52,2.52,0,0,1,2.16,1.09h0v-3.67h2v10.06h-1.9Zm-1.74-5c-1.31,0-1.76,1.12-1.76,2.32s.52,2.34,1.76,2.34,1.71-1.16,1.71-2.35S919.88,156.94,918.59,156.94Z" fill="#10426b"/><path d="M925.38,159.75c.06,1.27.68,1.85,1.79,1.85a1.66,1.66,0,0,0,1.58-.94h1.75a3.27,3.27,0,0,1-3.4,2.45,3.55,3.55,0,0,1-3.71-3.83,3.65,3.65,0,0,1,3.71-3.85c2.48,0,3.67,2.09,3.53,4.32Zm3.25-1.26c-.18-1-.62-1.55-1.59-1.55a1.58,1.58,0,0,0-1.66,1.55Z" fill="#10426b"/><path d="M822.85,138.49c0,1.34,1,1.86,2.22,1.86.78,0,2-.23,2-1.26s-1.51-1.26-3-1.66-3-1-3-2.86c0-2,1.94-3,3.76-3,2.09,0,4,.92,4,3.24h-2.14c-.07-1.21-.93-1.52-2-1.52-.71,0-1.52.3-1.52,1.14s.48.87,3,1.52c.74.18,3,.65,3,2.93,0,1.85-1.45,3.23-4.18,3.23-2.22,0-4.31-1.1-4.28-3.58Z" fill="#10426b"/><path d="M837.17,135.15a2.16,2.16,0,0,0-2.19-1.76c-2,0-2.73,1.69-2.73,3.45s.75,3.37,2.73,3.37a2.27,2.27,0,0,0,2.28-2.26h2.14a4.25,4.25,0,0,1-4.42,4.12c-3.11,0-4.94-2.33-4.94-5.23s1.83-5.31,4.94-5.31a4.08,4.08,0,0,1,4.33,3.62Z" fill="#10426b"/><path d="M840.9,131.77h2.21V140H848v1.86H840.9Z" fill="#10426b"/><path d="M849.25,131.77h2.21v4.17l3.92-4.17h2.76l-3.93,4,4.31,6.09h-2.77l-3-4.52-1.26,1.28v3.24h-2.21Z" fill="#10426b"/><path d="M822.85,169.52c0,1.34,1,1.86,2.22,1.86.78,0,2-.22,2-1.25s-1.51-1.27-3-1.66-3-1-3-2.86c0-2.06,1.94-3.05,3.76-3.05,2.09,0,4,.92,4,3.24h-2.14c-.07-1.21-.93-1.52-2-1.52-.71,0-1.52.3-1.52,1.14s.48.88,3,1.53c.74.18,3,.64,3,2.92,0,1.85-1.45,3.23-4.18,3.23-2.22,0-4.31-1.1-4.28-3.58Z" fill="#10426b"/><path d="M830.48,162.8h4.33c2.6,0,4.56,1.64,4.56,5,0,2.91-1.49,5.08-4.56,5.08h-4.33Zm2.21,8.2h2c1.28,0,2.5-.79,2.5-3,0-2-.7-3.33-2.9-3.33h-1.57Z" fill="#10426b"/><path d="M840.9,162.8h2.21v10.06H840.9Z" fill="#10426b"/><path d="M822.85,194.28c0,1.34,1,1.86,2.22,1.86.78,0,2-.22,2-1.25s-1.51-1.27-3-1.66-3-1-3-2.86c0-2.06,1.94-3.05,3.76-3.05,2.09,0,4,.92,4,3.24h-2.14c-.07-1.21-.93-1.52-2-1.52-.71,0-1.52.3-1.52,1.14s.48.88,3,1.52c.74.19,3,.65,3,2.93,0,1.85-1.45,3.23-4.18,3.23-2.22,0-4.31-1.1-4.28-3.58Z" fill="#10426b"/><path d="M830.48,187.56h4.33c2.6,0,4.56,1.64,4.56,5,0,2.92-1.49,5.09-4.56,5.09h-4.33Zm2.21,8.2h2c1.28,0,2.5-.79,2.5-3,0-2-.7-3.33-2.9-3.33h-1.57Z" fill="#10426b"/><path d="M845.41,187.32c3.1,0,4.93,2.33,4.93,5.31s-1.83,5.23-4.93,5.23-4.94-2.33-4.94-5.23S842.3,187.32,845.41,187.32Zm0,8.68c2,0,2.72-1.69,2.72-3.37s-.74-3.45-2.72-3.45-2.73,1.69-2.73,3.45S843.42,196,845.41,196Z" fill="#10426b"/><path d="M863.68,197.39H866l3.75,10.05h-2.29l-.76-2.24h-3.76l-.79,2.24h-2.23Zm-.21,6.17h2.6l-1.26-3.69h0Z" fill="#10426b"/><path d="M870.58,197.39h4.33c2.6,0,4.56,1.63,4.56,5,0,2.91-1.49,5.08-4.56,5.08h-4.33Zm2.2,8.19h2c1.28,0,2.51-.79,2.51-3,0-2-.71-3.32-2.9-3.32h-1.58Z" fill="#10426b"/><path d="M888.26,206.3a3.4,3.4,0,0,1-2.76,1.38c-3.11,0-4.93-2.32-4.93-5.22s1.82-5.31,4.93-5.31a4,4,0,0,1,4.24,3.55h-2.11A2.06,2.06,0,0,0,885.5,199c-2,0-2.73,1.69-2.73,3.45s.75,3.36,2.73,3.36a2.18,2.18,0,0,0,2.4-2.17h-2.23V202h4.22v5.43h-1.4Z" fill="#10426b"/><path d="M893.19,204.1c0,1.34,1,1.86,2.22,1.86.77,0,2-.22,2-1.25s-1.51-1.27-3-1.66-3-1-3-2.86c0-2.06,1.94-3,3.75-3,2.1,0,4,.91,4,3.24H897c-.07-1.21-.93-1.52-2-1.52-.7,0-1.52.29-1.52,1.14s.48.87,3,1.52c.73.18,3,.64,3,2.93,0,1.84-1.45,3.22-4.17,3.22-2.23,0-4.31-1.1-4.28-3.58Z" fill="#10426b"/><path d="M905.36,207.44h-2v-6.39h-2.48v-1.51c1.4,0,2.68-.45,2.89-2h1.59Z" fill="#10426b"/><path d="M912.06,205.16h-4.17v-1.83l4.28-5.75H914v5.93h1.3v1.65H914v2.28h-1.9Zm0-5.07h0l-2.54,3.42h2.59Z" fill="#10426b"/><path d="M921,207.44h-2v-6.39h-2.48v-1.51c1.39,0,2.67-.45,2.88-2H921Z" fill="#10426b"/><path d="M923.83,201.37c-.07-2.25,1.21-4,3.58-4a3.13,3.13,0,0,1,3.37,3.08,3.45,3.45,0,0,1-1.76,3,10.89,10.89,0,0,0-2.84,2.26h4.66v1.72h-7.23c0-2.28,1.4-3.25,3.11-4.41.87-.59,2-1.19,2.07-2.4a1.42,1.42,0,0,0-1.48-1.52c-1.18,0-1.56,1.22-1.56,2.26Z" fill="#10426b"/><polygon points="801.94 140.43 815.44 136.81 801.94 133.19 801.94 140.43" fill="#10426b"/><polygon points="801.94 171.93 815.44 168.31 801.94 164.69 801.94 171.93" fill="#10426b"/><polygon points="806.27 189.19 792.77 192.81 806.27 196.43 806.27 189.19" fill="#10426b"/><polyline points="815.44 192.81 792.77 192.81 792.77 334.8" fill="none" stroke="#10426b" stroke-miterlimit="10" stroke-width="1.5"/><polyline points="815.44 168.31 775.2 168.31 775.2 310.3" fill="none" stroke="#10426b" stroke-miterlimit="10" stroke-width="1.5"/><polyline points="815.44 136.44 758.2 136.44 758.2 278.44" fill="none" stroke="#10426b" stroke-miterlimit="10" stroke-width="1.5"/><polyline points="129.93 64.33 478.93 64.33 478.93 78.33" fill="none" stroke="#10426b" stroke-miterlimit="10" stroke-width="1.5"/><polyline points="129.93 41.92 678.93 41.92 678.93 78.33" fill="none" stroke="#10426b" stroke-miterlimit="10" stroke-width="1.5"/><polyline points="129.93 17.97 878.93 17.97 878.93 78.33" fill="none" stroke="#10426b" stroke-miterlimit="10" stroke-width="1.5"/><polygon points="475.31 74.43 478.93 87.92 482.55 74.43 475.31 74.43" fill="#10426b"/><polygon points="675.32 74.43 678.93 87.92 682.55 74.43 675.32 74.43" fill="#10426b"/><polygon points="875.32 74.43 878.93 87.92 882.55 74.43 875.32 74.43" fill="#10426b"/><line x1="758.2" y1="279.32" x2="129.93" y2="279.32" fill="none" stroke="#10426b" stroke-miterlimit="10" stroke-width="1.5"/><line x1="778.08" y1="311.15" x2="129.93" y2="311.15" fill="none" stroke="#10426b" stroke-miterlimit="10" stroke-width="1.5"/><line x1="793.87" y1="334.8" x2="129.93" y2="334.8" fill="none" stroke="#10426b" stroke-miterlimit="10" stroke-width="1.5"/><line x1="201.17" y1="106.14" x2="129.93" y2="106.14" fill="none" stroke="#10426b" stroke-miterlimit="10" stroke-width="1.5"/><path d="M107.07,17.34a2.17,2.17,0,0,0-2.2-1.76c-2,0-2.73,1.69-2.73,3.45s.75,3.36,2.73,3.36a2.27,2.27,0,0,0,2.28-2.25h2.14a4.23,4.23,0,0,1-4.42,4.11c-3.11,0-4.93-2.32-4.93-5.22s1.82-5.31,4.93-5.31a4.08,4.08,0,0,1,4.34,3.62Z" fill="#10426b"/><path d="M112.3,20.67c0,1.34,1,1.86,2.23,1.86.77,0,2-.22,2-1.25s-1.5-1.27-3-1.66-3-1-3-2.86c0-2.06,1.94-3,3.76-3,2.1,0,4,.91,4,3.24h-2.13c-.08-1.22-.93-1.53-2-1.53-.7,0-1.52.3-1.52,1.14s.48.88,3,1.53c.73.18,3,.64,3,2.93,0,1.84-1.45,3.22-4.18,3.22-2.22,0-4.3-1.1-4.27-3.58Z" fill="#10426b"/><path d="M123.35,21.73h-4.16V19.9l4.27-5.75h1.79v5.93h1.31v1.65h-1.31V24h-1.9Zm0-5.07h0l-2.55,3.42h2.59Z" fill="#10426b"/><line x1="100.53" y1="11.93" x2="125.73" y2="11.93" fill="none" stroke="#10426b" stroke-miterlimit="10"/><path d="M107.07,41.29a2.17,2.17,0,0,0-2.2-1.76c-2,0-2.73,1.69-2.73,3.45s.75,3.36,2.73,3.36a2.27,2.27,0,0,0,2.28-2.25h2.14a4.23,4.23,0,0,1-4.42,4.11c-3.11,0-4.93-2.32-4.93-5.22s1.82-5.31,4.93-5.31a4.08,4.08,0,0,1,4.34,3.62Z" fill="#10426b"/><path d="M112.3,44.63c0,1.33,1,1.85,2.23,1.85.77,0,2-.22,2-1.25s-1.5-1.27-3-1.66-3-1-3-2.86c0-2.06,1.94-3,3.76-3,2.1,0,4,.91,4,3.24h-2.13c-.08-1.21-.93-1.52-2-1.52-.7,0-1.52.29-1.52,1.14s.48.87,3,1.52c.73.18,3,.65,3,2.93,0,1.84-1.45,3.22-4.18,3.22-2.22,0-4.3-1.1-4.27-3.57Z" fill="#10426b"/><path d="M122.17,42.09c.86.07,2.09-.1,2.09-1.22a1.3,1.3,0,0,0-1.39-1.31c-1,0-1.53.74-1.52,1.76h-1.9a3.28,3.28,0,0,1,3.41-3.41c1.57,0,3.3,1,3.3,2.73a2,2,0,0,1-1.38,2v0a2.2,2.2,0,0,1,1.75,2.24c0,2.07-1.73,3.24-3.66,3.24a3.34,3.34,0,0,1-3.66-3.59h1.9c0,1.07.58,1.94,1.73,1.94A1.53,1.53,0,0,0,124.45,45c0-1.49-1.31-1.46-2.28-1.46Z" fill="#10426b"/><line x1="100.53" y1="35.89" x2="125.73" y2="35.89" fill="none" stroke="#10426b" stroke-miterlimit="10"/><path d="M107.07,63.7a2.17,2.17,0,0,0-2.2-1.76c-2,0-2.73,1.69-2.73,3.45s.75,3.36,2.73,3.36a2.27,2.27,0,0,0,2.28-2.25h2.14a4.23,4.23,0,0,1-4.42,4.11c-3.11,0-4.93-2.32-4.93-5.22s1.82-5.31,4.93-5.31a4.08,4.08,0,0,1,4.34,3.62Z" fill="#10426b"/><path d="M112.3,67c0,1.34,1,1.86,2.23,1.86.77,0,2-.22,2-1.25s-1.5-1.27-3-1.66-3-1-3-2.86c0-2.06,1.94-3,3.76-3,2.1,0,4,.91,4,3.24h-2.13c-.08-1.21-.93-1.52-2-1.52-.7,0-1.52.29-1.52,1.14s.48.87,3,1.52c.73.18,3,.65,3,2.93,0,1.84-1.45,3.22-4.18,3.22-2.22,0-4.3-1.1-4.27-3.58Z" fill="#10426b"/><path d="M119.48,64.3c-.07-2.25,1.21-4,3.57-4a3.14,3.14,0,0,1,3.38,3.08,3.47,3.47,0,0,1-1.76,3,10.89,10.89,0,0,0-2.84,2.26h4.66v1.72h-7.23c0-2.28,1.4-3.25,3.1-4.41.88-.59,2.06-1.19,2.07-2.4A1.43,1.43,0,0,0,123,62c-1.19,0-1.57,1.23-1.57,2.27Z" fill="#10426b"/><line x1="100.53" y1="58.3" x2="125.73" y2="58.3" fill="none" stroke="#10426b" stroke-miterlimit="10"/><path d="M107.07,105.5a2.17,2.17,0,0,0-2.2-1.76c-2,0-2.73,1.69-2.73,3.45s.75,3.37,2.73,3.37a2.27,2.27,0,0,0,2.28-2.25h2.14a4.24,4.24,0,0,1-4.42,4.11c-3.11,0-4.93-2.32-4.93-5.23s1.82-5.31,4.93-5.31a4.09,4.09,0,0,1,4.34,3.62Z" fill="#10426b"/><path d="M112.3,108.84c0,1.34,1,1.86,2.23,1.86.77,0,2-.22,2-1.25s-1.5-1.27-3-1.66-3-1-3-2.86c0-2.06,1.94-3.05,3.76-3.05,2.1,0,4,.92,4,3.24h-2.13c-.08-1.21-.93-1.52-2-1.52-.7,0-1.52.3-1.52,1.14s.48.88,3,1.53c.73.18,3,.64,3,2.92,0,1.85-1.45,3.23-4.18,3.23-2.22,0-4.3-1.1-4.27-3.58Z" fill="#10426b"/><path d="M124.47,112.18h-2v-6.39H120v-1.51c1.39,0,2.67-.45,2.89-2h1.58Z" fill="#10426b"/><line x1="100.53" y1="100.1" x2="125.73" y2="100.1" fill="none" stroke="#10426b" stroke-miterlimit="10"/><path d="M227.27,105.5a2.17,2.17,0,0,0-2.2-1.76c-2,0-2.73,1.69-2.73,3.45s.75,3.37,2.73,3.37a2.27,2.27,0,0,0,2.28-2.25h2.14a4.24,4.24,0,0,1-4.42,4.11c-3.11,0-4.93-2.32-4.93-5.23s1.82-5.31,4.93-5.31a4.09,4.09,0,0,1,4.34,3.62Z" fill="#10426b"/><path d="M232.5,108.84c0,1.34,1.05,1.86,2.23,1.86.77,0,2-.22,2-1.25s-1.5-1.27-3-1.66-3-1-3-2.86c0-2.06,2-3.05,3.76-3.05,2.1,0,4,.92,4,3.24h-2.13c-.08-1.21-.93-1.52-2-1.52-.7,0-1.52.3-1.52,1.14s.48.88,3,1.52c.73.19,3,.65,3,2.93,0,1.85-1.45,3.23-4.18,3.23-2.22,0-4.3-1.1-4.27-3.58Z" fill="#10426b"/><line x1="220.73" y1="100.1" x2="238.72" y2="100.1" fill="none" stroke="#10426b" stroke-miterlimit="10"/><path d="M477,98.06a2.17,2.17,0,0,0-2.19-1.76c-2,0-2.73,1.69-2.73,3.45s.74,3.36,2.73,3.36a2.27,2.27,0,0,0,2.28-2.25h2.13a4.23,4.23,0,0,1-4.41,4.11c-3.11,0-4.94-2.32-4.94-5.22s1.83-5.31,4.94-5.31a4.07,4.07,0,0,1,4.33,3.62Z" fill="#10426b"/><path d="M482.28,101.4c0,1.33,1,1.85,2.22,1.85.77,0,2-.22,2-1.25s-1.51-1.27-3-1.66-3-1-3-2.86c0-2.06,1.94-3,3.75-3,2.1,0,4,.91,4,3.24h-2.14c-.07-1.21-.93-1.52-2-1.52-.7,0-1.52.29-1.52,1.14s.48.87,3,1.52c.73.18,3,.65,3,2.93,0,1.84-1.45,3.22-4.17,3.22-2.23,0-4.31-1.1-4.28-3.57Z" fill="#10426b"/><line x1="470.5" y1="92.66" x2="488.49" y2="92.66" fill="none" stroke="#10426b" stroke-miterlimit="10"/><path d="M677,98.06a2.17,2.17,0,0,0-2.19-1.76c-2,0-2.73,1.69-2.73,3.45s.74,3.36,2.73,3.36a2.27,2.27,0,0,0,2.28-2.25h2.13a4.23,4.23,0,0,1-4.41,4.11c-3.11,0-4.94-2.32-4.94-5.22s1.83-5.31,4.94-5.31a4.07,4.07,0,0,1,4.33,3.62Z" fill="#10426b"/><path d="M682.28,101.4c0,1.33,1,1.85,2.22,1.85.77,0,2-.22,2-1.25s-1.51-1.27-3-1.66-3-1-3-2.86c0-2.06,1.94-3,3.75-3,2.1,0,4,.91,4,3.24h-2.14c-.07-1.21-.93-1.52-2-1.52-.7,0-1.52.29-1.52,1.14s.48.87,3,1.52c.73.18,3,.65,3,2.93,0,1.84-1.45,3.22-4.17,3.22-2.23,0-4.31-1.1-4.28-3.57Z" fill="#10426b"/><line x1="670.5" y1="92.66" x2="688.49" y2="92.66" fill="none" stroke="#10426b" stroke-miterlimit="10"/><path d="M877,98.06a2.16,2.16,0,0,0-2.19-1.76c-2,0-2.73,1.69-2.73,3.45s.74,3.36,2.73,3.36a2.27,2.27,0,0,0,2.28-2.25h2.14a4.25,4.25,0,0,1-4.42,4.11c-3.11,0-4.94-2.32-4.94-5.22s1.83-5.31,4.94-5.31a4.07,4.07,0,0,1,4.33,3.62Z" fill="#10426b"/><path d="M882.28,101.4c0,1.33,1,1.85,2.22,1.85.77,0,2-.22,2-1.25s-1.51-1.27-3-1.66-3-1-3-2.86c0-2.06,1.94-3,3.75-3,2.1,0,4,.91,4,3.24h-2.14c-.07-1.21-.93-1.52-2-1.52-.7,0-1.51.29-1.51,1.14s.47.87,3,1.52c.73.18,3,.65,3,2.93,0,1.84-1.44,3.22-4.17,3.22-2.23,0-4.31-1.1-4.28-3.57Z" fill="#10426b"/><line x1="870.5" y1="92.66" x2="888.49" y2="92.66" fill="none" stroke="#10426b" stroke-miterlimit="10"/></svg>