<svg id="b39e8bc8-ec55-4248-8107-b09f0ad6ac0f" data-name="Layer 1" xmlns="http://www.w3.org/2000/svg" width="6.41in" height="4.33in" viewBox="0 0 461.6 311.71"><rect x="0.75" y="0.75" width="106.72" height="169.71" fill="#b7e6ef" stroke="#10426b" stroke-linecap="round" stroke-linejoin="round" stroke-width="1.5"/><rect x="213.37" y="170.46" width="105.24" height="140.51" fill="#fbc694" stroke="#10426b" stroke-linecap="round" stroke-linejoin="round" stroke-width="1.5"/><path d="M257.13,279.87c0,1.34,1,1.86,2.22,1.86.78,0,2-.22,2-1.25s-1.51-1.27-3-1.66-3-1-3-2.86c0-2.06,1.94-3,3.75-3,2.1,0,4,.91,4,3.24H261c-.07-1.22-.93-1.53-2-1.53-.71,0-1.52.3-1.52,1.15s.48.87,3,1.52c.74.18,3,.64,3,2.93,0,1.84-1.45,3.22-4.18,3.22-2.23,0-4.31-1.1-4.28-3.58Z" fill="#10426b"/><path d="M264.76,273.16h4.53c2.5,0,3.47,1.59,3.47,3.22s-1,3.23-3.47,3.23H267v3.6h-2.2Zm2.2,4.73h1.72c1,0,1.94-.23,1.94-1.51s-.91-1.51-1.94-1.51H267Z" fill="#10426b"/><path d="M274.14,273.16h2.21v10h-2.21Z" fill="#10426b"/><path d="M238.62,296.77c0,1.34,1,1.86,2.22,1.86.78,0,2-.23,2-1.26s-1.51-1.26-3-1.66-3-1-3-2.86c0-2.05,1.94-3,3.75-3,2.1,0,4,.92,4,3.24h-2.14c-.07-1.21-.93-1.52-2-1.52-.71,0-1.52.29-1.52,1.14s.47.87,3,1.52c.73.18,3,.65,3,2.93,0,1.85-1.45,3.23-4.18,3.23-2.23,0-4.31-1.1-4.28-3.58Z" fill="#10426b"/><path d="M252.86,300.11H251v-1h0a2.59,2.59,0,0,1-2.23,1.21c-2.12,0-2.66-1.19-2.66-3v-4.48h2v4.12c0,1.19.35,1.79,1.28,1.79,1.09,0,1.55-.61,1.55-2.09v-3.82h2Z" fill="#10426b"/><path d="M254.38,290.05h2v3.66h0a2.72,2.72,0,0,1,2.3-1.08c1.45,0,3,1.17,3,3.83s-1.56,3.84-3,3.84a2.51,2.51,0,0,1-2.39-1.12h0v.93h-1.9Zm3.63,4.08c-1.18,0-1.7,1.12-1.7,2.34s.52,2.33,1.7,2.33,1.7-1.12,1.7-2.33S259.19,294.13,258,294.13Z" fill="#10426b"/><path d="M263,292.82h1.89v1h.05a2.58,2.58,0,0,1,2.22-1.21c2.12,0,2.66,1.19,2.66,3v4.48h-2V296c0-1.19-.35-1.79-1.28-1.79s-1.55.61-1.55,2.09v3.82h-2Z" fill="#10426b"/><path d="M274.85,292.63a3.84,3.84,0,1,1-3.76,3.84A3.57,3.57,0,0,1,274.85,292.63Zm0,6.17c1.36,0,1.77-1.17,1.77-2.33s-.41-2.34-1.77-2.34-1.76,1.17-1.76,2.34S273.5,298.8,274.85,298.8Z" fill="#10426b"/><path d="M285.11,299.18h0a2.4,2.4,0,0,1-2.21,1.12c-2.19,0-3.26-1.88-3.26-3.9s1.08-3.77,3.22-3.77a2.49,2.49,0,0,1,2.15,1.08h0v-3.66h2v10.06h-1.9Zm-1.75-5.05c-1.3,0-1.75,1.13-1.75,2.33s.52,2.34,1.75,2.34,1.72-1.16,1.72-2.36S284.66,294.13,283.36,294.13Z" fill="#10426b"/><path d="M290.16,297c.06,1.27.68,1.85,1.79,1.85a1.64,1.64,0,0,0,1.57-.95h1.76a3.27,3.27,0,0,1-3.4,2.45,3.55,3.55,0,0,1-3.72-3.83,3.65,3.65,0,0,1,3.72-3.84c2.47,0,3.67,2.08,3.53,4.32Zm3.25-1.27c-.18-1-.62-1.55-1.59-1.55a1.58,1.58,0,0,0-1.66,1.55Z" fill="#10426b"/><path d="M238.68,227H241l3.75,10.05h-2.29l-.76-2.24h-3.76l-.78,2.24h-2.24Zm-.21,6.17h2.6l-1.26-3.69h0Z" fill="#10426b"/><path d="M245.58,227h4.33c2.6,0,4.56,1.63,4.56,5,0,2.91-1.49,5.08-4.56,5.08h-4.33Zm2.21,8.19h2c1.28,0,2.5-.78,2.5-3,0-2-.7-3.32-2.9-3.32h-1.57Z" fill="#10426b"/><path d="M263.26,236a3.38,3.38,0,0,1-2.75,1.38c-3.11,0-4.94-2.32-4.94-5.22s1.83-5.31,4.94-5.31a4,4,0,0,1,4.23,3.55h-2.11a2,2,0,0,0-2.12-1.69c-2,0-2.73,1.69-2.73,3.45s.74,3.36,2.73,3.36a2.18,2.18,0,0,0,2.39-2.17h-2.23v-1.64h4.22v5.43h-1.4Z" fill="#10426b"/><path d="M271.23,237.09h-2V230.7h-2.48v-1.51c1.4,0,2.68-.45,2.89-2h1.59Z" fill="#10426b"/><path d="M277.93,234.81h-4.17V233l4.28-5.75h1.79v5.93h1.3v1.65h-1.3v2.28h-1.9Zm0-5.07h-.05l-2.54,3.42h2.59Z" fill="#10426b"/><path d="M286.87,237.09h-2V230.7H282.4v-1.51c1.39,0,2.67-.45,2.88-2h1.59Z" fill="#10426b"/><path d="M289.7,231c-.07-2.25,1.21-4,3.58-4a3.13,3.13,0,0,1,3.37,3.08,3.45,3.45,0,0,1-1.76,3,10.72,10.72,0,0,0-2.84,2.27h4.66v1.71h-7.23c0-2.28,1.4-3.25,3.11-4.4.87-.6,2.05-1.2,2.07-2.41a1.42,1.42,0,0,0-1.48-1.52c-1.18,0-1.56,1.22-1.56,2.26Z" fill="#10426b"/><path d="M33,15.37h3.11l2.35,6.92h0l2.23-6.92h3.11V25.43H41.7V18.3h0l-2.46,7.13h-1.7L35,18.37h0v7.06H33Z" fill="#10426b"/><path d="M47.55,17h-2V15.37h2Zm-2,1.13h2v7.28h-2Z" fill="#10426b"/><path d="M54.08,20.71a1.37,1.37,0,0,0-1.48-1.26c-1.28,0-1.7,1.3-1.7,2.37s.41,2.3,1.66,2.3a1.53,1.53,0,0,0,1.59-1.48h1.93a3.24,3.24,0,0,1-3.5,3,3.54,3.54,0,0,1-3.68-3.73c0-2.27,1.35-3.94,3.72-3.94,1.71,0,3.29.9,3.42,2.76Z" fill="#10426b"/><path d="M57.21,18.15h1.9V19.5h0A2.57,2.57,0,0,1,61.45,18a1.56,1.56,0,0,1,.44.07v1.86a3.82,3.82,0,0,0-.72-.07c-1.46,0-2,1.05-2,2.33v3.29h-2Z" fill="#10426b"/><path d="M66.21,18A3.57,3.57,0,0,1,70,21.79a3.77,3.77,0,1,1-7.53,0A3.57,3.57,0,0,1,66.21,18Zm0,6.17C67.58,24.12,68,23,68,21.79s-.4-2.34-1.77-2.34-1.76,1.17-1.76,2.34S64.86,24.12,66.21,24.12Z" fill="#10426b"/><path d="M71.26,20.72H75.5v1.72H71.26Z" fill="#10426b"/><path d="M27.4,37.6a1.37,1.37,0,0,0-1.48-1.25c-1.28,0-1.7,1.29-1.7,2.36s.4,2.3,1.66,2.3a1.54,1.54,0,0,0,1.59-1.48h1.92a3.25,3.25,0,0,1-3.5,3,3.53,3.53,0,0,1-3.67-3.73c0-2.27,1.35-3.95,3.71-3.95,1.72,0,3.3.9,3.42,2.76Z" fill="#10426b"/><path d="M34.05,34.84a3.57,3.57,0,0,1,3.77,3.85,3.56,3.56,0,0,1-3.77,3.83,3.56,3.56,0,0,1-3.75-3.83A3.57,3.57,0,0,1,34.05,34.84Zm0,6.17c1.37,0,1.77-1.17,1.77-2.32s-.4-2.34-1.77-2.34-1.76,1.17-1.76,2.34S32.7,41,34.05,41Z" fill="#10426b"/><path d="M39.12,35H41v1h0a2.61,2.61,0,0,1,2.22-1.21c2.13,0,2.66,1.2,2.66,3v4.48h-2V38.21c0-1.2-.35-1.79-1.28-1.79s-1.54.61-1.54,2.08v3.82h-2Z" fill="#10426b"/><path d="M50,35h1.47v1.34H50V40c0,.68.17.85.85.85a3.26,3.26,0,0,0,.62-.06v1.56a7.29,7.29,0,0,1-1.17.07c-1.22,0-2.29-.28-2.29-1.73V36.38H46.79V35H48V32.86h2Z" fill="#10426b"/><path d="M52.41,35h1.9v1.35h0a2.59,2.59,0,0,1,2.32-1.55,1.62,1.62,0,0,1,.44.07v1.86a3.82,3.82,0,0,0-.72-.07c-1.46,0-2,1.06-2,2.34v3.28h-2Z" fill="#10426b"/><path d="M61.42,34.84a3.58,3.58,0,0,1,3.77,3.85,3.77,3.77,0,1,1-7.53,0A3.57,3.57,0,0,1,61.42,34.84Zm0,6.17c1.36,0,1.77-1.17,1.77-2.32s-.41-2.34-1.77-2.34-1.76,1.17-1.76,2.34S60.07,41,61.42,41Z" fill="#10426b"/><path d="M66.54,32.26h2V42.32h-2Z" fill="#10426b"/><path d="M70.17,32.26h2V42.32h-2Z" fill="#10426b"/><path d="M75.39,39.17c.06,1.26.68,1.84,1.79,1.84a1.63,1.63,0,0,0,1.57-.94h1.76a3.27,3.27,0,0,1-3.4,2.45,3.56,3.56,0,0,1-3.72-3.83,3.65,3.65,0,0,1,3.72-3.85c2.47,0,3.67,2.09,3.53,4.33Zm3.25-1.27c-.18-1-.62-1.55-1.59-1.55a1.58,1.58,0,0,0-1.66,1.55Z" fill="#10426b"/><path d="M81.82,35h1.9v1.35h0a2.59,2.59,0,0,1,2.32-1.55,1.62,1.62,0,0,1,.44.07v1.86a3.91,3.91,0,0,0-.72-.07c-1.46,0-2,1.06-2,2.34v3.28h-2Z" fill="#10426b"/><path d="M26.89,158.44c0,1.34,1,1.86,2.22,1.86.78,0,2-.22,2-1.25s-1.51-1.27-3-1.66-3-1-3-2.86c0-2.06,1.94-3,3.76-3,2.09,0,4,.91,4,3.24H30.73c-.07-1.22-.93-1.53-2-1.53-.71,0-1.52.3-1.52,1.15s.48.87,3,1.52c.74.18,3,.64,3,2.93,0,1.84-1.45,3.22-4.18,3.22-2.22,0-4.31-1.1-4.28-3.58Z" fill="#10426b"/><path d="M34.52,151.73h4.53c2.5,0,3.47,1.59,3.47,3.22a3.11,3.11,0,0,1-3.47,3.23H36.73v3.6H34.52Zm2.21,4.73h1.71c1,0,1.94-.23,1.94-1.51s-.91-1.51-1.94-1.51H36.73Z" fill="#10426b"/><path d="M43.9,151.73h2.21v10.05H43.9Z" fill="#10426b"/><path d="M52,151.73h3.11l2.35,6.91h0l2.22-6.91h3.11v10.05H60.71v-7.13h0l-2.47,7.13h-1.7l-2.46-7.05h0v7.05H52Z" fill="#10426b"/><path d="M64.43,156.74c.11-1.87,1.79-2.44,3.42-2.44,1.45,0,3.19.33,3.19,2.07v3.79a3.61,3.61,0,0,0,.26,1.62h-2a2.72,2.72,0,0,1-.14-.7,3.33,3.33,0,0,1-2.45.9c-1.38,0-2.47-.69-2.47-2.18,0-1.65,1.23-2.05,2.47-2.22s2.37-.14,2.37-1-.6-1-1.3-1-1.25.31-1.32,1.1Zm4.62,1.48a4.07,4.07,0,0,1-1.66.42c-.62.13-1.19.34-1.19,1.07s.58.93,1.23.93A1.49,1.49,0,0,0,69.05,159Z" fill="#10426b"/><path d="M74.65,153.37h-2v-1.64h2Zm-2,1.13h2v7.28h-2Z" fill="#10426b"/><path d="M76.22,154.5h1.9v1h0a2.62,2.62,0,0,1,2.23-1.21c2.12,0,2.66,1.2,2.66,3v4.48h-2v-4.11c0-1.2-.35-1.79-1.28-1.79-1.09,0-1.55.61-1.55,2.08v3.82h-2Z" fill="#10426b"/><path d="M68.31,134.39a3.38,3.38,0,0,1-2.75,1.38c-3.11,0-4.94-2.33-4.94-5.23s1.83-5.31,4.94-5.31a4,4,0,0,1,4.23,3.55H67.68a2.06,2.06,0,0,0-2.12-1.69c-2,0-2.73,1.69-2.73,3.45s.74,3.37,2.73,3.37A2.18,2.18,0,0,0,68,131.74H65.73v-1.65H70v5.44H68.54Z" fill="#10426b"/><path d="M71.74,125.47h4.53c2.5,0,3.47,1.59,3.47,3.23s-1,3.22-3.47,3.22H73.94v3.61h-2.2Zm2.2,4.73h1.72c1,0,1.94-.22,1.94-1.5s-.91-1.51-1.94-1.51H73.94Z" fill="#10426b"/><path d="M81.12,125.47h2.21v10.06H81.12Z" fill="#10426b"/><path d="M89.77,125.23c3.11,0,4.94,2.32,4.94,5.31s-1.83,5.23-4.94,5.23-4.93-2.33-4.93-5.23S86.66,125.23,89.77,125.23Zm0,8.68c2,0,2.73-1.69,2.73-3.37s-.74-3.45-2.73-3.45S87,128.78,87,130.54,87.79,133.91,89.77,133.91Z" fill="#10426b"/><path d="M97.56,133.16c0,.87.74,1.23,1.53,1.23.58,0,1.31-.23,1.31-.93s-.83-.82-2.27-1.13c-1.15-.25-2.31-.66-2.31-1.94,0-1.86,1.61-2.34,3.17-2.34s3.05.53,3.21,2.32h-1.9c-.06-.77-.65-1-1.37-1-.45,0-1.11.08-1.11.67s1.13.82,2.27,1.09,2.3.69,2.3,2c0,1.91-1.66,2.53-3.32,2.53s-3.33-.63-3.41-2.56Z" fill="#10426b"/><path d="M84.65,242h2.21V252H84.65Z" fill="#10426b"/><path d="M88.59,244.73h1.9v1h0a2.59,2.59,0,0,1,2.23-1.21c2.12,0,2.66,1.2,2.66,3V252h-2v-4.12c0-1.19-.35-1.78-1.28-1.78-1.09,0-1.55.6-1.55,2.08V252h-2Z" fill="#10426b"/><path d="M96.94,244.73h1.9v.92h0a2.43,2.43,0,0,1,2.17-1.12c2.28,0,3.31,1.84,3.31,3.91s-1.07,3.76-3.2,3.76A2.6,2.6,0,0,1,99,251.11h0v3.46h-2Zm5.4,3.66c0-1.16-.47-2.36-1.75-2.36s-1.73,1.17-1.73,2.36.45,2.31,1.75,2.31S102.34,249.57,102.34,248.39Z" fill="#10426b"/><path d="M112.36,252h-1.9v-1h0a2.59,2.59,0,0,1-2.23,1.21c-2.12,0-2.66-1.19-2.66-3v-4.47h2v4.11c0,1.19.35,1.79,1.28,1.79,1.09,0,1.55-.61,1.55-2.09v-3.81h2Z" fill="#10426b"/><path d="M116.41,244.73h1.46v1.33h-1.46v3.61c0,.67.17.84.84.84a3.18,3.18,0,0,0,.62,0V252a7.09,7.09,0,0,1-1.16.07c-1.23,0-2.3-.28-2.3-1.73v-4.3H113.2v-1.33h1.21v-2.19h2Z" fill="#10426b"/><path d="M120.38,249.64c0,.87.74,1.23,1.53,1.23.58,0,1.31-.23,1.31-.93s-.83-.82-2.27-1.13c-1.15-.25-2.3-.66-2.3-1.94,0-1.86,1.6-2.34,3.16-2.34s3.06.53,3.21,2.32h-1.9c-.06-.77-.65-1-1.36-1-.45,0-1.11.08-1.11.67s1.12.82,2.26,1.09,2.31.69,2.31,2c0,1.91-1.66,2.53-3.32,2.53s-3.34-.63-3.42-2.56Z" fill="#10426b"/><path d="M413.79,241.71c3.11,0,4.94,2.32,4.94,5.31s-1.83,5.23-4.94,5.23-4.94-2.33-4.94-5.23S410.68,241.71,413.79,241.71Zm0,8.68c2,0,2.73-1.69,2.73-3.37s-.74-3.45-2.73-3.45-2.73,1.69-2.73,3.45S411.81,250.39,413.79,250.39Z" fill="#10426b"/><path d="M426.85,252H425v-1h0a2.59,2.59,0,0,1-2.22,1.21c-2.13,0-2.66-1.19-2.66-3v-4.47h2v4.11c0,1.19.35,1.79,1.28,1.79s1.54-.61,1.54-2.09v-3.81h2Z" fill="#10426b"/><path d="M430.9,244.73h1.47v1.33H430.9v3.61c0,.67.17.84.85.84a3.24,3.24,0,0,0,.62,0V252a7.29,7.29,0,0,1-1.17.07c-1.23,0-2.29-.28-2.29-1.73v-4.3H427.7v-1.33h1.21v-2.19h2Z" fill="#10426b"/><path d="M433.32,244.73h1.9v.92h0a2.43,2.43,0,0,1,2.17-1.12c2.28,0,3.3,1.84,3.3,3.91s-1.06,3.76-3.19,3.76a2.6,2.6,0,0,1-2.18-1.09h0v3.46h-2Zm5.41,3.66c0-1.16-.47-2.36-1.75-2.36s-1.73,1.17-1.73,2.36.45,2.31,1.75,2.31S438.73,249.57,438.73,248.39Z" fill="#10426b"/><path d="M448.74,252h-1.9v-1h0a2.58,2.58,0,0,1-2.22,1.21c-2.13,0-2.66-1.19-2.66-3v-4.47h2v4.11c0,1.19.35,1.79,1.28,1.79s1.55-.61,1.55-2.09v-3.81h2Z" fill="#10426b"/><path d="M452.8,244.73h1.46v1.33H452.8v3.61c0,.67.17.84.84.84a3.24,3.24,0,0,0,.62,0V252a7.22,7.22,0,0,1-1.17.07c-1.22,0-2.29-.28-2.29-1.73v-4.3h-1.21v-1.33h1.21v-2.19h2Z" fill="#10426b"/><path d="M456.77,249.64c0,.87.74,1.23,1.53,1.23.58,0,1.31-.23,1.31-.93s-.83-.82-2.27-1.13c-1.15-.25-2.3-.66-2.3-1.94,0-1.86,1.6-2.34,3.16-2.34s3.05.53,3.21,2.32h-1.9c-.06-.77-.65-1-1.37-1-.45,0-1.11.08-1.11.67s1.13.82,2.27,1.09,2.3.69,2.3,2c0,1.91-1.66,2.53-3.32,2.53s-3.33-.63-3.41-2.56Z" fill="#10426b"/><line x1="145.79" y1="218.53" x2="207.76" y2="218.53" fill="none" stroke="#10426b" stroke-miterlimit="10" stroke-width="1.5"/><polygon points="199.87 222.18 213.37 218.56 199.87 214.95 199.87 222.18" fill="#10426b"/><line x1="145.79" y1="237.06" x2="207.76" y2="237.06" fill="none" stroke="#10426b" stroke-miterlimit="10" stroke-width="1.5"/><polygon points="199.87 240.71 213.37 237.09 199.87 233.48 199.87 240.71" fill="#10426b"/><line x1="145.79" y1="255.59" x2="207.76" y2="255.59" fill="none" stroke="#10426b" stroke-miterlimit="10" stroke-width="1.5"/><polygon points="199.87 259.24 213.37 255.62 199.87 252.01 199.87 259.24" fill="#10426b"/><line x1="145.79" y1="274.12" x2="207.76" y2="274.12" fill="none" stroke="#10426b" stroke-miterlimit="10" stroke-width="1.5"/><polygon points="199.87 277.77 213.37 274.15 199.87 270.54 199.87 277.77" fill="#10426b"/><line x1="318.61" y1="218.53" x2="380.58" y2="218.53" fill="none" stroke="#10426b" stroke-miterlimit="10" stroke-width="1.5"/><polygon points="372.69 222.18 386.18 218.56 372.69 214.95 372.69 222.18" fill="#10426b"/><polygon points="288.56 156.96 292.17 170.46 295.79 156.96 288.56 156.96" fill="#10426b"/><polygon points="270.89 156.96 274.51 170.46 278.12 156.96 270.89 156.96" fill="#10426b"/><polygon points="253.22 156.96 256.84 170.46 260.46 156.96 253.22 156.96" fill="#10426b"/><polygon points="235.56 156.96 239.17 170.46 242.79 156.96 235.56 156.96" fill="#10426b"/><line x1="318.61" y1="237.06" x2="380.58" y2="237.06" fill="none" stroke="#10426b" stroke-miterlimit="10" stroke-width="1.5"/><polygon points="372.69 240.71 386.18 237.09 372.69 233.48 372.69 240.71" fill="#10426b"/><line x1="318.61" y1="255.59" x2="380.58" y2="255.59" fill="none" stroke="#10426b" stroke-miterlimit="10" stroke-width="1.5"/><polygon points="372.69 259.24 386.18 255.62 372.69 252.01 372.69 259.24" fill="#10426b"/><line x1="318.61" y1="274.12" x2="380.58" y2="274.12" fill="none" stroke="#10426b" stroke-miterlimit="10" stroke-width="1.5"/><polygon points="372.69 277.77 386.18 274.15 372.69 270.54 372.69 277.77" fill="#10426b"/><path d="M397.77,225.37c0-3.73-2.47-6.81-5.47-6.81m5.49,6.14v15.61m-5.43,34.32c3,0,5.48-3.07,5.48-6.81m0-14.62v15.5m-.06-28.6c0,3.74,2.47,6.81,5.48,6.81m0-.09c-3,0-5.48,3.08-5.48,6.81" fill="none" stroke="#10426b" stroke-miterlimit="14.3" stroke-width="1.5"/><path d="M133.79,267.82c0,3.74,2.48,6.81,5.48,6.81m-5.49-6.13V252.89m5.43-34.33c-3,0-5.48,3.08-5.48,6.81m0,14.63V224.5m.06,28.59c0-3.73-2.47-6.81-5.48-6.81m0,.09c3,0,5.48-3.07,5.48-6.81" fill="none" stroke="#10426b" stroke-miterlimit="14.3" stroke-width="1.5"/><polyline points="239.17 159.19 239.17 145.53 107.79 145.53" fill="none" stroke="#10426b" stroke-miterlimit="14.3" stroke-width="1.5"/><polyline points="256.84 161.78 256.84 135.53 107.79 135.53" fill="none" stroke="#10426b" stroke-miterlimit="14.3" stroke-width="1.5"/><polyline points="274.51 156.96 274.51 125.53 107.79 125.53" fill="none" stroke="#10426b" stroke-miterlimit="14.3" stroke-width="1.5"/><polyline points="292.17 156.96 292.17 115.53 107.79 115.53" fill="none" stroke="#10426b" stroke-miterlimit="14.3" stroke-width="1.5"/></svg>