<svg width="800" height="500" xmlns="http://www.w3.org/2000/svg">
  <style>
    .box { fill: #ffffff; stroke: #000000; stroke-width: 1.5px; rx: 5; ry: 5; }
    .highlight { fill: #ffd580; }
    .text { font: 14px sans-serif; }
    .bold { font-weight: bold; font-size: 16px; }
    .arrow { marker-end: url(#arrowhead); stroke: black; fill: none; }
    .dashed { stroke-dasharray: 5,5; }
  </style>

  <defs>
    <marker id="arrowhead" markerWidth="10" markerHeight="7"
            refX="10" refY="3.5" orient="auto">
      <polygon points="0 0, 10 3.5, 0 7" fill="black"/>
    </marker>
  </defs>

  <!-- High precision map -->
  <rect x="40" y="60" width="160" height="40" class="box"/>
  <text x="120" y="85" class="text" text-anchor="middle">High precision map</text>

  <!-- Sensor -->
  <rect x="40" y="140" width="160" height="40" class="box"/>
  <text x="120" y="165" class="text" text-anchor="middle">Sensor</text>

  <!-- Information fusion -->
  <line x1="200" y1="80" x2="320" y2="130" class="arrow dashed"/>
  <text x="215" y="70" class="text">Known</text>
  <text x="215" y="85" class="text">information</text>

  <line x1="200" y1="160" x2="320" y2="170" class="arrow dashed"/>
  <text x="215" y="190" class="text">Unknown</text>
  <text x="215" y="205" class="text">information</text>

  <line x1="200" y1="100" x2="320" y2="150" class="arrow"/>
  <text x="215" y="130" class="text">Information</text>
  <text x="215" y="145" class="text">fusion</text>

  <!-- Vehicle status -->
  <line x1="120" y1="180" x2="120" y2="370" class="arrow"/>
  <text x="125" y="280" transform="rotate(-90 125,280)" class="text">Vehicle status</text>

  <!-- Path Planning Box -->
  <rect x="310" y="40" width="420" height="400" fill="#fffceb" stroke="#000" stroke-width="1.5"/>
  <text x="520" y="65" class="bold" text-anchor="middle">Path planning</text>

  <!-- Global path planning -->
  <rect x="450" y="100" width="140" height="40" class="box"/>
  <text x="520" y="125" class="text" text-anchor="middle">Global path planning</text>

  <!-- Partial path planning -->
  <rect x="450" y="170" width="140" height="40" class="box"/>
  <text x="520" y="195" class="text" text-anchor="middle">Partial path planning</text>

  <line x1="520" y1="140" x2="520" y2="170" class="arrow"/>

  <!-- Horizontal and Vertical planning labels -->
  <text x="400" y="265" class="text">Horizontal</text>
  <text x="400" y="280" class="text">planning</text>

  <text x="610" y="265" class="text">Vertical</text>
  <text x="610" y="280" class="text">planning</text>

  <!-- Arrows from partial planning -->
  <line x1="520" y1="210" x2="390" y2="300" class="arrow"/>
  <line x1="520" y1="210" x2="650" y2="300" class="arrow"/>

  <!-- Trajectory planning -->
  <rect x="320" y="300" width="160" height="40" class="box highlight"/>
  <text x="400" y="325" class="text" text-anchor="middle">Trajectory planning</text>

  <!-- Speed planning -->
  <rect x="560" y="300" width="160" height="40" class="box highlight"/>
  <text x="640" y="325" class="text" text-anchor="middle">Speed planning</text>

  <!-- Figure caption -->
  <text x="400" y="480" class="text bold" text-anchor="middle">
    Fig. 1. Path planning structure of auto-driving vehicle
  </text>
</svg>
